<?xml version="1.0" encoding="UTF-8"?>
<svg xmlns="http://www.w3.org/2000/svg"
     width="215.000mm" height="100.000mm"
     viewBox="0 0 215.000 100.000">
  <title>Zentangle bookmarks — MeerK40t</title>
  <!-- Cut: red (#ff0000) matches default Cut ops. Engrave: blue (#0000ff) matches default Engrave ops. -->
  <!-- Engrave: set speed / PPI on your Engrave op in MeerK40t. -->
  <defs><clipPath id="clip-bm-0"><rect x="0.750" y="0.750" width="48.500" height="98.500"/></clipPath><clipPath id="clip-bm-1"><rect x="55.750" y="0.750" width="48.500" height="98.500"/></clipPath><clipPath id="clip-bm-2"><rect x="110.750" y="0.750" width="48.500" height="98.500"/></clipPath><clipPath id="clip-bm-3"><rect x="165.750" y="0.750" width="48.500" height="98.500"/></clipPath></defs>
  <g id="engrave-art" fill="none" stroke="#0000ff" stroke-width="0.15"
     stroke-linecap="round" stroke-linejoin="round">
    <g clip-path="url(#clip-bm-0)"><path d="M26.10,29.55Q26.65,30.00 26.10,30.45 M26.10,30.45Q26.16,31.16 25.45,31.10 M25.45,31.10Q25.00,31.65 24.55,31.10 M24.55,31.10Q23.84,31.16 23.90,30.45 M23.90,30.45Q23.35,30.00 23.90,29.55 M23.90,29.55Q23.84,28.84 24.55,28.90 M24.55,28.90Q25.00,28.35 25.45,28.90 M25.45,28.90Q26.16,28.84 26.10,29.55"/><path d="M27.26,29.27Q28.29,30.00 27.26,30.73 M27.26,30.73Q27.66,31.94 26.39,31.92 M26.39,31.92Q26.02,33.13 25.00,32.37 M25.00,32.37Q23.98,33.13 23.61,31.92 M23.61,31.92Q22.34,31.94 22.74,30.73 M22.74,30.73Q21.71,30.00 22.74,29.27 M22.74,29.27Q22.34,28.06 23.61,28.08 M23.61,28.08Q23.98,26.87 25.00,27.63 M25.00,27.63Q26.02,26.87 26.39,28.08 M26.39,28.08Q27.66,28.06 27.26,29.27"/><path d="M28.44,29.08Q29.94,30.00 28.44,30.92 M28.44,30.92Q29.28,32.47 27.52,32.52 M27.52,32.52Q27.47,34.28 25.92,33.44 M25.92,33.44Q25.00,34.94 24.08,33.44 M24.08,33.44Q22.53,34.28 22.48,32.52 M22.48,32.52Q20.72,32.47 21.56,30.92 M21.56,30.92Q20.06,30.00 21.56,29.08 M21.56,29.08Q20.72,27.53 22.48,27.48 M22.48,27.48Q22.53,25.72 24.08,26.56 M24.08,26.56Q25.00,25.06 25.92,26.56 M25.92,26.56Q27.47,25.72 27.52,27.48 M27.52,27.48Q29.28,27.53 28.44,29.08"/><path d="M29.62,28.94Q31.59,30.00 29.62,31.06 M29.62,31.06Q30.94,32.86 28.71,32.96 M28.71,32.96Q29.11,35.15 27.06,34.27 M27.06,34.27Q26.47,36.42 25.00,34.74 M25.00,34.74Q23.53,36.42 22.94,34.27 M22.94,34.27Q20.89,35.15 21.29,32.96 M21.29,32.96Q19.06,32.86 20.38,31.06 M20.38,31.06Q18.41,30.00 20.38,28.94 M20.38,28.94Q19.06,27.14 21.29,27.04 M21.29,27.04Q20.89,24.85 22.94,25.73 M22.94,25.73Q23.53,23.58 25.00,25.26 M25.00,25.26Q26.47,23.58 27.06,25.73 M27.06,25.73Q29.11,24.85 28.71,27.04 M28.71,27.04Q30.94,27.14 29.62,28.94"/><path d="M30.82,28.84Q33.24,30.00 30.82,31.16 M30.82,31.16Q32.61,33.15 29.93,33.29 M29.93,33.29Q30.82,35.82 28.29,34.93 M28.29,34.93Q28.15,37.61 26.16,35.82 M26.16,35.82Q25.00,38.24 23.84,35.82 M23.84,35.82Q21.85,37.61 21.71,34.93 M21.71,34.93Q19.18,35.82 20.07,33.29 M20.07,33.29Q17.39,33.15 19.18,31.16 M19.18,31.16Q16.76,30.00 19.18,28.84 M19.18,28.84Q17.39,26.85 20.07,26.71 M20.07,26.71Q19.18,24.18 21.71,25.07 M21.71,25.07Q21.85,22.39 23.84,24.18 M23.84,24.18Q25.00,21.76 26.16,24.18 M26.16,24.18Q28.15,22.39 28.29,25.07 M28.29,25.07Q30.82,24.18 29.93,26.71 M29.93,26.71Q32.61,26.85 30.82,28.84"/><path d="M32.01,28.76Q34.88,30.00 32.01,31.24 M32.01,31.24Q34.29,33.38 31.16,33.56 M31.16,33.56Q32.57,36.35 29.57,35.45 M29.57,35.45Q29.94,38.56 27.43,36.69 M27.43,36.69Q26.72,39.73 25.00,37.12 M25.00,37.12Q23.28,39.73 22.57,36.69 M22.57,36.69Q20.06,38.56 20.43,35.45 M20.43,35.45Q17.43,36.35 18.84,33.56 M18.84,33.56Q15.71,33.38 17.99,31.24 M17.99,31.24Q15.12,30.00 17.99,28.76 M17.99,28.76Q15.71,26.62 18.84,26.44 M18.84,26.44Q17.43,23.65 20.43,24.55 M20.43,24.55Q20.06,21.44 22.57,23.31 M22.57,23.31Q23.28,20.27 25.00,22.88 M25.00,22.88Q26.72,20.27 27.43,23.31 M27.43,23.31Q29.94,21.44 29.57,24.55 M29.57,24.55Q32.57,23.65 31.16,26.44 M31.16,26.44Q34.29,26.62 32.01,28.76"/><path d="M33.20,28.70Q36.53,30.00 33.20,31.30 M33.20,31.30Q35.97,33.56 32.40,33.77 M32.40,33.77Q34.33,36.78 30.87,35.87 M30.87,35.87Q31.78,39.33 28.77,37.40 M28.77,37.40Q28.56,40.97 26.30,38.20 M26.30,38.20Q25.00,41.53 23.70,38.20 M23.70,38.20Q21.44,40.97 21.23,37.40 M21.23,37.40Q18.22,39.33 19.13,35.87 M19.13,35.87Q15.67,36.78 17.60,33.77 M17.60,33.77Q14.03,33.56 16.80,31.30 M16.80,31.30Q13.47,30.00 16.80,28.70 M16.80,28.70Q14.03,26.44 17.60,26.23 M17.60,26.23Q15.67,23.22 19.13,24.13 M19.13,24.13Q18.22,20.67 21.23,22.60 M21.23,22.60Q21.44,19.03 23.70,21.80 M23.70,21.80Q25.00,18.47 26.30,21.80 M26.30,21.80Q28.56,19.03 28.77,22.60 M28.77,22.60Q31.78,20.67 30.87,24.13 M30.87,24.13Q34.33,23.22 32.40,26.23 M32.40,26.23Q35.97,26.44 33.20,28.70"/><path d="M34.39,28.65Q38.18,30.00 34.39,31.35 M34.39,31.35Q37.64,33.71 33.63,33.94 M33.63,33.94Q36.08,37.12 32.17,36.21 M32.17,36.21Q33.63,39.96 30.13,37.98 M30.13,37.98Q30.47,41.99 27.67,39.10 M27.67,39.10Q26.88,43.04 25.00,39.49 M25.00,39.49Q23.12,43.04 22.33,39.10 M22.33,39.10Q19.53,41.99 19.87,37.98 M19.87,37.98Q16.37,39.96 17.83,36.21 M17.83,36.21Q13.92,37.12 16.37,33.94 M16.37,33.94Q12.36,33.71 15.61,31.35 M15.61,31.35Q11.82,30.00 15.61,28.65 M15.61,28.65Q12.36,26.29 16.37,26.06 M16.37,26.06Q13.92,22.88 17.83,23.79 M17.83,23.79Q16.37,20.04 19.87,22.02 M19.87,22.02Q19.53,18.01 22.33,20.90 M22.33,20.90Q23.12,16.96 25.00,20.51 M25.00,20.51Q26.88,16.96 27.67,20.90 M27.67,20.90Q30.47,18.01 30.13,22.02 M30.13,22.02Q33.63,20.04 32.17,23.79 M32.17,23.79Q36.08,22.88 33.63,26.06 M33.63,26.06Q37.64,26.29 34.39,28.65"/><path d="M30.71,66.15Q36.00,68.00 30.71,69.85 M30.71,69.85Q33.90,74.47 28.53,72.85 M28.53,72.85Q28.40,78.46 25.00,74.00 M25.00,74.00Q21.60,78.46 21.47,72.85 M21.47,72.85Q16.10,74.47 19.29,69.85 M19.29,69.85Q14.00,68.00 19.29,66.15 M19.29,66.15Q16.10,61.53 21.47,63.15 M21.47,63.15Q21.60,57.54 25.00,62.00 M25.00,62.00Q28.40,57.54 28.53,63.15 M28.53,63.15Q33.90,61.53 30.71,66.15"/><circle cx="33.000" cy="68.000" r="0.400"/><circle cx="31.472" cy="72.702" r="0.400"/><circle cx="27.472" cy="75.608" r="0.400"/><circle cx="22.528" cy="75.608" r="0.400"/><circle cx="18.528" cy="72.702" r="0.400"/><circle cx="17.000" cy="68.000" r="0.400"/><circle cx="18.528" cy="63.298" r="0.400"/><circle cx="22.528" cy="60.392" r="0.400"/><circle cx="27.472" cy="60.392" r="0.400"/><circle cx="31.472" cy="63.298" r="0.400"/><circle cx="15.941" cy="76.000" r="0.250"/><circle cx="15.870" cy="76.360" r="0.250"/><circle cx="15.666" cy="76.666" r="0.250"/><circle cx="15.360" cy="76.870" r="0.250"/><circle cx="15.000" cy="76.941" r="0.250"/><circle cx="14.640" cy="76.870" r="0.250"/><circle cx="14.334" cy="76.666" r="0.250"/><circle cx="14.130" cy="76.360" r="0.250"/><circle cx="14.059" cy="76.000" r="0.250"/><circle cx="14.130" cy="75.640" r="0.250"/><circle cx="14.334" cy="75.334" r="0.250"/><circle cx="14.640" cy="75.130" r="0.250"/><circle cx="15.000" cy="75.059" r="0.250"/><circle cx="15.360" cy="75.130" r="0.250"/><circle cx="15.666" cy="75.334" r="0.250"/><circle cx="15.870" cy="75.640" r="0.250"/><circle cx="16.882" cy="76.000" r="0.250"/><circle cx="16.790" cy="76.582" r="0.250"/><circle cx="16.523" cy="77.106" r="0.250"/><circle cx="16.106" cy="77.523" r="0.250"/><circle cx="15.582" cy="77.790" r="0.250"/><circle cx="15.000" cy="77.882" r="0.250"/><circle cx="14.418" cy="77.790" r="0.250"/><circle cx="13.894" cy="77.523" r="0.250"/><circle cx="13.477" cy="77.106" r="0.250"/><circle cx="13.210" cy="76.582" r="0.250"/><circle cx="13.118" cy="76.000" r="0.250"/><circle cx="13.210" cy="75.418" r="0.250"/><circle cx="13.477" cy="74.894" r="0.250"/><circle cx="13.894" cy="74.477" r="0.250"/><circle cx="14.418" cy="74.210" r="0.250"/><circle cx="15.000" cy="74.118" r="0.250"/><circle cx="15.582" cy="74.210" r="0.250"/><circle cx="16.106" cy="74.477" r="0.250"/><circle cx="16.523" cy="74.894" r="0.250"/><circle cx="16.790" cy="75.418" r="0.250"/><circle cx="17.824" cy="76.000" r="0.250"/><circle cx="17.727" cy="76.731" r="0.250"/><circle cx="17.445" cy="77.412" r="0.250"/><circle cx="16.997" cy="77.997" r="0.250"/><circle cx="16.412" cy="78.445" r="0.250"/><circle cx="15.731" cy="78.727" r="0.250"/><circle cx="15.000" cy="78.824" r="0.250"/><circle cx="14.269" cy="78.727" r="0.250"/><circle cx="13.588" cy="78.445" r="0.250"/><circle cx="13.003" cy="77.997" r="0.250"/><circle cx="12.555" cy="77.412" r="0.250"/><circle cx="12.273" cy="76.731" r="0.250"/><circle cx="12.176" cy="76.000" r="0.250"/><circle cx="12.273" cy="75.269" r="0.250"/><circle cx="12.555" cy="74.588" r="0.250"/><circle cx="13.003" cy="74.003" r="0.250"/><circle cx="13.588" cy="73.555" r="0.250"/><circle cx="14.269" cy="73.273" r="0.250"/><circle cx="15.000" cy="73.176" r="0.250"/><circle cx="15.731" cy="73.273" r="0.250"/><circle cx="16.412" cy="73.555" r="0.250"/><circle cx="16.997" cy="74.003" r="0.250"/><circle cx="17.445" cy="74.588" r="0.250"/><circle cx="17.727" cy="75.269" r="0.250"/><circle cx="18.765" cy="76.000" r="0.250"/><circle cx="18.670" cy="76.838" r="0.250"/><circle cx="18.392" cy="77.633" r="0.250"/><circle cx="17.943" cy="78.347" r="0.250"/><circle cx="17.347" cy="78.943" r="0.250"/><circle cx="16.633" cy="79.392" r="0.250"/><circle cx="15.838" cy="79.670" r="0.250"/><circle cx="15.000" cy="79.765" r="0.250"/><circle cx="14.162" cy="79.670" r="0.250"/><circle cx="13.367" cy="79.392" r="0.250"/><circle cx="12.653" cy="78.943" r="0.250"/><circle cx="12.057" cy="78.347" r="0.250"/><circle cx="11.608" cy="77.633" r="0.250"/><circle cx="11.330" cy="76.838" r="0.250"/><circle cx="11.235" cy="76.000" r="0.250"/><circle cx="11.330" cy="75.162" r="0.250"/><circle cx="11.608" cy="74.367" r="0.250"/><circle cx="12.057" cy="73.653" r="0.250"/><circle cx="12.653" cy="73.057" r="0.250"/><circle cx="13.367" cy="72.608" r="0.250"/><circle cx="14.162" cy="72.330" r="0.250"/><circle cx="15.000" cy="72.235" r="0.250"/><circle cx="15.838" cy="72.330" r="0.250"/><circle cx="16.633" cy="72.608" r="0.250"/><circle cx="17.347" cy="73.057" r="0.250"/><circle cx="17.943" cy="73.653" r="0.250"/><circle cx="18.392" cy="74.367" r="0.250"/><circle cx="18.670" cy="75.162" r="0.250"/><circle cx="19.706" cy="76.000" r="0.250"/><circle cx="19.615" cy="76.918" r="0.250"/><circle cx="19.348" cy="77.801" r="0.250"/><circle cx="18.913" cy="78.614" r="0.250"/><circle cx="18.328" cy="79.328" r="0.250"/><circle cx="17.614" cy="79.913" r="0.250"/><circle cx="16.801" cy="80.348" r="0.250"/><circle cx="15.918" cy="80.615" r="0.250"/><circle cx="15.000" cy="80.706" r="0.250"/><circle cx="14.082" cy="80.615" r="0.250"/><circle cx="13.199" cy="80.348" r="0.250"/><circle cx="12.386" cy="79.913" r="0.250"/><circle cx="11.672" cy="79.328" r="0.250"/><circle cx="11.087" cy="78.614" r="0.250"/><circle cx="10.652" cy="77.801" r="0.250"/><circle cx="10.385" cy="76.918" r="0.250"/><circle cx="10.294" cy="76.000" r="0.250"/><circle cx="10.385" cy="75.082" r="0.250"/><circle cx="10.652" cy="74.199" r="0.250"/><circle cx="11.087" cy="73.386" r="0.250"/><circle cx="11.672" cy="72.672" r="0.250"/><circle cx="12.386" cy="72.087" r="0.250"/><circle cx="13.199" cy="71.652" r="0.250"/><circle cx="14.082" cy="71.385" r="0.250"/><circle cx="15.000" cy="71.294" r="0.250"/><circle cx="15.918" cy="71.385" r="0.250"/><circle cx="16.801" cy="71.652" r="0.250"/><circle cx="17.614" cy="72.087" r="0.250"/><circle cx="18.328" cy="72.672" r="0.250"/><circle cx="18.913" cy="73.386" r="0.250"/><circle cx="19.348" cy="74.199" r="0.250"/><circle cx="19.615" cy="75.082" r="0.250"/><circle cx="20.647" cy="76.000" r="0.250"/><circle cx="20.561" cy="76.981" r="0.250"/><circle cx="20.306" cy="77.931" r="0.250"/><circle cx="19.890" cy="78.824" r="0.250"/><circle cx="19.326" cy="79.630" r="0.250"/><circle cx="18.630" cy="80.326" r="0.250"/><circle cx="17.824" cy="80.890" r="0.250"/><circle cx="16.931" cy="81.306" r="0.250"/><circle cx="15.981" cy="81.561" r="0.250"/><circle cx="15.000" cy="81.647" r="0.250"/><circle cx="14.019" cy="81.561" r="0.250"/><circle cx="13.069" cy="81.306" r="0.250"/><circle cx="12.176" cy="80.890" r="0.250"/><circle cx="11.370" cy="80.326" r="0.250"/><circle cx="10.674" cy="79.630" r="0.250"/><circle cx="10.110" cy="78.824" r="0.250"/><circle cx="9.694" cy="77.931" r="0.250"/><circle cx="9.439" cy="76.981" r="0.250"/><circle cx="9.353" cy="76.000" r="0.250"/><circle cx="9.439" cy="75.019" r="0.250"/><circle cx="9.694" cy="74.069" r="0.250"/><circle cx="10.110" cy="73.176" r="0.250"/><circle cx="10.674" cy="72.370" r="0.250"/><circle cx="11.370" cy="71.674" r="0.250"/><circle cx="12.176" cy="71.110" r="0.250"/><circle cx="13.069" cy="70.694" r="0.250"/><circle cx="14.019" cy="70.439" r="0.250"/><circle cx="15.000" cy="70.353" r="0.250"/><circle cx="15.981" cy="70.439" r="0.250"/><circle cx="16.931" cy="70.694" r="0.250"/><circle cx="17.824" cy="71.110" r="0.250"/><circle cx="18.630" cy="71.674" r="0.250"/><circle cx="19.326" cy="72.370" r="0.250"/><circle cx="19.890" cy="73.176" r="0.250"/><circle cx="20.306" cy="74.069" r="0.250"/><circle cx="20.561" cy="75.019" r="0.250"/><circle cx="21.588" cy="76.000" r="0.250"/><circle cx="21.507" cy="77.031" r="0.250"/><circle cx="21.266" cy="78.036" r="0.250"/><circle cx="20.870" cy="78.991" r="0.250"/><circle cx="20.330" cy="79.872" r="0.250"/><circle cx="19.659" cy="80.659" r="0.250"/><circle cx="18.872" cy="81.330" r="0.250"/><circle cx="17.991" cy="81.870" r="0.250"/><circle cx="17.036" cy="82.266" r="0.250"/><circle cx="16.031" cy="82.507" r="0.250"/><circle cx="15.000" cy="82.588" r="0.250"/><circle cx="13.969" cy="82.507" r="0.250"/><circle cx="12.964" cy="82.266" r="0.250"/><circle cx="12.009" cy="81.870" r="0.250"/><circle cx="11.128" cy="81.330" r="0.250"/><circle cx="10.341" cy="80.659" r="0.250"/><circle cx="9.670" cy="79.872" r="0.250"/><circle cx="9.130" cy="78.991" r="0.250"/><circle cx="8.734" cy="78.036" r="0.250"/><circle cx="8.493" cy="77.031" r="0.250"/><circle cx="8.412" cy="76.000" r="0.250"/><circle cx="8.493" cy="74.969" r="0.250"/><circle cx="8.734" cy="73.964" r="0.250"/><circle cx="9.130" cy="73.009" r="0.250"/><circle cx="9.670" cy="72.128" r="0.250"/><circle cx="10.341" cy="71.341" r="0.250"/><circle cx="11.128" cy="70.670" r="0.250"/><circle cx="12.009" cy="70.130" r="0.250"/><circle cx="12.964" cy="69.734" r="0.250"/><circle cx="13.969" cy="69.493" r="0.250"/><circle cx="15.000" cy="69.412" r="0.250"/><circle cx="16.031" cy="69.493" r="0.250"/><circle cx="17.036" cy="69.734" r="0.250"/><circle cx="17.991" cy="70.130" r="0.250"/><circle cx="18.872" cy="70.670" r="0.250"/><circle cx="19.659" cy="71.341" r="0.250"/><circle cx="20.330" cy="72.128" r="0.250"/><circle cx="20.870" cy="73.009" r="0.250"/><circle cx="21.266" cy="73.964" r="0.250"/><circle cx="21.507" cy="74.969" r="0.250"/><circle cx="22.529" cy="76.000" r="0.250"/><circle cx="22.453" cy="77.072" r="0.250"/><circle cx="22.224" cy="78.121" r="0.250"/><circle cx="21.849" cy="79.128" r="0.250"/><circle cx="21.334" cy="80.071" r="0.250"/><circle cx="20.690" cy="80.931" r="0.250"/><circle cx="19.931" cy="81.690" r="0.250"/><circle cx="19.071" cy="82.334" r="0.250"/><circle cx="18.128" cy="82.849" r="0.250"/><circle cx="17.121" cy="83.224" r="0.250"/><circle cx="16.072" cy="83.453" r="0.250"/><circle cx="15.000" cy="83.529" r="0.250"/><circle cx="13.928" cy="83.453" r="0.250"/><circle cx="12.879" cy="83.224" r="0.250"/><circle cx="11.872" cy="82.849" r="0.250"/><circle cx="10.929" cy="82.334" r="0.250"/><circle cx="10.069" cy="81.690" r="0.250"/><circle cx="9.310" cy="80.931" r="0.250"/><circle cx="8.666" cy="80.071" r="0.250"/><circle cx="8.151" cy="79.128" r="0.250"/><circle cx="7.776" cy="78.121" r="0.250"/><circle cx="7.547" cy="77.072" r="0.250"/><circle cx="7.471" cy="76.000" r="0.250"/><circle cx="7.547" cy="74.928" r="0.250"/><circle cx="7.776" cy="73.879" r="0.250"/><circle cx="8.151" cy="72.872" r="0.250"/><circle cx="8.666" cy="71.929" r="0.250"/><circle cx="9.310" cy="71.069" r="0.250"/><circle cx="10.069" cy="70.310" r="0.250"/><circle cx="10.929" cy="69.666" r="0.250"/><circle cx="11.872" cy="69.151" r="0.250"/><circle cx="12.879" cy="68.776" r="0.250"/><circle cx="13.928" cy="68.547" r="0.250"/><circle cx="15.000" cy="68.471" r="0.250"/><circle cx="16.072" cy="68.547" r="0.250"/><circle cx="17.121" cy="68.776" r="0.250"/><circle cx="18.128" cy="69.151" r="0.250"/><circle cx="19.071" cy="69.666" r="0.250"/><circle cx="19.931" cy="70.310" r="0.250"/><circle cx="20.690" cy="71.069" r="0.250"/><circle cx="21.334" cy="71.929" r="0.250"/><circle cx="21.849" cy="72.872" r="0.250"/><circle cx="22.224" cy="73.879" r="0.250"/><circle cx="22.453" cy="74.928" r="0.250"/><path d="M3.15,48.78Q9.15,52.78 2.15,55.78 M11.42,48.58Q16.42,56.58 13.42,55.58 M18.68,48.68Q24.68,56.68 18.68,55.68 M26.55,48.38Q32.55,57.38 26.55,55.38 M33.82,48.78Q39.82,56.78 32.82,55.78 M41.58,48.78Q46.58,57.78 40.58,55.78 M3.65,52.62Q5.65,57.62 5.65,59.62 M10.82,52.32Q13.82,57.32 9.82,59.32 M18.98,52.52Q24.98,57.52 20.98,59.52 M26.25,52.62Q30.25,61.62 27.25,59.62 M33.92,52.22Q35.92,57.22 35.92,59.22 M41.78,52.22Q44.78,58.22 40.78,59.22 M3.25,56.15Q8.25,63.15 2.25,63.15 M11.22,56.45Q17.22,64.45 12.22,63.45 M18.98,56.35Q24.98,62.35 17.98,63.35 M26.55,56.35Q32.55,64.35 26.55,63.35 M34.12,56.45Q37.12,60.45 34.12,63.45 M41.58,56.15Q44.58,62.15 40.58,63.15 M3.55,60.28Q6.55,64.28 5.55,67.28 M11.22,60.08Q14.22,65.08 12.22,67.08 M18.98,60.28Q21.98,64.28 19.98,67.28 M26.25,60.28Q29.25,67.28 25.25,67.28 M33.82,59.98Q38.82,66.98 35.82,66.98 M41.88,60.18Q43.88,69.18 41.88,67.18 M3.55,63.82Q9.55,68.82 2.55,70.82 M11.22,64.02Q16.22,73.02 11.22,71.02 M18.98,63.72Q20.98,72.72 19.98,70.72 M26.75,63.72Q32.75,67.72 25.75,70.72 M34.32,63.82Q39.32,70.82 35.32,70.82 M41.98,63.72Q45.98,69.72 42.98,70.72 M3.35,67.95Q5.35,71.95 2.35,74.95 M11.42,67.65Q15.42,71.65 11.42,74.65 M18.78,67.65Q24.78,73.65 18.78,74.65 M26.45,67.55Q31.45,71.55 28.45,74.55 M34.12,67.75Q39.12,71.75 34.12,74.75 M41.98,67.55Q44.98,72.55 42.98,74.55 M3.45,71.58Q7.45,77.58 2.45,78.58 M11.42,71.58Q15.42,78.58 13.42,78.58 M18.58,71.78Q22.58,78.78 20.58,78.78 M26.45,71.68Q30.45,78.68 26.45,78.68 M34.42,71.78Q37.42,80.78 36.42,78.78 M41.58,71.78Q44.58,80.78 40.58,78.78 M3.35,75.32Q7.35,84.32 5.35,82.32 M11.02,75.42Q16.02,83.42 10.02,82.42 M18.58,75.62Q23.58,84.62 17.58,82.62 M26.45,75.22Q28.45,83.22 25.45,82.22 M34.02,75.22Q39.02,83.22 36.02,82.22 M41.98,75.52Q45.98,83.52 40.98,82.52 M3.75,79.25Q7.75,85.25 2.75,86.25 M11.22,79.45Q15.22,87.45 11.22,86.45 M18.58,79.35Q20.58,83.35 19.58,86.35 M26.25,79.25Q31.25,86.25 26.25,86.25 M34.42,79.15Q38.42,83.15 34.42,86.15 M42.08,79.25Q46.08,88.25 42.08,86.25 M3.75,83.18Q6.75,92.18 4.75,90.18 M10.92,82.88Q15.92,87.88 9.92,89.88 M18.68,83.28Q24.68,88.28 19.68,90.28 M26.25,83.18Q30.25,90.18 27.25,90.18 M33.82,82.98Q35.82,89.98 35.82,89.98 M41.48,82.88Q47.48,88.88 42.48,89.88 M3.55,86.72Q5.55,93.72 2.55,93.72 M11.32,86.82Q14.32,90.82 11.32,93.82 M18.58,86.82Q21.58,94.82 18.58,93.82 M26.45,86.82Q32.45,90.82 28.45,93.82 M34.22,86.82Q40.22,94.82 35.22,93.82 M41.68,87.02Q47.68,93.02 42.68,94.02 M3.45,90.65Q8.45,98.20 4.45,97.65 M11.32,90.55Q15.32,98.20 13.32,97.55 M18.88,90.75Q24.88,94.75 18.88,97.75 M26.15,90.75Q32.15,97.75 27.15,97.75 M34.42,90.55Q40.42,95.55 36.42,97.55 M41.88,90.65Q45.88,95.65 42.88,97.65"/><path d="M40.77,78.85Q44.00,80.00 40.77,81.15 M40.77,81.15Q42.24,84.24 39.15,82.77 M39.15,82.77Q38.00,86.00 36.85,82.77 M36.85,82.77Q33.76,84.24 35.23,81.15 M35.23,81.15Q32.00,80.00 35.23,78.85 M35.23,78.85Q33.76,75.76 36.85,77.23 M36.85,77.23Q38.00,74.00 39.15,77.23 M39.15,77.23Q42.24,75.76 40.77,78.85"/><path d="M10.13,11.43Q12.50,12.00 10.13,12.57 M10.13,12.57Q11.90,14.25 9.56,13.56 M9.56,13.56Q10.25,15.90 8.57,14.13 M8.57,14.13Q8.00,16.50 7.43,14.13 M7.43,14.13Q5.75,15.90 6.44,13.56 M6.44,13.56Q4.10,14.25 5.87,12.57 M5.87,12.57Q3.50,12.00 5.87,11.43 M5.87,11.43Q4.10,9.75 6.44,10.44 M6.44,10.44Q5.75,8.10 7.43,9.87 M7.43,9.87Q8.00,7.50 8.57,9.87 M8.57,9.87Q10.25,8.10 9.56,10.44 M9.56,10.44Q11.90,9.75 10.13,11.43"/><circle cx="9.200" cy="12.000" r="0.500"/><path d="M27.13,11.43Q29.50,12.00 27.13,12.57 M27.13,12.57Q28.90,14.25 26.56,13.56 M26.56,13.56Q27.25,15.90 25.57,14.13 M25.57,14.13Q25.00,16.50 24.43,14.13 M24.43,14.13Q22.75,15.90 23.44,13.56 M23.44,13.56Q21.10,14.25 22.87,12.57 M22.87,12.57Q20.50,12.00 22.87,11.43 M22.87,11.43Q21.10,9.75 23.44,10.44 M23.44,10.44Q22.75,8.10 24.43,9.87 M24.43,9.87Q25.00,7.50 25.57,9.87 M25.57,9.87Q27.25,8.10 26.56,10.44 M26.56,10.44Q28.90,9.75 27.13,11.43"/><circle cx="26.200" cy="12.000" r="0.500"/><path d="M44.13,11.43Q46.50,12.00 44.13,12.57 M44.13,12.57Q45.90,14.25 43.56,13.56 M43.56,13.56Q44.25,15.90 42.57,14.13 M42.57,14.13Q42.00,16.50 41.43,14.13 M41.43,14.13Q39.75,15.90 40.44,13.56 M40.44,13.56Q38.10,14.25 39.87,12.57 M39.87,12.57Q37.50,12.00 39.87,11.43 M39.87,11.43Q38.10,9.75 40.44,10.44 M40.44,10.44Q39.75,8.10 41.43,9.87 M41.43,9.87Q42.00,7.50 42.57,9.87 M42.57,9.87Q44.25,8.10 43.56,10.44 M43.56,10.44Q45.90,9.75 44.13,11.43"/><circle cx="43.200" cy="12.000" r="0.500"/><path d="M10.13,33.43Q12.50,34.00 10.13,34.57 M10.13,34.57Q11.90,36.25 9.56,35.56 M9.56,35.56Q10.25,37.90 8.57,36.13 M8.57,36.13Q8.00,38.50 7.43,36.13 M7.43,36.13Q5.75,37.90 6.44,35.56 M6.44,35.56Q4.10,36.25 5.87,34.57 M5.87,34.57Q3.50,34.00 5.87,33.43 M5.87,33.43Q4.10,31.75 6.44,32.44 M6.44,32.44Q5.75,30.10 7.43,31.87 M7.43,31.87Q8.00,29.50 8.57,31.87 M8.57,31.87Q10.25,30.10 9.56,32.44 M9.56,32.44Q11.90,31.75 10.13,33.43"/><circle cx="9.200" cy="34.000" r="0.500"/><path d="M27.13,33.43Q29.50,34.00 27.13,34.57 M27.13,34.57Q28.90,36.25 26.56,35.56 M26.56,35.56Q27.25,37.90 25.57,36.13 M25.57,36.13Q25.00,38.50 24.43,36.13 M24.43,36.13Q22.75,37.90 23.44,35.56 M23.44,35.56Q21.10,36.25 22.87,34.57 M22.87,34.57Q20.50,34.00 22.87,33.43 M22.87,33.43Q21.10,31.75 23.44,32.44 M23.44,32.44Q22.75,30.10 24.43,31.87 M24.43,31.87Q25.00,29.50 25.57,31.87 M25.57,31.87Q27.25,30.10 26.56,32.44 M26.56,32.44Q28.90,31.75 27.13,33.43"/><circle cx="26.200" cy="34.000" r="0.500"/></g><g clip-path="url(#clip-bm-1)"><path d="M81.41,21.42Q82.12,22.00 81.41,22.58 M81.41,22.58Q81.50,23.50 80.58,23.41 M80.58,23.41Q80.00,24.12 79.42,23.41 M79.42,23.41Q78.50,23.50 78.59,22.58 M78.59,22.58Q77.88,22.00 78.59,21.42 M78.59,21.42Q78.50,20.50 79.42,20.59 M79.42,20.59Q80.00,19.88 80.58,20.59 M80.58,20.59Q81.50,20.50 81.41,21.42"/><path d="M82.90,21.06Q84.24,22.00 82.90,22.94 M82.90,22.94Q83.43,24.49 81.79,24.47 M81.79,24.47Q81.31,26.03 80.00,25.05 M80.00,25.05Q78.69,26.03 78.21,24.47 M78.21,24.47Q76.57,24.49 77.10,22.94 M77.10,22.94Q75.76,22.00 77.10,21.06 M77.10,21.06Q76.57,19.51 78.21,19.53 M78.21,19.53Q78.69,17.97 80.00,18.95 M80.00,18.95Q81.31,17.97 81.79,19.53 M81.79,19.53Q83.43,19.51 82.90,21.06"/><path d="M84.42,20.82Q86.35,22.00 84.42,23.18 M84.42,23.18Q85.50,25.18 83.23,25.23 M83.23,25.23Q83.18,27.50 81.18,26.42 M81.18,26.42Q80.00,28.35 78.82,26.42 M78.82,26.42Q76.82,27.50 76.77,25.23 M76.77,25.23Q74.50,25.18 75.58,23.18 M75.58,23.18Q73.65,22.00 75.58,20.82 M75.58,20.82Q74.50,18.82 76.77,18.77 M76.77,18.77Q76.82,16.50 78.82,17.58 M78.82,17.58Q80.00,15.65 81.18,17.58 M81.18,17.58Q83.18,16.50 83.23,18.77 M83.23,18.77Q85.50,18.82 84.42,20.82"/><path d="M85.95,20.64Q88.47,22.00 85.95,23.36 M85.95,23.36Q87.63,25.68 84.77,25.80 M84.77,25.80Q85.28,28.62 82.65,27.49 M82.65,27.49Q81.88,30.26 80.00,28.10 M80.00,28.10Q78.12,30.26 77.35,27.49 M77.35,27.49Q74.72,28.62 75.23,25.80 M75.23,25.80Q72.37,25.68 74.05,23.36 M74.05,23.36Q71.53,22.00 74.05,20.64 M74.05,20.64Q72.37,18.32 75.23,18.20 M75.23,18.20Q74.72,15.38 77.35,16.51 M77.35,16.51Q78.12,13.74 80.00,15.90 M80.00,15.90Q81.88,13.74 82.65,16.51 M82.65,16.51Q85.28,15.38 84.77,18.20 M84.77,18.20Q87.63,18.32 85.95,20.64"/><path d="M87.48,20.51Q90.59,22.00 87.48,23.49 M87.48,23.49Q89.78,26.05 86.34,26.24 M86.34,26.24Q87.49,29.49 84.24,28.34 M84.24,28.34Q84.05,31.78 81.49,29.48 M81.49,29.48Q80.00,32.59 78.51,29.48 M78.51,29.48Q75.95,31.78 75.76,28.34 M75.76,28.34Q72.51,29.49 73.66,26.24 M73.66,26.24Q70.22,26.05 72.52,23.49 M72.52,23.49Q69.41,22.00 72.52,20.51 M72.52,20.51Q70.22,17.95 73.66,17.76 M73.66,17.76Q72.51,14.51 75.76,15.66 M75.76,15.66Q75.95,12.22 78.51,14.52 M78.51,14.52Q80.00,11.41 81.49,14.52 M81.49,14.52Q84.05,12.22 84.24,15.66 M84.24,15.66Q87.49,14.51 86.34,17.76 M86.34,17.76Q89.78,17.95 87.48,20.51"/><path d="M89.01,20.41Q92.71,22.00 89.01,23.59 M89.01,23.59Q91.94,26.35 87.92,26.57 M87.92,26.57Q89.73,30.17 85.88,29.01 M85.88,29.01Q86.35,33.00 83.13,30.60 M83.13,30.60Q82.21,34.51 80.00,31.15 M80.00,31.15Q77.79,34.51 76.87,30.60 M76.87,30.60Q73.65,33.00 74.12,29.01 M74.12,29.01Q70.27,30.17 72.08,26.57 M72.08,26.57Q68.06,26.35 70.99,23.59 M70.99,23.59Q67.29,22.00 70.99,20.41 M70.99,20.41Q68.06,17.65 72.08,17.43 M72.08,17.43Q70.27,13.83 74.12,14.99 M74.12,14.99Q73.65,11.00 76.87,13.40 M76.87,13.40Q77.79,9.49 80.00,12.85 M80.00,12.85Q82.21,9.49 83.13,13.40 M83.13,13.40Q86.35,11.00 85.88,14.99 M85.88,14.99Q89.73,13.83 87.92,17.43 M87.92,17.43Q91.94,17.65 89.01,20.41"/><path d="M90.54,20.33Q94.82,22.00 90.54,23.67 M90.54,23.67Q94.10,26.58 89.51,26.85 M89.51,26.85Q91.99,30.71 87.55,29.55 M87.55,29.55Q88.71,33.99 84.85,31.51 M84.85,31.51Q84.58,36.10 81.67,32.54 M81.67,32.54Q80.00,36.82 78.33,32.54 M78.33,32.54Q75.42,36.10 75.15,31.51 M75.15,31.51Q71.29,33.99 72.45,29.55 M72.45,29.55Q68.01,30.71 70.49,26.85 M70.49,26.85Q65.90,26.58 69.46,23.67 M69.46,23.67Q65.18,22.00 69.46,20.33 M69.46,20.33Q65.90,17.42 70.49,17.15 M70.49,17.15Q68.01,13.29 72.45,14.45 M72.45,14.45Q71.29,10.01 75.15,12.49 M75.15,12.49Q75.42,7.90 78.33,11.46 M78.33,11.46Q80.00,7.18 81.67,11.46 M81.67,11.46Q84.58,7.90 84.85,12.49 M84.85,12.49Q88.71,10.01 87.55,14.45 M87.55,14.45Q91.99,13.29 89.51,17.15 M89.51,17.15Q94.10,17.42 90.54,20.33"/><path d="M92.07,20.26Q96.94,22.00 92.07,23.74 M92.07,23.74Q96.25,26.77 91.10,27.07 M91.10,27.07Q94.25,31.16 89.22,29.99 M89.22,29.99Q91.09,34.80 86.59,32.26 M86.59,32.26Q87.04,37.41 83.44,33.70 M83.44,33.70Q82.41,38.77 80.00,34.20 M80.00,34.20Q77.59,38.77 76.56,33.70 M76.56,33.70Q72.96,37.41 73.41,32.26 M73.41,32.26Q68.91,34.80 70.78,29.99 M70.78,29.99Q65.75,31.16 68.90,27.07 M68.90,27.07Q63.75,26.77 67.93,23.74 M67.93,23.74Q63.06,22.00 67.93,20.26 M67.93,20.26Q63.75,17.23 68.90,16.93 M68.90,16.93Q65.75,12.84 70.78,14.01 M70.78,14.01Q68.91,9.20 73.41,11.74 M73.41,11.74Q72.96,6.59 76.56,10.30 M76.56,10.30Q77.59,5.23 80.00,9.80 M80.00,9.80Q82.41,5.23 83.44,10.30 M83.44,10.30Q87.04,6.59 86.59,11.74 M86.59,11.74Q91.09,9.20 89.22,14.01 M89.22,14.01Q94.25,12.84 91.10,16.93 M91.10,16.93Q96.25,17.23 92.07,20.26"/><circle cx="96.000" cy="22.000" r="0.300"/><circle cx="95.455" cy="26.141" r="0.300"/><circle cx="93.856" cy="30.000" r="0.300"/><circle cx="91.314" cy="33.314" r="0.300"/><circle cx="88.000" cy="35.856" r="0.300"/><circle cx="84.141" cy="37.455" r="0.300"/><circle cx="80.000" cy="38.000" r="0.300"/><circle cx="75.859" cy="37.455" r="0.300"/><circle cx="72.000" cy="35.856" r="0.300"/><circle cx="68.686" cy="33.314" r="0.300"/><circle cx="66.144" cy="30.000" r="0.300"/><circle cx="64.545" cy="26.141" r="0.300"/><circle cx="64.000" cy="22.000" r="0.300"/><circle cx="64.545" cy="17.859" r="0.300"/><circle cx="66.144" cy="14.000" r="0.300"/><circle cx="68.686" cy="10.686" r="0.300"/><circle cx="72.000" cy="8.144" r="0.300"/><circle cx="75.859" cy="6.545" r="0.300"/><circle cx="80.000" cy="6.000" r="0.300"/><circle cx="84.141" cy="6.545" r="0.300"/><circle cx="88.000" cy="8.144" r="0.300"/><circle cx="91.314" cy="10.686" r="0.300"/><circle cx="93.856" cy="14.000" r="0.300"/><circle cx="95.455" cy="17.859" r="0.300"/><path d="M84.87,50.89Q89.00,52.00 84.87,53.11 M84.87,53.11Q88.11,55.90 83.91,55.12 M83.91,55.12Q85.61,59.04 82.17,56.50 M82.17,56.50Q82.00,60.77 80.00,57.00 M80.00,57.00Q78.00,60.77 77.83,56.50 M77.83,56.50Q74.39,59.04 76.09,55.12 M76.09,55.12Q71.89,55.90 75.13,53.11 M75.13,53.11Q71.00,52.00 75.13,50.89 M75.13,50.89Q71.89,48.10 76.09,48.88 M76.09,48.88Q74.39,44.96 77.83,47.50 M77.83,47.50Q78.00,43.23 80.00,47.00 M80.00,47.00Q82.00,43.23 82.17,47.50 M82.17,47.50Q85.61,44.96 83.91,48.88 M83.91,48.88Q88.11,48.10 84.87,50.89"/><path d="M59.20,58.50Q61.20,65.50 60.20,65.50 M66.83,58.60Q70.83,65.60 66.83,65.60 M74.27,58.30Q76.27,66.30 73.27,65.30 M81.60,58.70Q84.60,62.70 81.60,65.70 M88.63,58.30Q90.63,63.30 87.63,65.30 M96.17,58.60Q100.17,64.60 95.17,65.60 M59.50,61.50Q64.50,66.50 61.50,68.50 M66.83,61.60Q70.83,66.60 68.83,68.60 M74.37,61.40Q76.37,69.40 74.37,68.40 M81.50,61.40Q84.50,69.40 81.50,68.40 M88.83,61.40Q93.83,70.40 90.83,68.40 M95.97,61.70Q98.97,68.70 95.97,68.70 M59.10,64.40Q64.10,68.40 61.10,71.40 M66.73,64.50Q70.73,73.50 67.73,71.50 M74.37,64.60Q78.37,70.60 76.37,71.60 M81.30,64.60Q86.30,68.60 82.30,71.60 M88.83,64.40Q93.83,69.40 90.83,71.40 M96.07,64.60Q102.07,69.60 97.07,71.60 M59.60,67.60Q62.60,75.60 59.60,74.60 M66.63,67.50Q71.63,71.50 66.63,74.50 M74.27,67.70Q76.27,72.70 73.27,74.70 M81.10,67.30Q87.10,75.30 81.10,74.30 M88.53,67.60Q92.53,74.60 89.53,74.60 M96.07,67.60Q101.07,74.60 98.07,74.60 M59.40,70.30Q64.40,74.30 61.40,77.30 M67.03,70.60Q70.03,74.60 69.03,77.60 M74.27,70.60Q79.27,77.60 75.27,77.60 M81.50,70.60Q87.50,79.60 82.50,77.60 M88.73,70.30Q90.73,78.30 87.73,77.30 M96.17,70.30Q102.17,77.30 96.17,77.30 M59.10,73.50Q61.10,77.50 58.10,80.50 M66.83,73.60Q70.83,79.60 65.83,80.60 M74.37,73.70Q79.37,78.70 76.37,80.70 M81.40,73.50Q83.40,80.50 81.40,80.50 M89.03,73.60Q92.03,81.60 89.03,80.60 M96.17,73.30Q100.17,81.30 98.17,80.30 M59.10,76.60Q62.10,81.60 60.10,83.60 M66.83,76.40Q69.83,84.40 66.83,83.40 M73.97,76.60Q79.97,83.60 73.97,83.60 M81.30,76.40Q86.30,81.40 82.30,83.40 M88.43,76.40Q92.43,84.40 88.43,83.40 M96.07,76.30Q99.07,80.30 98.07,83.30 M59.20,79.40Q63.20,84.40 61.20,86.40 M66.53,79.60Q72.53,84.60 67.53,86.60 M74.07,79.70Q77.07,85.70 73.07,86.70 M81.70,79.30Q87.70,84.30 82.70,86.30 M88.73,79.40Q94.73,87.40 88.73,86.40 M95.87,79.40Q98.87,87.40 95.87,86.40 M59.40,82.30Q65.40,89.30 59.40,89.30 M66.43,82.50Q72.43,87.50 68.43,89.50 M73.77,82.70Q77.77,86.70 72.77,89.70 M81.70,82.30Q83.70,86.30 81.70,89.30 M88.73,82.70Q92.73,91.70 87.73,89.70 M96.17,82.30Q101.17,90.30 95.17,89.30 M59.40,85.30Q62.40,94.30 61.40,92.30 M66.43,85.30Q71.43,94.30 65.43,92.30 M73.87,85.40Q77.87,91.40 73.87,92.40 M81.40,85.70Q86.40,93.70 83.40,92.70 M88.63,85.30Q92.63,90.30 87.63,92.30 M95.87,85.60Q97.87,90.60 95.87,92.60 M59.30,88.70Q61.30,92.70 60.30,95.70 M67.03,88.40Q69.03,93.40 68.03,95.40 M73.97,88.70Q78.97,94.70 72.97,95.70 M81.50,88.60Q84.50,94.60 80.50,95.60 M88.73,88.30Q90.73,97.30 90.73,95.30 M96.27,88.60Q100.27,95.60 95.27,95.60 M59.40,91.40Q61.40,97.40 60.40,98.40 M66.53,91.30Q72.53,97.30 66.53,98.30 M73.77,91.70Q78.77,98.20 72.77,98.70 M81.10,91.30Q83.10,95.30 82.10,98.30 M88.93,91.40Q91.93,96.40 87.93,98.40 M95.77,91.60Q101.77,98.20 95.77,98.60"/><circle cx="81.059" cy="84.000" r="0.370"/><circle cx="80.749" cy="84.749" r="0.370"/><circle cx="80.000" cy="85.059" r="0.370"/><circle cx="79.251" cy="84.749" r="0.370"/><circle cx="78.941" cy="84.000" r="0.370"/><circle cx="79.251" cy="83.251" r="0.370"/><circle cx="80.000" cy="82.941" r="0.370"/><circle cx="80.749" cy="83.251" r="0.370"/><circle cx="82.118" cy="84.000" r="0.390"/><circle cx="81.713" cy="85.245" r="0.390"/><circle cx="80.654" cy="86.014" r="0.390"/><circle cx="79.346" cy="86.014" r="0.390"/><circle cx="78.287" cy="85.245" r="0.390"/><circle cx="77.882" cy="84.000" r="0.390"/><circle cx="78.287" cy="82.755" r="0.390"/><circle cx="79.346" cy="81.986" r="0.390"/><circle cx="80.654" cy="81.986" r="0.390"/><circle cx="81.713" cy="82.755" r="0.390"/><circle cx="83.176" cy="84.000" r="0.410"/><circle cx="82.751" cy="85.588" r="0.410"/><circle cx="81.588" cy="86.751" r="0.410"/><circle cx="80.000" cy="87.176" r="0.410"/><circle cx="78.412" cy="86.751" r="0.410"/><circle cx="77.249" cy="85.588" r="0.410"/><circle cx="76.824" cy="84.000" r="0.410"/><circle cx="77.249" cy="82.412" r="0.410"/><circle cx="78.412" cy="81.249" r="0.410"/><circle cx="80.000" cy="80.824" r="0.410"/><circle cx="81.588" cy="81.249" r="0.410"/><circle cx="82.751" cy="82.412" r="0.410"/><circle cx="84.235" cy="84.000" r="0.430"/><circle cx="83.816" cy="85.838" r="0.430"/><circle cx="82.641" cy="87.311" r="0.430"/><circle cx="80.942" cy="88.129" r="0.430"/><circle cx="79.058" cy="88.129" r="0.430"/><circle cx="77.359" cy="87.311" r="0.430"/><circle cx="76.184" cy="85.838" r="0.430"/><circle cx="75.765" cy="84.000" r="0.430"/><circle cx="76.184" cy="82.162" r="0.430"/><circle cx="77.359" cy="80.689" r="0.430"/><circle cx="79.058" cy="79.871" r="0.430"/><circle cx="80.942" cy="79.871" r="0.430"/><circle cx="82.641" cy="80.689" r="0.430"/><circle cx="83.816" cy="82.162" r="0.430"/><circle cx="85.294" cy="84.000" r="0.450"/><circle cx="84.891" cy="86.026" r="0.450"/><circle cx="83.744" cy="87.744" r="0.450"/><circle cx="82.026" cy="88.891" r="0.450"/><circle cx="80.000" cy="89.294" r="0.450"/><circle cx="77.974" cy="88.891" r="0.450"/><circle cx="76.256" cy="87.744" r="0.450"/><circle cx="75.109" cy="86.026" r="0.450"/><circle cx="74.706" cy="84.000" r="0.450"/><circle cx="75.109" cy="81.974" r="0.450"/><circle cx="76.256" cy="80.256" r="0.450"/><circle cx="77.974" cy="79.109" r="0.450"/><circle cx="80.000" cy="78.706" r="0.450"/><circle cx="82.026" cy="79.109" r="0.450"/><circle cx="83.744" cy="80.256" r="0.450"/><circle cx="84.891" cy="81.974" r="0.450"/><circle cx="86.353" cy="84.000" r="0.470"/><circle cx="85.970" cy="86.173" r="0.470"/><circle cx="84.867" cy="88.084" r="0.470"/><circle cx="83.176" cy="89.502" r="0.470"/><circle cx="81.103" cy="90.256" r="0.470"/><circle cx="78.897" cy="90.256" r="0.470"/><circle cx="76.824" cy="89.502" r="0.470"/><circle cx="75.133" cy="88.084" r="0.470"/><circle cx="74.030" cy="86.173" r="0.470"/><circle cx="73.647" cy="84.000" r="0.470"/><circle cx="74.030" cy="81.827" r="0.470"/><circle cx="75.133" cy="79.916" r="0.470"/><circle cx="76.824" cy="78.498" r="0.470"/><circle cx="78.897" cy="77.744" r="0.470"/><circle cx="81.103" cy="77.744" r="0.470"/><circle cx="83.176" cy="78.498" r="0.470"/><circle cx="84.867" cy="79.916" r="0.470"/><circle cx="85.970" cy="81.827" r="0.470"/><circle cx="87.412" cy="84.000" r="0.490"/><circle cx="87.049" cy="86.290" r="0.490"/><circle cx="85.996" cy="88.357" r="0.490"/><circle cx="84.357" cy="89.996" r="0.490"/><circle cx="82.290" cy="91.049" r="0.490"/><circle cx="80.000" cy="91.412" r="0.490"/><circle cx="77.710" cy="91.049" r="0.490"/><circle cx="75.643" cy="89.996" r="0.490"/><circle cx="74.004" cy="88.357" r="0.490"/><circle cx="72.951" cy="86.290" r="0.490"/><circle cx="72.588" cy="84.000" r="0.490"/><circle cx="72.951" cy="81.710" r="0.490"/><circle cx="74.004" cy="79.643" r="0.490"/><circle cx="75.643" cy="78.004" r="0.490"/><circle cx="77.710" cy="76.951" r="0.490"/><circle cx="80.000" cy="76.588" r="0.490"/><circle cx="82.290" cy="76.951" r="0.490"/><circle cx="84.357" cy="78.004" r="0.490"/><circle cx="85.996" cy="79.643" r="0.490"/><circle cx="87.049" cy="81.710" r="0.490"/><circle cx="88.471" cy="84.000" r="0.510"/><circle cx="88.127" cy="86.386" r="0.510"/><circle cx="87.126" cy="88.580" r="0.510"/><circle cx="85.547" cy="90.402" r="0.510"/><circle cx="83.519" cy="91.705" r="0.510"/><circle cx="81.205" cy="92.384" r="0.510"/><circle cx="78.795" cy="92.384" r="0.510"/><circle cx="76.481" cy="91.705" r="0.510"/><circle cx="74.453" cy="90.402" r="0.510"/><circle cx="72.874" cy="88.580" r="0.510"/><circle cx="71.873" cy="86.386" r="0.510"/><circle cx="71.529" cy="84.000" r="0.510"/><circle cx="71.873" cy="81.614" r="0.510"/><circle cx="72.874" cy="79.420" r="0.510"/><circle cx="74.453" cy="77.598" r="0.510"/><circle cx="76.481" cy="76.295" r="0.510"/><circle cx="78.795" cy="75.616" r="0.510"/><circle cx="81.205" cy="75.616" r="0.510"/><circle cx="83.519" cy="76.295" r="0.510"/><circle cx="85.547" cy="77.598" r="0.510"/><circle cx="87.126" cy="79.420" r="0.510"/><circle cx="88.127" cy="81.614" r="0.510"/><path d="M80.00,52.00L82.40,52.00M80.00,52.00L91.77,54.34 M80.00,52.00L82.22,52.92M80.00,52.00L89.98,58.67 M80.00,52.00L81.70,53.70M80.00,52.00L86.67,61.98 M80.00,52.00L80.92,54.22M80.00,52.00L82.34,63.77 M80.00,52.00L80.00,54.40M80.00,52.00L77.66,63.77 M80.00,52.00L79.08,54.22M80.00,52.00L73.33,61.98 M80.00,52.00L78.30,53.70M80.00,52.00L70.02,58.67 M80.00,52.00L77.78,52.92M80.00,52.00L68.23,54.34 M80.00,52.00L77.60,52.00M80.00,52.00L68.23,49.66 M80.00,52.00L77.78,51.08M80.00,52.00L70.02,45.33 M80.00,52.00L78.30,50.30M80.00,52.00L73.33,42.02 M80.00,52.00L79.08,49.78M80.00,52.00L77.66,40.23 M80.00,52.00L80.00,49.60M80.00,52.00L82.34,40.23 M80.00,52.00L80.92,49.78M80.00,52.00L86.67,42.02 M80.00,52.00L81.70,50.30M80.00,52.00L89.98,45.33 M80.00,52.00L82.22,51.08M80.00,52.00L91.77,49.66"/></g><g clip-path="url(#clip-bm-2)"><circle cx="137.353" cy="50.000" r="0.370"/><circle cx="136.664" cy="51.664" r="0.370"/><circle cx="135.000" cy="52.353" r="0.370"/><circle cx="133.336" cy="51.664" r="0.370"/><circle cx="132.647" cy="50.000" r="0.370"/><circle cx="133.336" cy="48.336" r="0.370"/><circle cx="135.000" cy="47.647" r="0.370"/><circle cx="136.664" cy="48.336" r="0.370"/><circle cx="139.706" cy="50.000" r="0.390"/><circle cx="138.807" cy="52.766" r="0.390"/><circle cx="136.454" cy="54.476" r="0.390"/><circle cx="133.546" cy="54.476" r="0.390"/><circle cx="131.193" cy="52.766" r="0.390"/><circle cx="130.294" cy="50.000" r="0.390"/><circle cx="131.193" cy="47.234" r="0.390"/><circle cx="133.546" cy="45.524" r="0.390"/><circle cx="136.454" cy="45.524" r="0.390"/><circle cx="138.807" cy="47.234" r="0.390"/><circle cx="142.059" cy="50.000" r="0.410"/><circle cx="141.113" cy="53.529" r="0.410"/><circle cx="138.529" cy="56.113" r="0.410"/><circle cx="135.000" cy="57.059" r="0.410"/><circle cx="131.471" cy="56.113" r="0.410"/><circle cx="128.887" cy="53.529" r="0.410"/><circle cx="127.941" cy="50.000" r="0.410"/><circle cx="128.887" cy="46.471" r="0.410"/><circle cx="131.471" cy="43.887" r="0.410"/><circle cx="135.000" cy="42.941" r="0.410"/><circle cx="138.529" cy="43.887" r="0.410"/><circle cx="141.113" cy="46.471" r="0.410"/><circle cx="144.412" cy="50.000" r="0.430"/><circle cx="143.480" cy="54.084" r="0.430"/><circle cx="140.868" cy="57.358" r="0.430"/><circle cx="137.094" cy="59.176" r="0.430"/><circle cx="132.906" cy="59.176" r="0.430"/><circle cx="129.132" cy="57.358" r="0.430"/><circle cx="126.520" cy="54.084" r="0.430"/><circle cx="125.588" cy="50.000" r="0.430"/><circle cx="126.520" cy="45.916" r="0.430"/><circle cx="129.132" cy="42.642" r="0.430"/><circle cx="132.906" cy="40.824" r="0.430"/><circle cx="137.094" cy="40.824" r="0.430"/><circle cx="140.868" cy="42.642" r="0.430"/><circle cx="143.480" cy="45.916" r="0.430"/><circle cx="146.765" cy="50.000" r="0.450"/><circle cx="145.869" cy="54.502" r="0.450"/><circle cx="143.319" cy="58.319" r="0.450"/><circle cx="139.502" cy="60.869" r="0.450"/><circle cx="135.000" cy="61.765" r="0.450"/><circle cx="130.498" cy="60.869" r="0.450"/><circle cx="126.681" cy="58.319" r="0.450"/><circle cx="124.131" cy="54.502" r="0.450"/><circle cx="123.235" cy="50.000" r="0.450"/><circle cx="124.131" cy="45.498" r="0.450"/><circle cx="126.681" cy="41.681" r="0.450"/><circle cx="130.498" cy="39.131" r="0.450"/><circle cx="135.000" cy="38.235" r="0.450"/><circle cx="139.502" cy="39.131" r="0.450"/><circle cx="143.319" cy="41.681" r="0.450"/><circle cx="145.869" cy="45.498" r="0.450"/><circle cx="149.118" cy="50.000" r="0.470"/><circle cx="148.266" cy="54.829" r="0.470"/><circle cx="145.815" cy="59.075" r="0.470"/><circle cx="142.059" cy="62.226" r="0.470"/><circle cx="137.452" cy="63.903" r="0.470"/><circle cx="132.548" cy="63.903" r="0.470"/><circle cx="127.941" cy="62.226" r="0.470"/><circle cx="124.185" cy="59.075" r="0.470"/><circle cx="121.734" cy="54.829" r="0.470"/><circle cx="120.882" cy="50.000" r="0.470"/><circle cx="121.734" cy="45.171" r="0.470"/><circle cx="124.185" cy="40.925" r="0.470"/><circle cx="127.941" cy="37.774" r="0.470"/><circle cx="132.548" cy="36.097" r="0.470"/><circle cx="137.452" cy="36.097" r="0.470"/><circle cx="142.059" cy="37.774" r="0.470"/><circle cx="145.815" cy="40.925" r="0.470"/><circle cx="148.266" cy="45.171" r="0.470"/><circle cx="151.471" cy="50.000" r="0.490"/><circle cx="150.664" cy="55.090" r="0.490"/><circle cx="148.325" cy="59.681" r="0.490"/><circle cx="144.681" cy="63.325" r="0.490"/><circle cx="140.090" cy="65.664" r="0.490"/><circle cx="135.000" cy="66.471" r="0.490"/><circle cx="129.910" cy="65.664" r="0.490"/><circle cx="125.319" cy="63.325" r="0.490"/><circle cx="121.675" cy="59.681" r="0.490"/><circle cx="119.336" cy="55.090" r="0.490"/><circle cx="118.529" cy="50.000" r="0.490"/><circle cx="119.336" cy="44.910" r="0.490"/><circle cx="121.675" cy="40.319" r="0.490"/><circle cx="125.319" cy="36.675" r="0.490"/><circle cx="129.910" cy="34.336" r="0.490"/><circle cx="135.000" cy="33.529" r="0.490"/><circle cx="140.090" cy="34.336" r="0.490"/><circle cx="144.681" cy="36.675" r="0.490"/><circle cx="148.325" cy="40.319" r="0.490"/><circle cx="150.664" cy="44.910" r="0.490"/><circle cx="153.824" cy="50.000" r="0.510"/><circle cx="153.061" cy="55.303" r="0.510"/><circle cx="150.835" cy="60.177" r="0.510"/><circle cx="147.327" cy="64.226" r="0.510"/><circle cx="142.820" cy="67.122" r="0.510"/><circle cx="137.679" cy="68.632" r="0.510"/><circle cx="132.321" cy="68.632" r="0.510"/><circle cx="127.180" cy="67.122" r="0.510"/><circle cx="122.673" cy="64.226" r="0.510"/><circle cx="119.165" cy="60.177" r="0.510"/><circle cx="116.939" cy="55.303" r="0.510"/><circle cx="116.176" cy="50.000" r="0.510"/><circle cx="116.939" cy="44.697" r="0.510"/><circle cx="119.165" cy="39.823" r="0.510"/><circle cx="122.673" cy="35.774" r="0.510"/><circle cx="127.180" cy="32.878" r="0.510"/><circle cx="132.321" cy="31.368" r="0.510"/><circle cx="137.679" cy="31.368" r="0.510"/><circle cx="142.820" cy="32.878" r="0.510"/><circle cx="147.327" cy="35.774" r="0.510"/><circle cx="150.835" cy="39.823" r="0.510"/><circle cx="153.061" cy="44.697" r="0.510"/><circle cx="153.000" cy="50.000" r="0.280"/><circle cx="152.654" cy="53.512" r="0.280"/><circle cx="151.630" cy="56.888" r="0.280"/><circle cx="149.966" cy="60.000" r="0.280"/><circle cx="147.728" cy="62.728" r="0.280"/><circle cx="145.000" cy="64.966" r="0.280"/><circle cx="141.888" cy="66.630" r="0.280"/><circle cx="138.512" cy="67.654" r="0.280"/><circle cx="135.000" cy="68.000" r="0.280"/><circle cx="131.488" cy="67.654" r="0.280"/><circle cx="128.112" cy="66.630" r="0.280"/><circle cx="125.000" cy="64.966" r="0.280"/><circle cx="122.272" cy="62.728" r="0.280"/><circle cx="120.034" cy="60.000" r="0.280"/><circle cx="118.370" cy="56.888" r="0.280"/><circle cx="117.346" cy="53.512" r="0.280"/><circle cx="117.000" cy="50.000" r="0.280"/><circle cx="117.346" cy="46.488" r="0.280"/><circle cx="118.370" cy="43.112" r="0.280"/><circle cx="120.034" cy="40.000" r="0.280"/><circle cx="122.272" cy="37.272" r="0.280"/><circle cx="125.000" cy="35.034" r="0.280"/><circle cx="128.112" cy="33.370" r="0.280"/><circle cx="131.488" cy="32.346" r="0.280"/><circle cx="135.000" cy="32.000" r="0.280"/><circle cx="138.512" cy="32.346" r="0.280"/><circle cx="141.888" cy="33.370" r="0.280"/><circle cx="145.000" cy="35.034" r="0.280"/><circle cx="147.728" cy="37.272" r="0.280"/><circle cx="149.966" cy="40.000" r="0.280"/><circle cx="151.630" cy="43.112" r="0.280"/><circle cx="152.654" cy="46.488" r="0.280"/><path d="M150.80,47.50Q154.00,50.00 150.80,52.50 M150.80,52.50Q153.07,55.87 149.26,57.26 M149.26,57.26Q150.37,61.17 146.31,61.31 M146.31,61.31Q146.17,65.37 142.26,64.26 M142.26,64.26Q140.87,68.07 137.50,65.80 M137.50,65.80Q135.00,69.00 132.50,65.80 M132.50,65.80Q129.13,68.07 127.74,64.26 M127.74,64.26Q123.83,65.37 123.69,61.31 M123.69,61.31Q119.63,61.17 120.74,57.26 M120.74,57.26Q116.93,55.87 119.20,52.50 M119.20,52.50Q116.00,50.00 119.20,47.50 M119.20,47.50Q116.93,44.13 120.74,42.74 M120.74,42.74Q119.63,38.83 123.69,38.69 M123.69,38.69Q123.83,34.63 127.74,35.74 M127.74,35.74Q129.13,31.93 132.50,34.20 M132.50,34.20Q135.00,31.00 137.50,34.20 M137.50,34.20Q140.87,31.93 142.26,35.74 M142.26,35.74Q146.17,34.63 146.31,38.69 M146.31,38.69Q150.37,38.83 149.26,42.74 M149.26,42.74Q153.07,44.13 150.80,47.50"/><path d="M113.35,2.18Q118.35,10.18 113.35,9.18 M121.22,2.48Q124.22,8.48 120.22,9.48 M129.08,2.58Q134.08,8.58 131.08,9.58 M136.25,2.28Q141.25,6.28 137.25,9.28 M144.22,2.28Q147.22,9.28 144.22,9.28 M151.98,2.18Q154.98,6.18 150.98,9.18 M113.65,4.22Q116.65,9.22 115.65,11.22 M121.12,4.32Q126.12,9.32 121.12,11.32 M128.68,4.12Q133.68,13.12 130.68,11.12 M136.65,4.42Q141.65,13.42 136.65,11.42 M143.82,4.12Q146.82,11.12 145.82,11.12 M151.58,4.32Q156.58,9.32 152.58,11.32 M113.75,6.05Q116.75,14.05 113.75,13.05 M121.22,6.15Q123.22,11.15 122.22,13.15 M128.98,5.95Q132.98,9.95 129.98,12.95 M136.35,5.85Q140.35,11.85 135.35,12.85 M144.12,6.25Q149.12,14.25 144.12,13.25 M151.78,6.05Q157.78,14.05 150.78,13.05 M113.25,7.78Q118.25,11.78 114.25,14.78 M120.82,7.98Q125.82,11.98 119.82,14.98 M128.78,7.78Q134.78,12.78 128.78,14.78 M136.75,7.78Q142.75,15.78 137.75,14.78 M144.02,7.78Q149.02,12.78 145.02,14.78 M151.68,7.98Q154.68,12.98 150.68,14.98 M113.55,9.62Q117.55,18.62 115.55,16.62 M120.92,9.72Q123.92,18.72 119.92,16.72 M128.48,9.52Q131.48,14.52 129.48,16.52 M136.35,9.52Q139.35,14.52 138.35,16.52 M144.42,9.62Q148.42,17.62 144.42,16.62 M151.98,9.72Q156.98,16.72 150.98,16.72 M113.45,11.55Q115.45,15.55 113.45,18.55 M121.02,11.45Q125.02,19.45 123.02,18.45 M128.68,11.55Q132.68,15.55 128.68,18.55 M136.25,11.45Q140.25,15.45 138.25,18.45 M144.02,11.75Q147.02,15.75 144.02,18.75 M151.78,11.35Q156.78,15.35 151.78,18.35 M113.55,13.58Q115.55,22.58 112.55,20.58 M121.02,13.28Q126.02,19.28 123.02,20.28 M128.58,13.18Q131.58,20.18 127.58,20.18 M136.25,13.58Q139.25,20.58 138.25,20.58 M144.12,13.38Q146.12,18.38 145.12,20.38 M151.98,13.38Q154.98,18.38 153.98,20.38 M113.35,15.02Q115.35,24.02 115.35,22.02 M121.32,15.02Q126.32,24.02 120.32,22.02 M128.98,15.42Q134.98,23.42 130.98,22.42 M136.35,15.42Q138.35,22.42 135.35,22.42 M144.22,15.32Q146.22,23.32 145.22,22.32 M151.68,15.22Q153.68,23.22 151.68,22.22 M113.15,17.25Q118.15,23.25 115.15,24.25 M121.12,16.85Q127.12,20.85 121.12,23.85 M128.58,17.25Q134.58,21.25 129.58,24.25 M136.55,17.25Q140.55,23.25 136.55,24.25 M143.82,16.95Q149.82,21.95 144.82,23.95 M151.68,17.15Q155.68,21.15 153.68,24.15 M113.35,18.68Q119.35,23.68 112.35,25.68 M121.42,19.08Q123.42,24.08 121.42,26.08 M128.48,19.08Q130.48,26.08 127.48,26.08 M136.45,18.88Q140.45,23.88 135.45,25.88 M144.22,19.08Q148.22,24.08 143.22,26.08 M151.68,18.88Q154.68,27.88 153.68,25.88 M113.35,20.62Q118.35,28.62 113.35,27.62 M120.82,20.72Q124.82,29.72 122.82,27.72 M128.98,20.52Q130.98,24.52 130.98,27.52 M136.15,20.82Q138.15,26.82 137.15,27.82 M144.02,20.92Q147.02,24.92 143.02,27.92 M151.78,20.52Q156.78,24.52 152.78,27.52 M113.45,22.45Q117.45,26.45 114.45,29.45 M121.22,22.35Q124.22,30.35 123.22,29.35 M128.78,22.45Q132.78,31.45 130.78,29.45 M136.65,22.75Q139.65,30.75 136.65,29.75 M144.22,22.55Q146.22,31.55 143.22,29.55 M151.78,22.35Q154.78,31.35 151.78,29.35"/><path d="M113.45,74.48Q119.45,79.48 112.45,81.48 M121.22,74.38Q126.22,82.38 122.22,81.38 M128.48,74.48Q134.48,79.48 130.48,81.48 M136.35,74.18Q138.35,78.18 137.35,81.18 M143.92,74.18Q145.92,80.18 144.92,81.18 M152.08,74.28Q154.08,81.28 152.08,81.28 M113.55,76.42Q119.55,81.42 115.55,83.42 M121.02,76.32Q124.02,80.32 123.02,83.32 M128.78,76.32Q134.78,82.32 128.78,83.32 M136.25,76.12Q138.25,81.12 135.25,83.12 M144.12,76.12Q150.12,80.12 146.12,83.12 M151.98,76.42Q156.98,81.42 153.98,83.42 M113.65,78.05Q119.65,85.05 112.65,85.05 M121.12,77.85Q126.12,83.85 123.12,84.85 M129.08,77.95Q133.08,85.95 129.08,84.95 M136.15,78.25Q139.15,87.25 136.15,85.25 M144.22,77.95Q146.22,86.95 143.22,84.95 M151.78,77.95Q155.78,85.95 152.78,84.95 M113.55,80.08Q115.55,85.08 112.55,87.08 M121.32,79.98Q126.32,83.98 123.32,86.98 M128.58,79.88Q133.58,85.88 130.58,86.88 M136.65,79.88Q140.65,88.88 138.65,86.88 M144.12,80.08Q150.12,89.08 144.12,87.08 M151.58,79.88Q157.58,83.88 152.58,86.88 M113.65,81.82Q116.65,89.82 115.65,88.82 M120.92,81.82Q123.92,90.82 121.92,88.82 M128.68,81.72Q134.68,89.72 129.68,88.72 M136.15,81.82Q141.15,88.82 136.15,88.82 M144.22,81.52Q150.22,90.52 145.22,88.52 M151.88,81.62Q155.88,87.62 153.88,88.62 M113.25,83.35Q115.25,87.35 113.25,90.35 M120.82,83.75Q124.82,88.75 121.82,90.75 M128.98,83.35Q131.98,92.35 130.98,90.35 M136.75,83.45Q142.75,91.45 135.75,90.45 M144.32,83.35Q150.32,90.35 143.32,90.35 M151.68,83.35Q157.68,89.35 152.68,90.35 M113.25,85.18Q119.25,93.18 114.25,92.18 M121.32,85.38Q123.32,94.38 121.32,92.38 M128.48,85.28Q133.48,92.28 129.48,92.28 M136.15,85.38Q140.15,91.38 135.15,92.38 M144.22,85.58Q147.22,89.58 146.22,92.58 M151.48,85.58Q154.48,92.58 152.48,92.58 M113.25,87.02Q118.25,93.02 112.25,94.02 M121.22,87.02Q127.22,92.02 122.22,94.02 M128.68,87.32Q132.68,92.32 130.68,94.32 M136.65,87.42Q139.65,95.42 137.65,94.42 M144.32,87.42Q147.32,95.42 146.32,94.42 M151.98,87.02Q157.98,96.02 151.98,94.02 M113.55,89.05Q115.55,96.05 113.55,96.05 M121.42,89.15Q124.42,97.15 122.42,96.15 M128.48,88.85Q133.48,95.85 127.48,95.85 M136.15,89.25Q142.15,97.25 135.15,96.25 M144.22,89.25Q147.22,97.25 144.22,96.25 M151.48,88.95Q154.48,93.95 152.48,95.95 M113.75,90.88Q117.75,97.88 114.75,97.88 M120.82,90.88Q124.82,98.20 120.82,97.88 M129.08,90.88Q134.08,98.20 131.08,97.88 M136.45,90.78Q141.45,97.78 136.45,97.78 M143.92,90.78Q149.92,98.20 142.92,97.78 M151.78,90.78Q155.78,97.78 152.78,97.78 M113.35,92.82Q118.35,97.82 112.35,99.20 M120.92,92.72Q126.92,98.20 119.92,99.20 M129.08,92.82Q133.08,98.20 129.08,99.20 M136.45,92.82Q140.45,98.20 135.45,99.20 M143.92,92.82Q147.92,97.82 144.92,99.20 M152.08,92.52Q158.08,98.20 154.08,99.20 M113.45,94.20Q117.45,98.20 114.45,99.20 M121.02,94.20Q124.02,98.20 122.02,99.20 M129.08,94.20Q132.08,98.20 131.08,99.20 M136.45,94.20Q140.45,98.20 136.45,99.20 M144.12,94.20Q148.12,98.20 144.12,99.20 M152.08,94.20Q157.08,98.20 152.08,99.20"/><path d="M158.73,49.00Q161.00,50.00 158.73,51.00 M158.73,51.00Q159.00,53.46 157.00,52.00 M157.00,52.00Q155.00,53.46 155.27,51.00 M155.27,51.00Q153.00,50.00 155.27,49.00 M155.27,49.00Q155.00,46.54 157.00,48.00 M157.00,48.00Q159.00,46.54 158.73,49.00"/><path d="M152.29,64.56Q154.56,65.56 152.29,66.56 M152.29,66.56Q152.56,69.02 150.56,67.56 M150.56,67.56Q148.56,69.02 148.82,66.56 M148.82,66.56Q146.56,65.56 148.82,64.56 M148.82,64.56Q148.56,62.09 150.56,63.56 M150.56,63.56Q152.56,62.09 152.29,64.56"/><path d="M136.73,71.00Q139.00,72.00 136.73,73.00 M136.73,73.00Q137.00,75.46 135.00,74.00 M135.00,74.00Q133.00,75.46 133.27,73.00 M133.27,73.00Q131.00,72.00 133.27,71.00 M133.27,71.00Q133.00,68.54 135.00,70.00 M135.00,70.00Q137.00,68.54 136.73,71.00"/><path d="M121.18,64.56Q123.44,65.56 121.18,66.56 M121.18,66.56Q121.44,69.02 119.44,67.56 M119.44,67.56Q117.44,69.02 117.71,66.56 M117.71,66.56Q115.44,65.56 117.71,64.56 M117.71,64.56Q117.44,62.09 119.44,63.56 M119.44,63.56Q121.44,62.09 121.18,64.56"/><path d="M114.73,49.00Q117.00,50.00 114.73,51.00 M114.73,51.00Q115.00,53.46 113.00,52.00 M113.00,52.00Q111.00,53.46 111.27,51.00 M111.27,51.00Q109.00,50.00 111.27,49.00 M111.27,49.00Q111.00,46.54 113.00,48.00 M113.00,48.00Q115.00,46.54 114.73,49.00"/><path d="M121.18,33.44Q123.44,34.44 121.18,35.44 M121.18,35.44Q121.44,37.91 119.44,36.44 M119.44,36.44Q117.44,37.91 117.71,35.44 M117.71,35.44Q115.44,34.44 117.71,33.44 M117.71,33.44Q117.44,30.98 119.44,32.44 M119.44,32.44Q121.44,30.98 121.18,33.44"/><path d="M136.73,27.00Q139.00,28.00 136.73,29.00 M136.73,29.00Q137.00,31.46 135.00,30.00 M135.00,30.00Q133.00,31.46 133.27,29.00 M133.27,29.00Q131.00,28.00 133.27,27.00 M133.27,27.00Q133.00,24.54 135.00,26.00 M135.00,26.00Q137.00,24.54 136.73,27.00"/><path d="M152.29,33.44Q154.56,34.44 152.29,35.44 M152.29,35.44Q152.56,37.91 150.56,36.44 M150.56,36.44Q148.56,37.91 148.82,35.44 M148.82,35.44Q146.56,34.44 148.82,33.44 M148.82,33.44Q148.56,30.98 150.56,32.44 M150.56,32.44Q152.56,30.98 152.29,33.44"/></g><g clip-path="url(#clip-bm-3)"><path d="M190.00,50.00L194.40,50.00M190.00,50.00L211.81,52.87 M190.00,50.00L194.25,51.14M190.00,50.00L210.33,58.42 M190.00,50.00L193.81,52.20M190.00,50.00L207.45,63.39 M190.00,50.00L193.11,53.11M190.00,50.00L203.39,67.45 M190.00,50.00L192.20,53.81M190.00,50.00L198.42,70.33 M190.00,50.00L191.14,54.25M190.00,50.00L192.87,71.81 M190.00,50.00L190.00,54.40M190.00,50.00L187.13,71.81 M190.00,50.00L188.86,54.25M190.00,50.00L181.58,70.33 M190.00,50.00L187.80,53.81M190.00,50.00L176.61,67.45 M190.00,50.00L186.89,53.11M190.00,50.00L172.55,63.39 M190.00,50.00L186.19,52.20M190.00,50.00L169.67,58.42 M190.00,50.00L185.75,51.14M190.00,50.00L168.19,52.87 M190.00,50.00L185.60,50.00M190.00,50.00L168.19,47.13 M190.00,50.00L185.75,48.86M190.00,50.00L169.67,41.58 M190.00,50.00L186.19,47.80M190.00,50.00L172.55,36.61 M190.00,50.00L186.89,46.89M190.00,50.00L176.61,32.55 M190.00,50.00L187.80,46.19M190.00,50.00L181.58,29.67 M190.00,50.00L188.86,45.75M190.00,50.00L187.13,28.19 M190.00,50.00L190.00,45.60M190.00,50.00L192.87,28.19 M190.00,50.00L191.14,45.75M190.00,50.00L198.42,29.67 M190.00,50.00L192.20,46.19M190.00,50.00L203.39,32.55 M190.00,50.00L193.11,46.89M190.00,50.00L207.45,36.61 M190.00,50.00L193.81,47.80M190.00,50.00L210.33,41.58 M190.00,50.00L194.25,48.86M190.00,50.00L211.81,47.13"/><circle cx="190.941" cy="50.000" r="0.250"/><circle cx="190.870" cy="50.360" r="0.250"/><circle cx="190.666" cy="50.666" r="0.250"/><circle cx="190.360" cy="50.870" r="0.250"/><circle cx="190.000" cy="50.941" r="0.250"/><circle cx="189.640" cy="50.870" r="0.250"/><circle cx="189.334" cy="50.666" r="0.250"/><circle cx="189.130" cy="50.360" r="0.250"/><circle cx="189.059" cy="50.000" r="0.250"/><circle cx="189.130" cy="49.640" r="0.250"/><circle cx="189.334" cy="49.334" r="0.250"/><circle cx="189.640" cy="49.130" r="0.250"/><circle cx="190.000" cy="49.059" r="0.250"/><circle cx="190.360" cy="49.130" r="0.250"/><circle cx="190.666" cy="49.334" r="0.250"/><circle cx="190.870" cy="49.640" r="0.250"/><circle cx="191.882" cy="50.000" r="0.250"/><circle cx="191.790" cy="50.582" r="0.250"/><circle cx="191.523" cy="51.106" r="0.250"/><circle cx="191.106" cy="51.523" r="0.250"/><circle cx="190.582" cy="51.790" r="0.250"/><circle cx="190.000" cy="51.882" r="0.250"/><circle cx="189.418" cy="51.790" r="0.250"/><circle cx="188.894" cy="51.523" r="0.250"/><circle cx="188.477" cy="51.106" r="0.250"/><circle cx="188.210" cy="50.582" r="0.250"/><circle cx="188.118" cy="50.000" r="0.250"/><circle cx="188.210" cy="49.418" r="0.250"/><circle cx="188.477" cy="48.894" r="0.250"/><circle cx="188.894" cy="48.477" r="0.250"/><circle cx="189.418" cy="48.210" r="0.250"/><circle cx="190.000" cy="48.118" r="0.250"/><circle cx="190.582" cy="48.210" r="0.250"/><circle cx="191.106" cy="48.477" r="0.250"/><circle cx="191.523" cy="48.894" r="0.250"/><circle cx="191.790" cy="49.418" r="0.250"/><circle cx="192.824" cy="50.000" r="0.250"/><circle cx="192.727" cy="50.731" r="0.250"/><circle cx="192.445" cy="51.412" r="0.250"/><circle cx="191.997" cy="51.997" r="0.250"/><circle cx="191.412" cy="52.445" r="0.250"/><circle cx="190.731" cy="52.727" r="0.250"/><circle cx="190.000" cy="52.824" r="0.250"/><circle cx="189.269" cy="52.727" r="0.250"/><circle cx="188.588" cy="52.445" r="0.250"/><circle cx="188.003" cy="51.997" r="0.250"/><circle cx="187.555" cy="51.412" r="0.250"/><circle cx="187.273" cy="50.731" r="0.250"/><circle cx="187.176" cy="50.000" r="0.250"/><circle cx="187.273" cy="49.269" r="0.250"/><circle cx="187.555" cy="48.588" r="0.250"/><circle cx="188.003" cy="48.003" r="0.250"/><circle cx="188.588" cy="47.555" r="0.250"/><circle cx="189.269" cy="47.273" r="0.250"/><circle cx="190.000" cy="47.176" r="0.250"/><circle cx="190.731" cy="47.273" r="0.250"/><circle cx="191.412" cy="47.555" r="0.250"/><circle cx="191.997" cy="48.003" r="0.250"/><circle cx="192.445" cy="48.588" r="0.250"/><circle cx="192.727" cy="49.269" r="0.250"/><circle cx="193.765" cy="50.000" r="0.250"/><circle cx="193.670" cy="50.838" r="0.250"/><circle cx="193.392" cy="51.633" r="0.250"/><circle cx="192.943" cy="52.347" r="0.250"/><circle cx="192.347" cy="52.943" r="0.250"/><circle cx="191.633" cy="53.392" r="0.250"/><circle cx="190.838" cy="53.670" r="0.250"/><circle cx="190.000" cy="53.765" r="0.250"/><circle cx="189.162" cy="53.670" r="0.250"/><circle cx="188.367" cy="53.392" r="0.250"/><circle cx="187.653" cy="52.943" r="0.250"/><circle cx="187.057" cy="52.347" r="0.250"/><circle cx="186.608" cy="51.633" r="0.250"/><circle cx="186.330" cy="50.838" r="0.250"/><circle cx="186.235" cy="50.000" r="0.250"/><circle cx="186.330" cy="49.162" r="0.250"/><circle cx="186.608" cy="48.367" r="0.250"/><circle cx="187.057" cy="47.653" r="0.250"/><circle cx="187.653" cy="47.057" r="0.250"/><circle cx="188.367" cy="46.608" r="0.250"/><circle cx="189.162" cy="46.330" r="0.250"/><circle cx="190.000" cy="46.235" r="0.250"/><circle cx="190.838" cy="46.330" r="0.250"/><circle cx="191.633" cy="46.608" r="0.250"/><circle cx="192.347" cy="47.057" r="0.250"/><circle cx="192.943" cy="47.653" r="0.250"/><circle cx="193.392" cy="48.367" r="0.250"/><circle cx="193.670" cy="49.162" r="0.250"/><circle cx="194.706" cy="50.000" r="0.250"/><circle cx="194.615" cy="50.918" r="0.250"/><circle cx="194.348" cy="51.801" r="0.250"/><circle cx="193.913" cy="52.614" r="0.250"/><circle cx="193.328" cy="53.328" r="0.250"/><circle cx="192.614" cy="53.913" r="0.250"/><circle cx="191.801" cy="54.348" r="0.250"/><circle cx="190.918" cy="54.615" r="0.250"/><circle cx="190.000" cy="54.706" r="0.250"/><circle cx="189.082" cy="54.615" r="0.250"/><circle cx="188.199" cy="54.348" r="0.250"/><circle cx="187.386" cy="53.913" r="0.250"/><circle cx="186.672" cy="53.328" r="0.250"/><circle cx="186.087" cy="52.614" r="0.250"/><circle cx="185.652" cy="51.801" r="0.250"/><circle cx="185.385" cy="50.918" r="0.250"/><circle cx="185.294" cy="50.000" r="0.250"/><circle cx="185.385" cy="49.082" r="0.250"/><circle cx="185.652" cy="48.199" r="0.250"/><circle cx="186.087" cy="47.386" r="0.250"/><circle cx="186.672" cy="46.672" r="0.250"/><circle cx="187.386" cy="46.087" r="0.250"/><circle cx="188.199" cy="45.652" r="0.250"/><circle cx="189.082" cy="45.385" r="0.250"/><circle cx="190.000" cy="45.294" r="0.250"/><circle cx="190.918" cy="45.385" r="0.250"/><circle cx="191.801" cy="45.652" r="0.250"/><circle cx="192.614" cy="46.087" r="0.250"/><circle cx="193.328" cy="46.672" r="0.250"/><circle cx="193.913" cy="47.386" r="0.250"/><circle cx="194.348" cy="48.199" r="0.250"/><circle cx="194.615" cy="49.082" r="0.250"/><circle cx="195.647" cy="50.000" r="0.250"/><circle cx="195.561" cy="50.981" r="0.250"/><circle cx="195.306" cy="51.931" r="0.250"/><circle cx="194.890" cy="52.824" r="0.250"/><circle cx="194.326" cy="53.630" r="0.250"/><circle cx="193.630" cy="54.326" r="0.250"/><circle cx="192.824" cy="54.890" r="0.250"/><circle cx="191.931" cy="55.306" r="0.250"/><circle cx="190.981" cy="55.561" r="0.250"/><circle cx="190.000" cy="55.647" r="0.250"/><circle cx="189.019" cy="55.561" r="0.250"/><circle cx="188.069" cy="55.306" r="0.250"/><circle cx="187.176" cy="54.890" r="0.250"/><circle cx="186.370" cy="54.326" r="0.250"/><circle cx="185.674" cy="53.630" r="0.250"/><circle cx="185.110" cy="52.824" r="0.250"/><circle cx="184.694" cy="51.931" r="0.250"/><circle cx="184.439" cy="50.981" r="0.250"/><circle cx="184.353" cy="50.000" r="0.250"/><circle cx="184.439" cy="49.019" r="0.250"/><circle cx="184.694" cy="48.069" r="0.250"/><circle cx="185.110" cy="47.176" r="0.250"/><circle cx="185.674" cy="46.370" r="0.250"/><circle cx="186.370" cy="45.674" r="0.250"/><circle cx="187.176" cy="45.110" r="0.250"/><circle cx="188.069" cy="44.694" r="0.250"/><circle cx="189.019" cy="44.439" r="0.250"/><circle cx="190.000" cy="44.353" r="0.250"/><circle cx="190.981" cy="44.439" r="0.250"/><circle cx="191.931" cy="44.694" r="0.250"/><circle cx="192.824" cy="45.110" r="0.250"/><circle cx="193.630" cy="45.674" r="0.250"/><circle cx="194.326" cy="46.370" r="0.250"/><circle cx="194.890" cy="47.176" r="0.250"/><circle cx="195.306" cy="48.069" r="0.250"/><circle cx="195.561" cy="49.019" r="0.250"/><circle cx="196.588" cy="50.000" r="0.250"/><circle cx="196.507" cy="51.031" r="0.250"/><circle cx="196.266" cy="52.036" r="0.250"/><circle cx="195.870" cy="52.991" r="0.250"/><circle cx="195.330" cy="53.872" r="0.250"/><circle cx="194.659" cy="54.659" r="0.250"/><circle cx="193.872" cy="55.330" r="0.250"/><circle cx="192.991" cy="55.870" r="0.250"/><circle cx="192.036" cy="56.266" r="0.250"/><circle cx="191.031" cy="56.507" r="0.250"/><circle cx="190.000" cy="56.588" r="0.250"/><circle cx="188.969" cy="56.507" r="0.250"/><circle cx="187.964" cy="56.266" r="0.250"/><circle cx="187.009" cy="55.870" r="0.250"/><circle cx="186.128" cy="55.330" r="0.250"/><circle cx="185.341" cy="54.659" r="0.250"/><circle cx="184.670" cy="53.872" r="0.250"/><circle cx="184.130" cy="52.991" r="0.250"/><circle cx="183.734" cy="52.036" r="0.250"/><circle cx="183.493" cy="51.031" r="0.250"/><circle cx="183.412" cy="50.000" r="0.250"/><circle cx="183.493" cy="48.969" r="0.250"/><circle cx="183.734" cy="47.964" r="0.250"/><circle cx="184.130" cy="47.009" r="0.250"/><circle cx="184.670" cy="46.128" r="0.250"/><circle cx="185.341" cy="45.341" r="0.250"/><circle cx="186.128" cy="44.670" r="0.250"/><circle cx="187.009" cy="44.130" r="0.250"/><circle cx="187.964" cy="43.734" r="0.250"/><circle cx="188.969" cy="43.493" r="0.250"/><circle cx="190.000" cy="43.412" r="0.250"/><circle cx="191.031" cy="43.493" r="0.250"/><circle cx="192.036" cy="43.734" r="0.250"/><circle cx="192.991" cy="44.130" r="0.250"/><circle cx="193.872" cy="44.670" r="0.250"/><circle cx="194.659" cy="45.341" r="0.250"/><circle cx="195.330" cy="46.128" r="0.250"/><circle cx="195.870" cy="47.009" r="0.250"/><circle cx="196.266" cy="47.964" r="0.250"/><circle cx="196.507" cy="48.969" r="0.250"/><circle cx="197.529" cy="50.000" r="0.250"/><circle cx="197.453" cy="51.072" r="0.250"/><circle cx="197.224" cy="52.121" r="0.250"/><circle cx="196.849" cy="53.128" r="0.250"/><circle cx="196.334" cy="54.071" r="0.250"/><circle cx="195.690" cy="54.931" r="0.250"/><circle cx="194.931" cy="55.690" r="0.250"/><circle cx="194.071" cy="56.334" r="0.250"/><circle cx="193.128" cy="56.849" r="0.250"/><circle cx="192.121" cy="57.224" r="0.250"/><circle cx="191.072" cy="57.453" r="0.250"/><circle cx="190.000" cy="57.529" r="0.250"/><circle cx="188.928" cy="57.453" r="0.250"/><circle cx="187.879" cy="57.224" r="0.250"/><circle cx="186.872" cy="56.849" r="0.250"/><circle cx="185.929" cy="56.334" r="0.250"/><circle cx="185.069" cy="55.690" r="0.250"/><circle cx="184.310" cy="54.931" r="0.250"/><circle cx="183.666" cy="54.071" r="0.250"/><circle cx="183.151" cy="53.128" r="0.250"/><circle cx="182.776" cy="52.121" r="0.250"/><circle cx="182.547" cy="51.072" r="0.250"/><circle cx="182.471" cy="50.000" r="0.250"/><circle cx="182.547" cy="48.928" r="0.250"/><circle cx="182.776" cy="47.879" r="0.250"/><circle cx="183.151" cy="46.872" r="0.250"/><circle cx="183.666" cy="45.929" r="0.250"/><circle cx="184.310" cy="45.069" r="0.250"/><circle cx="185.069" cy="44.310" r="0.250"/><circle cx="185.929" cy="43.666" r="0.250"/><circle cx="186.872" cy="43.151" r="0.250"/><circle cx="187.879" cy="42.776" r="0.250"/><circle cx="188.928" cy="42.547" r="0.250"/><circle cx="190.000" cy="42.471" r="0.250"/><circle cx="191.072" cy="42.547" r="0.250"/><circle cx="192.121" cy="42.776" r="0.250"/><circle cx="193.128" cy="43.151" r="0.250"/><circle cx="194.071" cy="43.666" r="0.250"/><circle cx="194.931" cy="44.310" r="0.250"/><circle cx="195.690" cy="45.069" r="0.250"/><circle cx="196.334" cy="45.929" r="0.250"/><circle cx="196.849" cy="46.872" r="0.250"/><circle cx="197.224" cy="47.879" r="0.250"/><circle cx="197.453" cy="48.928" r="0.250"/><path d="M196.87,20.63Q202.00,22.00 196.87,23.37 M196.87,23.37Q201.09,26.59 195.82,25.89 M195.82,25.89Q198.49,30.49 193.89,27.82 M193.89,27.82Q194.59,33.09 191.37,28.87 M191.37,28.87Q190.00,34.00 188.63,28.87 M188.63,28.87Q185.41,33.09 186.11,27.82 M186.11,27.82Q181.51,30.49 184.18,25.89 M184.18,25.89Q178.91,26.59 183.13,23.37 M183.13,23.37Q178.00,22.00 183.13,20.63 M183.13,20.63Q178.91,17.41 184.18,18.11 M184.18,18.11Q181.51,13.51 186.11,16.18 M186.11,16.18Q185.41,10.91 188.63,15.13 M188.63,15.13Q190.00,10.00 191.37,15.13 M191.37,15.13Q194.59,10.91 193.89,16.18 M193.89,16.18Q198.49,13.51 195.82,18.11 M195.82,18.11Q201.09,17.41 196.87,20.63"/><path d="M196.82,76.44Q202.00,78.00 196.82,79.56 M196.82,79.56Q200.81,83.21 195.47,82.36 M195.47,82.36Q197.48,87.38 193.04,84.31 M193.04,84.31Q192.67,89.70 190.00,85.00 M190.00,85.00Q187.33,89.70 186.96,84.31 M186.96,84.31Q182.52,87.38 184.53,82.36 M184.53,82.36Q179.19,83.21 183.18,79.56 M183.18,79.56Q178.00,78.00 183.18,76.44 M183.18,76.44Q179.19,72.79 184.53,73.64 M184.53,73.64Q182.52,68.62 186.96,71.69 M186.96,71.69Q187.33,66.30 190.00,71.00 M190.00,71.00Q192.67,66.30 193.04,71.69 M193.04,71.69Q197.48,68.62 195.47,73.64 M195.47,73.64Q200.81,72.79 196.82,76.44"/><path d="M177.38,7.23Q180.00,8.00 177.38,8.77 M177.38,8.77Q179.05,10.94 176.47,10.02 M176.47,10.02Q176.55,12.76 175.00,10.50 M175.00,10.50Q173.45,12.76 173.53,10.02 M173.53,10.02Q170.95,10.94 172.62,8.77 M172.62,8.77Q170.00,8.00 172.62,7.23 M172.62,7.23Q170.95,5.06 173.53,5.98 M173.53,5.98Q173.45,3.24 175.00,5.50 M175.00,5.50Q176.55,3.24 176.47,5.98 M176.47,5.98Q179.05,5.06 177.38,7.23"/><path d="M192.38,7.23Q195.00,8.00 192.38,8.77 M192.38,8.77Q194.05,10.94 191.47,10.02 M191.47,10.02Q191.55,12.76 190.00,10.50 M190.00,10.50Q188.45,12.76 188.53,10.02 M188.53,10.02Q185.95,10.94 187.62,8.77 M187.62,8.77Q185.00,8.00 187.62,7.23 M187.62,7.23Q185.95,5.06 188.53,5.98 M188.53,5.98Q188.45,3.24 190.00,5.50 M190.00,5.50Q191.55,3.24 191.47,5.98 M191.47,5.98Q194.05,5.06 192.38,7.23"/><path d="M207.38,7.23Q210.00,8.00 207.38,8.77 M207.38,8.77Q209.05,10.94 206.47,10.02 M206.47,10.02Q206.55,12.76 205.00,10.50 M205.00,10.50Q203.45,12.76 203.53,10.02 M203.53,10.02Q200.95,10.94 202.62,8.77 M202.62,8.77Q200.00,8.00 202.62,7.23 M202.62,7.23Q200.95,5.06 203.53,5.98 M203.53,5.98Q203.45,3.24 205.00,5.50 M205.00,5.50Q206.55,3.24 206.47,5.98 M206.47,5.98Q209.05,5.06 207.38,7.23"/><path d="M177.38,22.23Q180.00,23.00 177.38,23.77 M177.38,23.77Q179.05,25.94 176.47,25.02 M176.47,25.02Q176.55,27.76 175.00,25.50 M175.00,25.50Q173.45,27.76 173.53,25.02 M173.53,25.02Q170.95,25.94 172.62,23.77 M172.62,23.77Q170.00,23.00 172.62,22.23 M172.62,22.23Q170.95,20.06 173.53,20.98 M173.53,20.98Q173.45,18.24 175.00,20.50 M175.00,20.50Q176.55,18.24 176.47,20.98 M176.47,20.98Q179.05,20.06 177.38,22.23"/><path d="M192.38,22.23Q195.00,23.00 192.38,23.77 M192.38,23.77Q194.05,25.94 191.47,25.02 M191.47,25.02Q191.55,27.76 190.00,25.50 M190.00,25.50Q188.45,27.76 188.53,25.02 M188.53,25.02Q185.95,25.94 187.62,23.77 M187.62,23.77Q185.00,23.00 187.62,22.23 M187.62,22.23Q185.95,20.06 188.53,20.98 M188.53,20.98Q188.45,18.24 190.00,20.50 M190.00,20.50Q191.55,18.24 191.47,20.98 M191.47,20.98Q194.05,20.06 192.38,22.23"/><path d="M207.38,22.23Q210.00,23.00 207.38,23.77 M207.38,23.77Q209.05,25.94 206.47,25.02 M206.47,25.02Q206.55,27.76 205.00,25.50 M205.00,25.50Q203.45,27.76 203.53,25.02 M203.53,25.02Q200.95,25.94 202.62,23.77 M202.62,23.77Q200.00,23.00 202.62,22.23 M202.62,22.23Q200.95,20.06 203.53,20.98 M203.53,20.98Q203.45,18.24 205.00,20.50 M205.00,20.50Q206.55,18.24 206.47,20.98 M206.47,20.98Q209.05,20.06 207.38,22.23"/><path d="M170.45,32.40Q174.45,37.40 171.45,39.40 M177.25,32.60Q181.25,39.60 176.25,39.60 M184.15,32.50Q186.15,37.50 185.15,39.50 M191.55,32.50Q195.55,37.50 193.55,39.50 M198.35,32.50Q201.35,41.50 200.35,39.50 M205.25,32.40Q211.25,36.40 205.25,39.40 M170.55,35.70Q174.55,40.70 172.55,42.70 M177.65,35.30Q181.65,39.30 177.65,42.30 M184.65,35.60Q186.65,43.60 186.65,42.60 M191.25,35.30Q197.25,39.30 190.25,42.30 M198.65,35.40Q202.65,43.40 200.65,42.40 M205.45,35.70Q210.45,41.70 204.45,42.70 M170.45,38.50Q176.45,42.50 172.45,45.50 M177.45,38.40Q180.45,45.40 179.45,45.40 M184.55,38.70Q188.55,44.70 183.55,45.70 M191.05,38.50Q196.05,45.50 193.05,45.50 M198.55,38.50Q202.55,47.50 199.55,45.50 M205.35,38.30Q209.35,43.30 204.35,45.30 M170.05,41.40Q174.05,48.40 170.05,48.40 M177.35,41.70Q179.35,50.70 178.35,48.70 M184.15,41.50Q188.15,48.50 183.15,48.50 M191.65,41.40Q195.65,49.40 190.65,48.40 M198.45,41.50Q203.45,50.50 197.45,48.50 M205.05,41.50Q209.05,49.50 204.05,48.50 M170.45,44.50Q175.45,52.50 172.45,51.50 M177.35,44.50Q180.35,52.50 179.35,51.50 M184.45,44.70Q188.45,50.70 185.45,51.70 M191.55,44.40Q196.55,50.40 193.55,51.40 M198.25,44.70Q201.25,48.70 200.25,51.70 M205.35,44.40Q208.35,49.40 206.35,51.40 M170.45,47.30Q172.45,51.30 170.45,54.30 M177.55,47.50Q181.55,54.50 176.55,54.50 M184.35,47.40Q186.35,54.40 184.35,54.40 M191.45,47.30Q197.45,54.30 192.45,54.30 M198.15,47.50Q202.15,52.50 197.15,54.50 M205.15,47.30Q207.15,56.30 207.15,54.30 M170.55,50.40Q175.55,57.40 169.55,57.40 M177.35,50.50Q183.35,54.50 179.35,57.50 M184.15,50.30Q188.15,55.30 183.15,57.30 M191.65,50.30Q196.65,54.30 191.65,57.30 M198.55,50.40Q202.55,58.40 198.55,57.40 M205.25,50.30Q208.25,58.30 205.25,57.30 M170.05,53.30Q173.05,57.30 169.05,60.30 M177.35,53.30Q182.35,57.30 176.35,60.30 M184.45,53.60Q186.45,61.60 186.45,60.60 M191.15,53.70Q193.15,58.70 190.15,60.70 M198.15,53.70Q204.15,59.70 198.15,60.70 M205.15,53.60Q208.15,58.60 205.15,60.60 M170.15,56.40Q174.15,63.40 171.15,63.40 M177.25,56.40Q180.25,63.40 176.25,63.40 M184.15,56.30Q186.15,63.30 184.15,63.30 M191.55,56.50Q197.55,63.50 190.55,63.50 M198.65,56.70Q203.65,61.70 197.65,63.70 M205.55,56.70Q209.55,60.70 205.55,63.70 M170.55,59.40Q172.55,68.40 172.55,66.40 M177.65,59.50Q183.65,63.50 178.65,66.50 M184.55,59.30Q189.55,65.30 185.55,66.30 M191.55,59.50Q195.55,63.50 193.55,66.50 M198.35,59.30Q204.35,67.30 198.35,66.30 M205.45,59.30Q210.45,65.30 204.45,66.30 M170.05,62.40Q173.05,66.40 171.05,69.40 M177.45,62.30Q182.45,69.30 177.45,69.30 M184.05,62.40Q190.05,68.40 183.05,69.40 M191.45,62.30Q197.45,67.30 191.45,69.30 M198.05,62.50Q200.05,71.50 200.05,69.50 M205.25,62.70Q209.25,71.70 205.25,69.70 M170.35,65.40Q176.35,72.40 171.35,72.40 M177.55,65.60Q182.55,74.60 176.55,72.60 M184.25,65.30Q186.25,74.30 185.25,72.30 M191.35,65.50Q194.35,69.50 191.35,72.50 M198.25,65.30Q201.25,72.30 199.25,72.30 M205.25,65.70Q209.25,71.70 205.25,72.70"/><path d="M169.60,2.55Q171.60,8.55 169.60,9.55 M176.63,2.45Q179.63,8.45 177.63,9.45 M183.97,2.25Q186.97,7.25 183.97,9.25 M191.70,2.25Q197.70,7.25 193.70,9.25 M198.93,2.45Q202.93,8.45 200.93,9.45 M206.07,2.45Q211.07,10.45 206.07,9.45 M169.50,3.75Q171.50,8.75 171.50,10.75 M176.93,3.75Q181.93,7.75 178.93,10.75 M183.77,3.75Q188.77,12.75 183.77,10.75 M191.40,3.95Q194.40,8.95 193.40,10.95 M198.63,3.85Q200.63,9.85 200.63,10.85 M206.07,3.95Q208.07,7.95 207.07,10.95 M169.40,5.45Q173.40,14.45 169.40,12.45 M176.73,5.55Q182.73,14.55 178.73,12.55 M184.17,5.25Q188.17,9.25 186.17,12.25 M191.60,5.25Q195.60,14.25 190.60,12.25 M198.83,5.25Q204.83,9.25 197.83,12.25 M206.27,5.35Q208.27,9.35 207.27,12.35 M169.20,6.75Q175.20,15.75 171.20,13.75 M176.73,6.85Q178.73,15.85 176.73,13.85 M184.37,7.05Q187.37,15.05 185.37,14.05 M191.60,6.85Q193.60,10.85 192.60,13.85 M198.93,7.05Q204.93,14.05 200.93,14.05 M205.87,7.05Q207.87,13.05 205.87,14.05 M169.60,8.55Q173.60,15.55 170.60,15.55 M176.93,8.25Q182.93,17.25 176.93,15.25 M184.37,8.25Q186.37,12.25 185.37,15.25 M191.40,8.55Q193.40,16.55 190.40,15.55 M198.93,8.15Q203.93,13.15 198.93,15.15 M205.97,8.15Q207.97,13.15 205.97,15.15 M169.30,9.95Q171.30,13.95 169.30,16.95 M176.73,9.65Q180.73,18.65 178.73,16.65 M184.37,10.05Q190.37,16.05 186.37,17.05 M191.50,9.95Q194.50,13.95 190.50,16.95 M198.83,9.95Q200.83,18.95 197.83,16.95 M205.77,9.65Q208.77,14.65 205.77,16.65 M169.50,11.15Q173.50,17.15 171.50,18.15 M177.03,11.45Q180.03,19.45 177.03,18.45 M183.77,11.25Q189.77,16.25 184.77,18.25 M191.10,11.25Q194.10,17.25 192.10,18.25 M199.03,11.45Q204.03,18.45 200.03,18.45 M206.17,11.35Q209.17,20.20 206.17,18.35 M169.20,13.05Q175.20,20.20 168.20,20.05 M176.43,12.95Q182.43,18.95 177.43,19.95 M184.37,12.95Q189.37,17.95 186.37,19.95 M191.50,13.05Q194.50,20.05 192.50,20.05 M198.63,12.65Q200.63,18.65 199.63,19.65 M206.17,12.85Q208.17,17.85 207.17,19.85 M169.10,14.35Q175.10,20.20 168.10,21.20 M176.93,14.45Q179.93,20.20 177.93,21.20 M183.77,14.25Q189.77,19.25 185.77,21.20 M191.40,14.25Q194.40,20.20 190.40,21.20 M198.73,14.25Q200.73,20.20 200.73,21.20 M206.07,14.35Q209.07,20.20 208.07,21.20 M169.30,15.95Q171.30,20.20 169.30,21.20 M176.93,15.75Q179.93,20.20 177.93,21.20 M184.37,15.65Q187.37,20.20 184.37,21.20 M191.60,15.65Q196.60,20.20 190.60,21.20 M198.43,15.75Q204.43,20.20 198.43,21.20 M206.27,15.95Q212.27,19.95 207.27,21.20 M169.10,16.20Q172.10,20.20 169.10,21.20 M176.93,16.20Q178.93,20.20 177.93,21.20 M183.87,16.20Q188.87,20.20 184.87,21.20 M191.10,16.20Q194.10,20.20 193.10,21.20 M199.03,16.20Q202.03,20.20 198.03,21.20 M205.77,16.20Q210.77,20.20 207.77,21.20 M169.40,16.20Q172.40,20.20 170.40,21.20 M176.53,16.20Q178.53,20.20 177.53,21.20 M184.27,16.20Q190.27,20.20 185.27,21.20 M191.20,16.20Q195.20,20.20 191.20,21.20 M198.53,16.20Q203.53,20.20 199.53,21.20 M206.07,16.20Q212.07,20.20 206.07,21.20"/></g>
  </g>
  <g id="cut-outline" fill="none" stroke-linecap="square" stroke-linejoin="miter">
    <rect x="0.000" y="0.000" width="50.000" height="100.000" fill="none" stroke="#ff0000" stroke-width="0.35"/><circle cx="25.000" cy="4.000" r="1.750" fill="none" stroke="#ff0000" stroke-width="0.35"/><rect x="55.000" y="0.000" width="50.000" height="100.000" fill="none" stroke="#ff0000" stroke-width="0.35"/><circle cx="80.000" cy="4.000" r="1.750" fill="none" stroke="#ff0000" stroke-width="0.35"/><rect x="110.000" y="0.000" width="50.000" height="100.000" fill="none" stroke="#ff0000" stroke-width="0.35"/><circle cx="135.000" cy="4.000" r="1.750" fill="none" stroke="#ff0000" stroke-width="0.35"/><rect x="165.000" y="0.000" width="50.000" height="100.000" fill="none" stroke="#ff0000" stroke-width="0.35"/><circle cx="190.000" cy="4.000" r="1.750" fill="none" stroke="#ff0000" stroke-width="0.35"/>
  </g>
</svg>
