<?xml version="1.0" encoding="UTF-8"?>
<svg xmlns="http://www.w3.org/2000/svg"
     width="50.000mm" height="100.000mm"
     viewBox="0 0 50.000 100.000">
  <title>Zentangle bookmark 02 — MeerK40t</title>
  <defs>
    <clipPath id="clip-inner">
      <rect x="0.750" y="0.750" width="48.500" height="98.500"/>
    </clipPath>
  </defs>
  <g id="engrave-art" fill="none" stroke="#0000ff" stroke-width="0.15"
     stroke-linecap="round" stroke-linejoin="round" clip-path="url(#clip-inner)">
    <path d="M26.41,21.42Q27.12,22.00 26.41,22.58 M26.41,22.58Q26.50,23.50 25.58,23.41 M25.58,23.41Q25.00,24.12 24.42,23.41 M24.42,23.41Q23.50,23.50 23.59,22.58 M23.59,22.58Q22.88,22.00 23.59,21.42 M23.59,21.42Q23.50,20.50 24.42,20.59 M24.42,20.59Q25.00,19.88 25.58,20.59 M25.58,20.59Q26.50,20.50 26.41,21.42"/><path d="M27.90,21.06Q29.24,22.00 27.90,22.94 M27.90,22.94Q28.43,24.49 26.79,24.47 M26.79,24.47Q26.31,26.03 25.00,25.05 M25.00,25.05Q23.69,26.03 23.21,24.47 M23.21,24.47Q21.57,24.49 22.10,22.94 M22.10,22.94Q20.76,22.00 22.10,21.06 M22.10,21.06Q21.57,19.51 23.21,19.53 M23.21,19.53Q23.69,17.97 25.00,18.95 M25.00,18.95Q26.31,17.97 26.79,19.53 M26.79,19.53Q28.43,19.51 27.90,21.06"/><path d="M29.42,20.82Q31.35,22.00 29.42,23.18 M29.42,23.18Q30.50,25.18 28.23,25.23 M28.23,25.23Q28.18,27.50 26.18,26.42 M26.18,26.42Q25.00,28.35 23.82,26.42 M23.82,26.42Q21.82,27.50 21.77,25.23 M21.77,25.23Q19.50,25.18 20.58,23.18 M20.58,23.18Q18.65,22.00 20.58,20.82 M20.58,20.82Q19.50,18.82 21.77,18.77 M21.77,18.77Q21.82,16.50 23.82,17.58 M23.82,17.58Q25.00,15.65 26.18,17.58 M26.18,17.58Q28.18,16.50 28.23,18.77 M28.23,18.77Q30.50,18.82 29.42,20.82"/><path d="M30.95,20.64Q33.47,22.00 30.95,23.36 M30.95,23.36Q32.63,25.68 29.77,25.80 M29.77,25.80Q30.28,28.62 27.65,27.49 M27.65,27.49Q26.88,30.26 25.00,28.10 M25.00,28.10Q23.12,30.26 22.35,27.49 M22.35,27.49Q19.72,28.62 20.23,25.80 M20.23,25.80Q17.37,25.68 19.05,23.36 M19.05,23.36Q16.53,22.00 19.05,20.64 M19.05,20.64Q17.37,18.32 20.23,18.20 M20.23,18.20Q19.72,15.38 22.35,16.51 M22.35,16.51Q23.12,13.74 25.00,15.90 M25.00,15.90Q26.88,13.74 27.65,16.51 M27.65,16.51Q30.28,15.38 29.77,18.20 M29.77,18.20Q32.63,18.32 30.95,20.64"/><path d="M32.48,20.51Q35.59,22.00 32.48,23.49 M32.48,23.49Q34.78,26.05 31.34,26.24 M31.34,26.24Q32.49,29.49 29.24,28.34 M29.24,28.34Q29.05,31.78 26.49,29.48 M26.49,29.48Q25.00,32.59 23.51,29.48 M23.51,29.48Q20.95,31.78 20.76,28.34 M20.76,28.34Q17.51,29.49 18.66,26.24 M18.66,26.24Q15.22,26.05 17.52,23.49 M17.52,23.49Q14.41,22.00 17.52,20.51 M17.52,20.51Q15.22,17.95 18.66,17.76 M18.66,17.76Q17.51,14.51 20.76,15.66 M20.76,15.66Q20.95,12.22 23.51,14.52 M23.51,14.52Q25.00,11.41 26.49,14.52 M26.49,14.52Q29.05,12.22 29.24,15.66 M29.24,15.66Q32.49,14.51 31.34,17.76 M31.34,17.76Q34.78,17.95 32.48,20.51"/><path d="M34.01,20.41Q37.71,22.00 34.01,23.59 M34.01,23.59Q36.94,26.35 32.92,26.57 M32.92,26.57Q34.73,30.17 30.88,29.01 M30.88,29.01Q31.35,33.00 28.13,30.60 M28.13,30.60Q27.21,34.51 25.00,31.15 M25.00,31.15Q22.79,34.51 21.87,30.60 M21.87,30.60Q18.65,33.00 19.12,29.01 M19.12,29.01Q15.27,30.17 17.08,26.57 M17.08,26.57Q13.06,26.35 15.99,23.59 M15.99,23.59Q12.29,22.00 15.99,20.41 M15.99,20.41Q13.06,17.65 17.08,17.43 M17.08,17.43Q15.27,13.83 19.12,14.99 M19.12,14.99Q18.65,11.00 21.87,13.40 M21.87,13.40Q22.79,9.49 25.00,12.85 M25.00,12.85Q27.21,9.49 28.13,13.40 M28.13,13.40Q31.35,11.00 30.88,14.99 M30.88,14.99Q34.73,13.83 32.92,17.43 M32.92,17.43Q36.94,17.65 34.01,20.41"/><path d="M35.54,20.33Q39.82,22.00 35.54,23.67 M35.54,23.67Q39.10,26.58 34.51,26.85 M34.51,26.85Q36.99,30.71 32.55,29.55 M32.55,29.55Q33.71,33.99 29.85,31.51 M29.85,31.51Q29.58,36.10 26.67,32.54 M26.67,32.54Q25.00,36.82 23.33,32.54 M23.33,32.54Q20.42,36.10 20.15,31.51 M20.15,31.51Q16.29,33.99 17.45,29.55 M17.45,29.55Q13.01,30.71 15.49,26.85 M15.49,26.85Q10.90,26.58 14.46,23.67 M14.46,23.67Q10.18,22.00 14.46,20.33 M14.46,20.33Q10.90,17.42 15.49,17.15 M15.49,17.15Q13.01,13.29 17.45,14.45 M17.45,14.45Q16.29,10.01 20.15,12.49 M20.15,12.49Q20.42,7.90 23.33,11.46 M23.33,11.46Q25.00,7.18 26.67,11.46 M26.67,11.46Q29.58,7.90 29.85,12.49 M29.85,12.49Q33.71,10.01 32.55,14.45 M32.55,14.45Q36.99,13.29 34.51,17.15 M34.51,17.15Q39.10,17.42 35.54,20.33"/><path d="M37.07,20.26Q41.94,22.00 37.07,23.74 M37.07,23.74Q41.25,26.77 36.10,27.07 M36.10,27.07Q39.25,31.16 34.22,29.99 M34.22,29.99Q36.09,34.80 31.59,32.26 M31.59,32.26Q32.04,37.41 28.44,33.70 M28.44,33.70Q27.41,38.77 25.00,34.20 M25.00,34.20Q22.59,38.77 21.56,33.70 M21.56,33.70Q17.96,37.41 18.41,32.26 M18.41,32.26Q13.91,34.80 15.78,29.99 M15.78,29.99Q10.75,31.16 13.90,27.07 M13.90,27.07Q8.75,26.77 12.93,23.74 M12.93,23.74Q8.06,22.00 12.93,20.26 M12.93,20.26Q8.75,17.23 13.90,16.93 M13.90,16.93Q10.75,12.84 15.78,14.01 M15.78,14.01Q13.91,9.20 18.41,11.74 M18.41,11.74Q17.96,6.59 21.56,10.30 M21.56,10.30Q22.59,5.23 25.00,9.80 M25.00,9.80Q27.41,5.23 28.44,10.30 M28.44,10.30Q32.04,6.59 31.59,11.74 M31.59,11.74Q36.09,9.20 34.22,14.01 M34.22,14.01Q39.25,12.84 36.10,16.93 M36.10,16.93Q41.25,17.23 37.07,20.26"/><circle cx="41.000" cy="22.000" r="0.300"/><circle cx="40.455" cy="26.141" r="0.300"/><circle cx="38.856" cy="30.000" r="0.300"/><circle cx="36.314" cy="33.314" r="0.300"/><circle cx="33.000" cy="35.856" r="0.300"/><circle cx="29.141" cy="37.455" r="0.300"/><circle cx="25.000" cy="38.000" r="0.300"/><circle cx="20.859" cy="37.455" r="0.300"/><circle cx="17.000" cy="35.856" r="0.300"/><circle cx="13.686" cy="33.314" r="0.300"/><circle cx="11.144" cy="30.000" r="0.300"/><circle cx="9.545" cy="26.141" r="0.300"/><circle cx="9.000" cy="22.000" r="0.300"/><circle cx="9.545" cy="17.859" r="0.300"/><circle cx="11.144" cy="14.000" r="0.300"/><circle cx="13.686" cy="10.686" r="0.300"/><circle cx="17.000" cy="8.144" r="0.300"/><circle cx="20.859" cy="6.545" r="0.300"/><circle cx="25.000" cy="6.000" r="0.300"/><circle cx="29.141" cy="6.545" r="0.300"/><circle cx="33.000" cy="8.144" r="0.300"/><circle cx="36.314" cy="10.686" r="0.300"/><circle cx="38.856" cy="14.000" r="0.300"/><circle cx="40.455" cy="17.859" r="0.300"/><path d="M29.87,50.89Q34.00,52.00 29.87,53.11 M29.87,53.11Q33.11,55.90 28.91,55.12 M28.91,55.12Q30.61,59.04 27.17,56.50 M27.17,56.50Q27.00,60.77 25.00,57.00 M25.00,57.00Q23.00,60.77 22.83,56.50 M22.83,56.50Q19.39,59.04 21.09,55.12 M21.09,55.12Q16.89,55.90 20.13,53.11 M20.13,53.11Q16.00,52.00 20.13,50.89 M20.13,50.89Q16.89,48.10 21.09,48.88 M21.09,48.88Q19.39,44.96 22.83,47.50 M22.83,47.50Q23.00,43.23 25.00,47.00 M25.00,47.00Q27.00,43.23 27.17,47.50 M27.17,47.50Q30.61,44.96 28.91,48.88 M28.91,48.88Q33.11,48.10 29.87,50.89"/><path d="M4.20,58.50Q6.20,65.50 5.20,65.50 M11.83,58.60Q15.83,65.60 11.83,65.60 M19.27,58.30Q21.27,66.30 18.27,65.30 M26.60,58.70Q29.60,62.70 26.60,65.70 M33.63,58.30Q35.63,63.30 32.63,65.30 M41.17,58.60Q45.17,64.60 40.17,65.60 M4.50,61.50Q9.50,66.50 6.50,68.50 M11.83,61.60Q15.83,66.60 13.83,68.60 M19.37,61.40Q21.37,69.40 19.37,68.40 M26.50,61.40Q29.50,69.40 26.50,68.40 M33.83,61.40Q38.83,70.40 35.83,68.40 M40.97,61.70Q43.97,68.70 40.97,68.70 M4.10,64.40Q9.10,68.40 6.10,71.40 M11.73,64.50Q15.73,73.50 12.73,71.50 M19.37,64.60Q23.37,70.60 21.37,71.60 M26.30,64.60Q31.30,68.60 27.30,71.60 M33.83,64.40Q38.83,69.40 35.83,71.40 M41.07,64.60Q47.07,69.60 42.07,71.60 M4.60,67.60Q7.60,75.60 4.60,74.60 M11.63,67.50Q16.63,71.50 11.63,74.50 M19.27,67.70Q21.27,72.70 18.27,74.70 M26.10,67.30Q32.10,75.30 26.10,74.30 M33.53,67.60Q37.53,74.60 34.53,74.60 M41.07,67.60Q46.07,74.60 43.07,74.60 M4.40,70.30Q9.40,74.30 6.40,77.30 M12.03,70.60Q15.03,74.60 14.03,77.60 M19.27,70.60Q24.27,77.60 20.27,77.60 M26.50,70.60Q32.50,79.60 27.50,77.60 M33.73,70.30Q35.73,78.30 32.73,77.30 M41.17,70.30Q47.17,77.30 41.17,77.30 M4.10,73.50Q6.10,77.50 3.10,80.50 M11.83,73.60Q15.83,79.60 10.83,80.60 M19.37,73.70Q24.37,78.70 21.37,80.70 M26.40,73.50Q28.40,80.50 26.40,80.50 M34.03,73.60Q37.03,81.60 34.03,80.60 M41.17,73.30Q45.17,81.30 43.17,80.30 M4.10,76.60Q7.10,81.60 5.10,83.60 M11.83,76.40Q14.83,84.40 11.83,83.40 M18.97,76.60Q24.97,83.60 18.97,83.60 M26.30,76.40Q31.30,81.40 27.30,83.40 M33.43,76.40Q37.43,84.40 33.43,83.40 M41.07,76.30Q44.07,80.30 43.07,83.30 M4.20,79.40Q8.20,84.40 6.20,86.40 M11.53,79.60Q17.53,84.60 12.53,86.60 M19.07,79.70Q22.07,85.70 18.07,86.70 M26.70,79.30Q32.70,84.30 27.70,86.30 M33.73,79.40Q39.73,87.40 33.73,86.40 M40.87,79.40Q43.87,87.40 40.87,86.40 M4.40,82.30Q10.40,89.30 4.40,89.30 M11.43,82.50Q17.43,87.50 13.43,89.50 M18.77,82.70Q22.77,86.70 17.77,89.70 M26.70,82.30Q28.70,86.30 26.70,89.30 M33.73,82.70Q37.73,91.70 32.73,89.70 M41.17,82.30Q46.17,90.30 40.17,89.30 M4.40,85.30Q7.40,94.30 6.40,92.30 M11.43,85.30Q16.43,94.30 10.43,92.30 M18.87,85.40Q22.87,91.40 18.87,92.40 M26.40,85.70Q31.40,93.70 28.40,92.70 M33.63,85.30Q37.63,90.30 32.63,92.30 M40.87,85.60Q42.87,90.60 40.87,92.60 M4.30,88.70Q6.30,92.70 5.30,95.70 M12.03,88.40Q14.03,93.40 13.03,95.40 M18.97,88.70Q23.97,94.70 17.97,95.70 M26.50,88.60Q29.50,94.60 25.50,95.60 M33.73,88.30Q35.73,97.30 35.73,95.30 M41.27,88.60Q45.27,95.60 40.27,95.60 M4.40,91.40Q6.40,97.40 5.40,98.40 M11.53,91.30Q17.53,97.30 11.53,98.30 M18.77,91.70Q23.77,98.20 17.77,98.70 M26.10,91.30Q28.10,95.30 27.10,98.30 M33.93,91.40Q36.93,96.40 32.93,98.40 M40.77,91.60Q46.77,98.20 40.77,98.60"/><circle cx="26.059" cy="84.000" r="0.370"/><circle cx="25.749" cy="84.749" r="0.370"/><circle cx="25.000" cy="85.059" r="0.370"/><circle cx="24.251" cy="84.749" r="0.370"/><circle cx="23.941" cy="84.000" r="0.370"/><circle cx="24.251" cy="83.251" r="0.370"/><circle cx="25.000" cy="82.941" r="0.370"/><circle cx="25.749" cy="83.251" r="0.370"/><circle cx="27.118" cy="84.000" r="0.390"/><circle cx="26.713" cy="85.245" r="0.390"/><circle cx="25.654" cy="86.014" r="0.390"/><circle cx="24.346" cy="86.014" r="0.390"/><circle cx="23.287" cy="85.245" r="0.390"/><circle cx="22.882" cy="84.000" r="0.390"/><circle cx="23.287" cy="82.755" r="0.390"/><circle cx="24.346" cy="81.986" r="0.390"/><circle cx="25.654" cy="81.986" r="0.390"/><circle cx="26.713" cy="82.755" r="0.390"/><circle cx="28.176" cy="84.000" r="0.410"/><circle cx="27.751" cy="85.588" r="0.410"/><circle cx="26.588" cy="86.751" r="0.410"/><circle cx="25.000" cy="87.176" r="0.410"/><circle cx="23.412" cy="86.751" r="0.410"/><circle cx="22.249" cy="85.588" r="0.410"/><circle cx="21.824" cy="84.000" r="0.410"/><circle cx="22.249" cy="82.412" r="0.410"/><circle cx="23.412" cy="81.249" r="0.410"/><circle cx="25.000" cy="80.824" r="0.410"/><circle cx="26.588" cy="81.249" r="0.410"/><circle cx="27.751" cy="82.412" r="0.410"/><circle cx="29.235" cy="84.000" r="0.430"/><circle cx="28.816" cy="85.838" r="0.430"/><circle cx="27.641" cy="87.311" r="0.430"/><circle cx="25.942" cy="88.129" r="0.430"/><circle cx="24.058" cy="88.129" r="0.430"/><circle cx="22.359" cy="87.311" r="0.430"/><circle cx="21.184" cy="85.838" r="0.430"/><circle cx="20.765" cy="84.000" r="0.430"/><circle cx="21.184" cy="82.162" r="0.430"/><circle cx="22.359" cy="80.689" r="0.430"/><circle cx="24.058" cy="79.871" r="0.430"/><circle cx="25.942" cy="79.871" r="0.430"/><circle cx="27.641" cy="80.689" r="0.430"/><circle cx="28.816" cy="82.162" r="0.430"/><circle cx="30.294" cy="84.000" r="0.450"/><circle cx="29.891" cy="86.026" r="0.450"/><circle cx="28.744" cy="87.744" r="0.450"/><circle cx="27.026" cy="88.891" r="0.450"/><circle cx="25.000" cy="89.294" r="0.450"/><circle cx="22.974" cy="88.891" r="0.450"/><circle cx="21.256" cy="87.744" r="0.450"/><circle cx="20.109" cy="86.026" r="0.450"/><circle cx="19.706" cy="84.000" r="0.450"/><circle cx="20.109" cy="81.974" r="0.450"/><circle cx="21.256" cy="80.256" r="0.450"/><circle cx="22.974" cy="79.109" r="0.450"/><circle cx="25.000" cy="78.706" r="0.450"/><circle cx="27.026" cy="79.109" r="0.450"/><circle cx="28.744" cy="80.256" r="0.450"/><circle cx="29.891" cy="81.974" r="0.450"/><circle cx="31.353" cy="84.000" r="0.470"/><circle cx="30.970" cy="86.173" r="0.470"/><circle cx="29.867" cy="88.084" r="0.470"/><circle cx="28.176" cy="89.502" r="0.470"/><circle cx="26.103" cy="90.256" r="0.470"/><circle cx="23.897" cy="90.256" r="0.470"/><circle cx="21.824" cy="89.502" r="0.470"/><circle cx="20.133" cy="88.084" r="0.470"/><circle cx="19.030" cy="86.173" r="0.470"/><circle cx="18.647" cy="84.000" r="0.470"/><circle cx="19.030" cy="81.827" r="0.470"/><circle cx="20.133" cy="79.916" r="0.470"/><circle cx="21.824" cy="78.498" r="0.470"/><circle cx="23.897" cy="77.744" r="0.470"/><circle cx="26.103" cy="77.744" r="0.470"/><circle cx="28.176" cy="78.498" r="0.470"/><circle cx="29.867" cy="79.916" r="0.470"/><circle cx="30.970" cy="81.827" r="0.470"/><circle cx="32.412" cy="84.000" r="0.490"/><circle cx="32.049" cy="86.290" r="0.490"/><circle cx="30.996" cy="88.357" r="0.490"/><circle cx="29.357" cy="89.996" r="0.490"/><circle cx="27.290" cy="91.049" r="0.490"/><circle cx="25.000" cy="91.412" r="0.490"/><circle cx="22.710" cy="91.049" r="0.490"/><circle cx="20.643" cy="89.996" r="0.490"/><circle cx="19.004" cy="88.357" r="0.490"/><circle cx="17.951" cy="86.290" r="0.490"/><circle cx="17.588" cy="84.000" r="0.490"/><circle cx="17.951" cy="81.710" r="0.490"/><circle cx="19.004" cy="79.643" r="0.490"/><circle cx="20.643" cy="78.004" r="0.490"/><circle cx="22.710" cy="76.951" r="0.490"/><circle cx="25.000" cy="76.588" r="0.490"/><circle cx="27.290" cy="76.951" r="0.490"/><circle cx="29.357" cy="78.004" r="0.490"/><circle cx="30.996" cy="79.643" r="0.490"/><circle cx="32.049" cy="81.710" r="0.490"/><circle cx="33.471" cy="84.000" r="0.510"/><circle cx="33.127" cy="86.386" r="0.510"/><circle cx="32.126" cy="88.580" r="0.510"/><circle cx="30.547" cy="90.402" r="0.510"/><circle cx="28.519" cy="91.705" r="0.510"/><circle cx="26.205" cy="92.384" r="0.510"/><circle cx="23.795" cy="92.384" r="0.510"/><circle cx="21.481" cy="91.705" r="0.510"/><circle cx="19.453" cy="90.402" r="0.510"/><circle cx="17.874" cy="88.580" r="0.510"/><circle cx="16.873" cy="86.386" r="0.510"/><circle cx="16.529" cy="84.000" r="0.510"/><circle cx="16.873" cy="81.614" r="0.510"/><circle cx="17.874" cy="79.420" r="0.510"/><circle cx="19.453" cy="77.598" r="0.510"/><circle cx="21.481" cy="76.295" r="0.510"/><circle cx="23.795" cy="75.616" r="0.510"/><circle cx="26.205" cy="75.616" r="0.510"/><circle cx="28.519" cy="76.295" r="0.510"/><circle cx="30.547" cy="77.598" r="0.510"/><circle cx="32.126" cy="79.420" r="0.510"/><circle cx="33.127" cy="81.614" r="0.510"/><path d="M25.00,52.00L27.40,52.00M25.00,52.00L36.77,54.34 M25.00,52.00L27.22,52.92M25.00,52.00L34.98,58.67 M25.00,52.00L26.70,53.70M25.00,52.00L31.67,61.98 M25.00,52.00L25.92,54.22M25.00,52.00L27.34,63.77 M25.00,52.00L25.00,54.40M25.00,52.00L22.66,63.77 M25.00,52.00L24.08,54.22M25.00,52.00L18.33,61.98 M25.00,52.00L23.30,53.70M25.00,52.00L15.02,58.67 M25.00,52.00L22.78,52.92M25.00,52.00L13.23,54.34 M25.00,52.00L22.60,52.00M25.00,52.00L13.23,49.66 M25.00,52.00L22.78,51.08M25.00,52.00L15.02,45.33 M25.00,52.00L23.30,50.30M25.00,52.00L18.33,42.02 M25.00,52.00L24.08,49.78M25.00,52.00L22.66,40.23 M25.00,52.00L25.00,49.60M25.00,52.00L27.34,40.23 M25.00,52.00L25.92,49.78M25.00,52.00L31.67,42.02 M25.00,52.00L26.70,50.30M25.00,52.00L34.98,45.33 M25.00,52.00L27.22,51.08M25.00,52.00L36.77,49.66"/>
  </g>
  <g id="cut-outline" fill="none" stroke-linecap="square" stroke-linejoin="miter">
    <rect x="0.000" y="0.000" width="50.000" height="100.000" fill="none" stroke="#ff0000" stroke-width="0.35"/><circle cx="25.000" cy="4.000" r="1.750" fill="none" stroke="#ff0000" stroke-width="0.35"/>
  </g>
</svg>
