<?xml version="1.0" encoding="UTF-8"?>
<svg xmlns="http://www.w3.org/2000/svg"
     width="50.000mm" height="100.000mm"
     viewBox="0 0 50.000 100.000">
  <title>Zentangle bookmark 01 — MeerK40t</title>
  <defs>
    <clipPath id="clip-inner">
      <rect x="0.750" y="0.750" width="48.500" height="98.500"/>
    </clipPath>
  </defs>
  <g id="engrave-art" fill="none" stroke="#0000ff" stroke-width="0.15"
     stroke-linecap="round" stroke-linejoin="round" clip-path="url(#clip-inner)">
    <path d="M26.10,29.55Q26.65,30.00 26.10,30.45 M26.10,30.45Q26.16,31.16 25.45,31.10 M25.45,31.10Q25.00,31.65 24.55,31.10 M24.55,31.10Q23.84,31.16 23.90,30.45 M23.90,30.45Q23.35,30.00 23.90,29.55 M23.90,29.55Q23.84,28.84 24.55,28.90 M24.55,28.90Q25.00,28.35 25.45,28.90 M25.45,28.90Q26.16,28.84 26.10,29.55"/><path d="M27.26,29.27Q28.29,30.00 27.26,30.73 M27.26,30.73Q27.66,31.94 26.39,31.92 M26.39,31.92Q26.02,33.13 25.00,32.37 M25.00,32.37Q23.98,33.13 23.61,31.92 M23.61,31.92Q22.34,31.94 22.74,30.73 M22.74,30.73Q21.71,30.00 22.74,29.27 M22.74,29.27Q22.34,28.06 23.61,28.08 M23.61,28.08Q23.98,26.87 25.00,27.63 M25.00,27.63Q26.02,26.87 26.39,28.08 M26.39,28.08Q27.66,28.06 27.26,29.27"/><path d="M28.44,29.08Q29.94,30.00 28.44,30.92 M28.44,30.92Q29.28,32.47 27.52,32.52 M27.52,32.52Q27.47,34.28 25.92,33.44 M25.92,33.44Q25.00,34.94 24.08,33.44 M24.08,33.44Q22.53,34.28 22.48,32.52 M22.48,32.52Q20.72,32.47 21.56,30.92 M21.56,30.92Q20.06,30.00 21.56,29.08 M21.56,29.08Q20.72,27.53 22.48,27.48 M22.48,27.48Q22.53,25.72 24.08,26.56 M24.08,26.56Q25.00,25.06 25.92,26.56 M25.92,26.56Q27.47,25.72 27.52,27.48 M27.52,27.48Q29.28,27.53 28.44,29.08"/><path d="M29.62,28.94Q31.59,30.00 29.62,31.06 M29.62,31.06Q30.94,32.86 28.71,32.96 M28.71,32.96Q29.11,35.15 27.06,34.27 M27.06,34.27Q26.47,36.42 25.00,34.74 M25.00,34.74Q23.53,36.42 22.94,34.27 M22.94,34.27Q20.89,35.15 21.29,32.96 M21.29,32.96Q19.06,32.86 20.38,31.06 M20.38,31.06Q18.41,30.00 20.38,28.94 M20.38,28.94Q19.06,27.14 21.29,27.04 M21.29,27.04Q20.89,24.85 22.94,25.73 M22.94,25.73Q23.53,23.58 25.00,25.26 M25.00,25.26Q26.47,23.58 27.06,25.73 M27.06,25.73Q29.11,24.85 28.71,27.04 M28.71,27.04Q30.94,27.14 29.62,28.94"/><path d="M30.82,28.84Q33.24,30.00 30.82,31.16 M30.82,31.16Q32.61,33.15 29.93,33.29 M29.93,33.29Q30.82,35.82 28.29,34.93 M28.29,34.93Q28.15,37.61 26.16,35.82 M26.16,35.82Q25.00,38.24 23.84,35.82 M23.84,35.82Q21.85,37.61 21.71,34.93 M21.71,34.93Q19.18,35.82 20.07,33.29 M20.07,33.29Q17.39,33.15 19.18,31.16 M19.18,31.16Q16.76,30.00 19.18,28.84 M19.18,28.84Q17.39,26.85 20.07,26.71 M20.07,26.71Q19.18,24.18 21.71,25.07 M21.71,25.07Q21.85,22.39 23.84,24.18 M23.84,24.18Q25.00,21.76 26.16,24.18 M26.16,24.18Q28.15,22.39 28.29,25.07 M28.29,25.07Q30.82,24.18 29.93,26.71 M29.93,26.71Q32.61,26.85 30.82,28.84"/><path d="M32.01,28.76Q34.88,30.00 32.01,31.24 M32.01,31.24Q34.29,33.38 31.16,33.56 M31.16,33.56Q32.57,36.35 29.57,35.45 M29.57,35.45Q29.94,38.56 27.43,36.69 M27.43,36.69Q26.72,39.73 25.00,37.12 M25.00,37.12Q23.28,39.73 22.57,36.69 M22.57,36.69Q20.06,38.56 20.43,35.45 M20.43,35.45Q17.43,36.35 18.84,33.56 M18.84,33.56Q15.71,33.38 17.99,31.24 M17.99,31.24Q15.12,30.00 17.99,28.76 M17.99,28.76Q15.71,26.62 18.84,26.44 M18.84,26.44Q17.43,23.65 20.43,24.55 M20.43,24.55Q20.06,21.44 22.57,23.31 M22.57,23.31Q23.28,20.27 25.00,22.88 M25.00,22.88Q26.72,20.27 27.43,23.31 M27.43,23.31Q29.94,21.44 29.57,24.55 M29.57,24.55Q32.57,23.65 31.16,26.44 M31.16,26.44Q34.29,26.62 32.01,28.76"/><path d="M33.20,28.70Q36.53,30.00 33.20,31.30 M33.20,31.30Q35.97,33.56 32.40,33.77 M32.40,33.77Q34.33,36.78 30.87,35.87 M30.87,35.87Q31.78,39.33 28.77,37.40 M28.77,37.40Q28.56,40.97 26.30,38.20 M26.30,38.20Q25.00,41.53 23.70,38.20 M23.70,38.20Q21.44,40.97 21.23,37.40 M21.23,37.40Q18.22,39.33 19.13,35.87 M19.13,35.87Q15.67,36.78 17.60,33.77 M17.60,33.77Q14.03,33.56 16.80,31.30 M16.80,31.30Q13.47,30.00 16.80,28.70 M16.80,28.70Q14.03,26.44 17.60,26.23 M17.60,26.23Q15.67,23.22 19.13,24.13 M19.13,24.13Q18.22,20.67 21.23,22.60 M21.23,22.60Q21.44,19.03 23.70,21.80 M23.70,21.80Q25.00,18.47 26.30,21.80 M26.30,21.80Q28.56,19.03 28.77,22.60 M28.77,22.60Q31.78,20.67 30.87,24.13 M30.87,24.13Q34.33,23.22 32.40,26.23 M32.40,26.23Q35.97,26.44 33.20,28.70"/><path d="M34.39,28.65Q38.18,30.00 34.39,31.35 M34.39,31.35Q37.64,33.71 33.63,33.94 M33.63,33.94Q36.08,37.12 32.17,36.21 M32.17,36.21Q33.63,39.96 30.13,37.98 M30.13,37.98Q30.47,41.99 27.67,39.10 M27.67,39.10Q26.88,43.04 25.00,39.49 M25.00,39.49Q23.12,43.04 22.33,39.10 M22.33,39.10Q19.53,41.99 19.87,37.98 M19.87,37.98Q16.37,39.96 17.83,36.21 M17.83,36.21Q13.92,37.12 16.37,33.94 M16.37,33.94Q12.36,33.71 15.61,31.35 M15.61,31.35Q11.82,30.00 15.61,28.65 M15.61,28.65Q12.36,26.29 16.37,26.06 M16.37,26.06Q13.92,22.88 17.83,23.79 M17.83,23.79Q16.37,20.04 19.87,22.02 M19.87,22.02Q19.53,18.01 22.33,20.90 M22.33,20.90Q23.12,16.96 25.00,20.51 M25.00,20.51Q26.88,16.96 27.67,20.90 M27.67,20.90Q30.47,18.01 30.13,22.02 M30.13,22.02Q33.63,20.04 32.17,23.79 M32.17,23.79Q36.08,22.88 33.63,26.06 M33.63,26.06Q37.64,26.29 34.39,28.65"/><path d="M30.71,66.15Q36.00,68.00 30.71,69.85 M30.71,69.85Q33.90,74.47 28.53,72.85 M28.53,72.85Q28.40,78.46 25.00,74.00 M25.00,74.00Q21.60,78.46 21.47,72.85 M21.47,72.85Q16.10,74.47 19.29,69.85 M19.29,69.85Q14.00,68.00 19.29,66.15 M19.29,66.15Q16.10,61.53 21.47,63.15 M21.47,63.15Q21.60,57.54 25.00,62.00 M25.00,62.00Q28.40,57.54 28.53,63.15 M28.53,63.15Q33.90,61.53 30.71,66.15"/><circle cx="33.000" cy="68.000" r="0.400"/><circle cx="31.472" cy="72.702" r="0.400"/><circle cx="27.472" cy="75.608" r="0.400"/><circle cx="22.528" cy="75.608" r="0.400"/><circle cx="18.528" cy="72.702" r="0.400"/><circle cx="17.000" cy="68.000" r="0.400"/><circle cx="18.528" cy="63.298" r="0.400"/><circle cx="22.528" cy="60.392" r="0.400"/><circle cx="27.472" cy="60.392" r="0.400"/><circle cx="31.472" cy="63.298" r="0.400"/><circle cx="15.941" cy="76.000" r="0.250"/><circle cx="15.870" cy="76.360" r="0.250"/><circle cx="15.666" cy="76.666" r="0.250"/><circle cx="15.360" cy="76.870" r="0.250"/><circle cx="15.000" cy="76.941" r="0.250"/><circle cx="14.640" cy="76.870" r="0.250"/><circle cx="14.334" cy="76.666" r="0.250"/><circle cx="14.130" cy="76.360" r="0.250"/><circle cx="14.059" cy="76.000" r="0.250"/><circle cx="14.130" cy="75.640" r="0.250"/><circle cx="14.334" cy="75.334" r="0.250"/><circle cx="14.640" cy="75.130" r="0.250"/><circle cx="15.000" cy="75.059" r="0.250"/><circle cx="15.360" cy="75.130" r="0.250"/><circle cx="15.666" cy="75.334" r="0.250"/><circle cx="15.870" cy="75.640" r="0.250"/><circle cx="16.882" cy="76.000" r="0.250"/><circle cx="16.790" cy="76.582" r="0.250"/><circle cx="16.523" cy="77.106" r="0.250"/><circle cx="16.106" cy="77.523" r="0.250"/><circle cx="15.582" cy="77.790" r="0.250"/><circle cx="15.000" cy="77.882" r="0.250"/><circle cx="14.418" cy="77.790" r="0.250"/><circle cx="13.894" cy="77.523" r="0.250"/><circle cx="13.477" cy="77.106" r="0.250"/><circle cx="13.210" cy="76.582" r="0.250"/><circle cx="13.118" cy="76.000" r="0.250"/><circle cx="13.210" cy="75.418" r="0.250"/><circle cx="13.477" cy="74.894" r="0.250"/><circle cx="13.894" cy="74.477" r="0.250"/><circle cx="14.418" cy="74.210" r="0.250"/><circle cx="15.000" cy="74.118" r="0.250"/><circle cx="15.582" cy="74.210" r="0.250"/><circle cx="16.106" cy="74.477" r="0.250"/><circle cx="16.523" cy="74.894" r="0.250"/><circle cx="16.790" cy="75.418" r="0.250"/><circle cx="17.824" cy="76.000" r="0.250"/><circle cx="17.727" cy="76.731" r="0.250"/><circle cx="17.445" cy="77.412" r="0.250"/><circle cx="16.997" cy="77.997" r="0.250"/><circle cx="16.412" cy="78.445" r="0.250"/><circle cx="15.731" cy="78.727" r="0.250"/><circle cx="15.000" cy="78.824" r="0.250"/><circle cx="14.269" cy="78.727" r="0.250"/><circle cx="13.588" cy="78.445" r="0.250"/><circle cx="13.003" cy="77.997" r="0.250"/><circle cx="12.555" cy="77.412" r="0.250"/><circle cx="12.273" cy="76.731" r="0.250"/><circle cx="12.176" cy="76.000" r="0.250"/><circle cx="12.273" cy="75.269" r="0.250"/><circle cx="12.555" cy="74.588" r="0.250"/><circle cx="13.003" cy="74.003" r="0.250"/><circle cx="13.588" cy="73.555" r="0.250"/><circle cx="14.269" cy="73.273" r="0.250"/><circle cx="15.000" cy="73.176" r="0.250"/><circle cx="15.731" cy="73.273" r="0.250"/><circle cx="16.412" cy="73.555" r="0.250"/><circle cx="16.997" cy="74.003" r="0.250"/><circle cx="17.445" cy="74.588" r="0.250"/><circle cx="17.727" cy="75.269" r="0.250"/><circle cx="18.765" cy="76.000" r="0.250"/><circle cx="18.670" cy="76.838" r="0.250"/><circle cx="18.392" cy="77.633" r="0.250"/><circle cx="17.943" cy="78.347" r="0.250"/><circle cx="17.347" cy="78.943" r="0.250"/><circle cx="16.633" cy="79.392" r="0.250"/><circle cx="15.838" cy="79.670" r="0.250"/><circle cx="15.000" cy="79.765" r="0.250"/><circle cx="14.162" cy="79.670" r="0.250"/><circle cx="13.367" cy="79.392" r="0.250"/><circle cx="12.653" cy="78.943" r="0.250"/><circle cx="12.057" cy="78.347" r="0.250"/><circle cx="11.608" cy="77.633" r="0.250"/><circle cx="11.330" cy="76.838" r="0.250"/><circle cx="11.235" cy="76.000" r="0.250"/><circle cx="11.330" cy="75.162" r="0.250"/><circle cx="11.608" cy="74.367" r="0.250"/><circle cx="12.057" cy="73.653" r="0.250"/><circle cx="12.653" cy="73.057" r="0.250"/><circle cx="13.367" cy="72.608" r="0.250"/><circle cx="14.162" cy="72.330" r="0.250"/><circle cx="15.000" cy="72.235" r="0.250"/><circle cx="15.838" cy="72.330" r="0.250"/><circle cx="16.633" cy="72.608" r="0.250"/><circle cx="17.347" cy="73.057" r="0.250"/><circle cx="17.943" cy="73.653" r="0.250"/><circle cx="18.392" cy="74.367" r="0.250"/><circle cx="18.670" cy="75.162" r="0.250"/><circle cx="19.706" cy="76.000" r="0.250"/><circle cx="19.615" cy="76.918" r="0.250"/><circle cx="19.348" cy="77.801" r="0.250"/><circle cx="18.913" cy="78.614" r="0.250"/><circle cx="18.328" cy="79.328" r="0.250"/><circle cx="17.614" cy="79.913" r="0.250"/><circle cx="16.801" cy="80.348" r="0.250"/><circle cx="15.918" cy="80.615" r="0.250"/><circle cx="15.000" cy="80.706" r="0.250"/><circle cx="14.082" cy="80.615" r="0.250"/><circle cx="13.199" cy="80.348" r="0.250"/><circle cx="12.386" cy="79.913" r="0.250"/><circle cx="11.672" cy="79.328" r="0.250"/><circle cx="11.087" cy="78.614" r="0.250"/><circle cx="10.652" cy="77.801" r="0.250"/><circle cx="10.385" cy="76.918" r="0.250"/><circle cx="10.294" cy="76.000" r="0.250"/><circle cx="10.385" cy="75.082" r="0.250"/><circle cx="10.652" cy="74.199" r="0.250"/><circle cx="11.087" cy="73.386" r="0.250"/><circle cx="11.672" cy="72.672" r="0.250"/><circle cx="12.386" cy="72.087" r="0.250"/><circle cx="13.199" cy="71.652" r="0.250"/><circle cx="14.082" cy="71.385" r="0.250"/><circle cx="15.000" cy="71.294" r="0.250"/><circle cx="15.918" cy="71.385" r="0.250"/><circle cx="16.801" cy="71.652" r="0.250"/><circle cx="17.614" cy="72.087" r="0.250"/><circle cx="18.328" cy="72.672" r="0.250"/><circle cx="18.913" cy="73.386" r="0.250"/><circle cx="19.348" cy="74.199" r="0.250"/><circle cx="19.615" cy="75.082" r="0.250"/><circle cx="20.647" cy="76.000" r="0.250"/><circle cx="20.561" cy="76.981" r="0.250"/><circle cx="20.306" cy="77.931" r="0.250"/><circle cx="19.890" cy="78.824" r="0.250"/><circle cx="19.326" cy="79.630" r="0.250"/><circle cx="18.630" cy="80.326" r="0.250"/><circle cx="17.824" cy="80.890" r="0.250"/><circle cx="16.931" cy="81.306" r="0.250"/><circle cx="15.981" cy="81.561" r="0.250"/><circle cx="15.000" cy="81.647" r="0.250"/><circle cx="14.019" cy="81.561" r="0.250"/><circle cx="13.069" cy="81.306" r="0.250"/><circle cx="12.176" cy="80.890" r="0.250"/><circle cx="11.370" cy="80.326" r="0.250"/><circle cx="10.674" cy="79.630" r="0.250"/><circle cx="10.110" cy="78.824" r="0.250"/><circle cx="9.694" cy="77.931" r="0.250"/><circle cx="9.439" cy="76.981" r="0.250"/><circle cx="9.353" cy="76.000" r="0.250"/><circle cx="9.439" cy="75.019" r="0.250"/><circle cx="9.694" cy="74.069" r="0.250"/><circle cx="10.110" cy="73.176" r="0.250"/><circle cx="10.674" cy="72.370" r="0.250"/><circle cx="11.370" cy="71.674" r="0.250"/><circle cx="12.176" cy="71.110" r="0.250"/><circle cx="13.069" cy="70.694" r="0.250"/><circle cx="14.019" cy="70.439" r="0.250"/><circle cx="15.000" cy="70.353" r="0.250"/><circle cx="15.981" cy="70.439" r="0.250"/><circle cx="16.931" cy="70.694" r="0.250"/><circle cx="17.824" cy="71.110" r="0.250"/><circle cx="18.630" cy="71.674" r="0.250"/><circle cx="19.326" cy="72.370" r="0.250"/><circle cx="19.890" cy="73.176" r="0.250"/><circle cx="20.306" cy="74.069" r="0.250"/><circle cx="20.561" cy="75.019" r="0.250"/><circle cx="21.588" cy="76.000" r="0.250"/><circle cx="21.507" cy="77.031" r="0.250"/><circle cx="21.266" cy="78.036" r="0.250"/><circle cx="20.870" cy="78.991" r="0.250"/><circle cx="20.330" cy="79.872" r="0.250"/><circle cx="19.659" cy="80.659" r="0.250"/><circle cx="18.872" cy="81.330" r="0.250"/><circle cx="17.991" cy="81.870" r="0.250"/><circle cx="17.036" cy="82.266" r="0.250"/><circle cx="16.031" cy="82.507" r="0.250"/><circle cx="15.000" cy="82.588" r="0.250"/><circle cx="13.969" cy="82.507" r="0.250"/><circle cx="12.964" cy="82.266" r="0.250"/><circle cx="12.009" cy="81.870" r="0.250"/><circle cx="11.128" cy="81.330" r="0.250"/><circle cx="10.341" cy="80.659" r="0.250"/><circle cx="9.670" cy="79.872" r="0.250"/><circle cx="9.130" cy="78.991" r="0.250"/><circle cx="8.734" cy="78.036" r="0.250"/><circle cx="8.493" cy="77.031" r="0.250"/><circle cx="8.412" cy="76.000" r="0.250"/><circle cx="8.493" cy="74.969" r="0.250"/><circle cx="8.734" cy="73.964" r="0.250"/><circle cx="9.130" cy="73.009" r="0.250"/><circle cx="9.670" cy="72.128" r="0.250"/><circle cx="10.341" cy="71.341" r="0.250"/><circle cx="11.128" cy="70.670" r="0.250"/><circle cx="12.009" cy="70.130" r="0.250"/><circle cx="12.964" cy="69.734" r="0.250"/><circle cx="13.969" cy="69.493" r="0.250"/><circle cx="15.000" cy="69.412" r="0.250"/><circle cx="16.031" cy="69.493" r="0.250"/><circle cx="17.036" cy="69.734" r="0.250"/><circle cx="17.991" cy="70.130" r="0.250"/><circle cx="18.872" cy="70.670" r="0.250"/><circle cx="19.659" cy="71.341" r="0.250"/><circle cx="20.330" cy="72.128" r="0.250"/><circle cx="20.870" cy="73.009" r="0.250"/><circle cx="21.266" cy="73.964" r="0.250"/><circle cx="21.507" cy="74.969" r="0.250"/><circle cx="22.529" cy="76.000" r="0.250"/><circle cx="22.453" cy="77.072" r="0.250"/><circle cx="22.224" cy="78.121" r="0.250"/><circle cx="21.849" cy="79.128" r="0.250"/><circle cx="21.334" cy="80.071" r="0.250"/><circle cx="20.690" cy="80.931" r="0.250"/><circle cx="19.931" cy="81.690" r="0.250"/><circle cx="19.071" cy="82.334" r="0.250"/><circle cx="18.128" cy="82.849" r="0.250"/><circle cx="17.121" cy="83.224" r="0.250"/><circle cx="16.072" cy="83.453" r="0.250"/><circle cx="15.000" cy="83.529" r="0.250"/><circle cx="13.928" cy="83.453" r="0.250"/><circle cx="12.879" cy="83.224" r="0.250"/><circle cx="11.872" cy="82.849" r="0.250"/><circle cx="10.929" cy="82.334" r="0.250"/><circle cx="10.069" cy="81.690" r="0.250"/><circle cx="9.310" cy="80.931" r="0.250"/><circle cx="8.666" cy="80.071" r="0.250"/><circle cx="8.151" cy="79.128" r="0.250"/><circle cx="7.776" cy="78.121" r="0.250"/><circle cx="7.547" cy="77.072" r="0.250"/><circle cx="7.471" cy="76.000" r="0.250"/><circle cx="7.547" cy="74.928" r="0.250"/><circle cx="7.776" cy="73.879" r="0.250"/><circle cx="8.151" cy="72.872" r="0.250"/><circle cx="8.666" cy="71.929" r="0.250"/><circle cx="9.310" cy="71.069" r="0.250"/><circle cx="10.069" cy="70.310" r="0.250"/><circle cx="10.929" cy="69.666" r="0.250"/><circle cx="11.872" cy="69.151" r="0.250"/><circle cx="12.879" cy="68.776" r="0.250"/><circle cx="13.928" cy="68.547" r="0.250"/><circle cx="15.000" cy="68.471" r="0.250"/><circle cx="16.072" cy="68.547" r="0.250"/><circle cx="17.121" cy="68.776" r="0.250"/><circle cx="18.128" cy="69.151" r="0.250"/><circle cx="19.071" cy="69.666" r="0.250"/><circle cx="19.931" cy="70.310" r="0.250"/><circle cx="20.690" cy="71.069" r="0.250"/><circle cx="21.334" cy="71.929" r="0.250"/><circle cx="21.849" cy="72.872" r="0.250"/><circle cx="22.224" cy="73.879" r="0.250"/><circle cx="22.453" cy="74.928" r="0.250"/><path d="M3.15,48.78Q9.15,52.78 2.15,55.78 M11.42,48.58Q16.42,56.58 13.42,55.58 M18.68,48.68Q24.68,56.68 18.68,55.68 M26.55,48.38Q32.55,57.38 26.55,55.38 M33.82,48.78Q39.82,56.78 32.82,55.78 M41.58,48.78Q46.58,57.78 40.58,55.78 M3.65,52.62Q5.65,57.62 5.65,59.62 M10.82,52.32Q13.82,57.32 9.82,59.32 M18.98,52.52Q24.98,57.52 20.98,59.52 M26.25,52.62Q30.25,61.62 27.25,59.62 M33.92,52.22Q35.92,57.22 35.92,59.22 M41.78,52.22Q44.78,58.22 40.78,59.22 M3.25,56.15Q8.25,63.15 2.25,63.15 M11.22,56.45Q17.22,64.45 12.22,63.45 M18.98,56.35Q24.98,62.35 17.98,63.35 M26.55,56.35Q32.55,64.35 26.55,63.35 M34.12,56.45Q37.12,60.45 34.12,63.45 M41.58,56.15Q44.58,62.15 40.58,63.15 M3.55,60.28Q6.55,64.28 5.55,67.28 M11.22,60.08Q14.22,65.08 12.22,67.08 M18.98,60.28Q21.98,64.28 19.98,67.28 M26.25,60.28Q29.25,67.28 25.25,67.28 M33.82,59.98Q38.82,66.98 35.82,66.98 M41.88,60.18Q43.88,69.18 41.88,67.18 M3.55,63.82Q9.55,68.82 2.55,70.82 M11.22,64.02Q16.22,73.02 11.22,71.02 M18.98,63.72Q20.98,72.72 19.98,70.72 M26.75,63.72Q32.75,67.72 25.75,70.72 M34.32,63.82Q39.32,70.82 35.32,70.82 M41.98,63.72Q45.98,69.72 42.98,70.72 M3.35,67.95Q5.35,71.95 2.35,74.95 M11.42,67.65Q15.42,71.65 11.42,74.65 M18.78,67.65Q24.78,73.65 18.78,74.65 M26.45,67.55Q31.45,71.55 28.45,74.55 M34.12,67.75Q39.12,71.75 34.12,74.75 M41.98,67.55Q44.98,72.55 42.98,74.55 M3.45,71.58Q7.45,77.58 2.45,78.58 M11.42,71.58Q15.42,78.58 13.42,78.58 M18.58,71.78Q22.58,78.78 20.58,78.78 M26.45,71.68Q30.45,78.68 26.45,78.68 M34.42,71.78Q37.42,80.78 36.42,78.78 M41.58,71.78Q44.58,80.78 40.58,78.78 M3.35,75.32Q7.35,84.32 5.35,82.32 M11.02,75.42Q16.02,83.42 10.02,82.42 M18.58,75.62Q23.58,84.62 17.58,82.62 M26.45,75.22Q28.45,83.22 25.45,82.22 M34.02,75.22Q39.02,83.22 36.02,82.22 M41.98,75.52Q45.98,83.52 40.98,82.52 M3.75,79.25Q7.75,85.25 2.75,86.25 M11.22,79.45Q15.22,87.45 11.22,86.45 M18.58,79.35Q20.58,83.35 19.58,86.35 M26.25,79.25Q31.25,86.25 26.25,86.25 M34.42,79.15Q38.42,83.15 34.42,86.15 M42.08,79.25Q46.08,88.25 42.08,86.25 M3.75,83.18Q6.75,92.18 4.75,90.18 M10.92,82.88Q15.92,87.88 9.92,89.88 M18.68,83.28Q24.68,88.28 19.68,90.28 M26.25,83.18Q30.25,90.18 27.25,90.18 M33.82,82.98Q35.82,89.98 35.82,89.98 M41.48,82.88Q47.48,88.88 42.48,89.88 M3.55,86.72Q5.55,93.72 2.55,93.72 M11.32,86.82Q14.32,90.82 11.32,93.82 M18.58,86.82Q21.58,94.82 18.58,93.82 M26.45,86.82Q32.45,90.82 28.45,93.82 M34.22,86.82Q40.22,94.82 35.22,93.82 M41.68,87.02Q47.68,93.02 42.68,94.02 M3.45,90.65Q8.45,98.20 4.45,97.65 M11.32,90.55Q15.32,98.20 13.32,97.55 M18.88,90.75Q24.88,94.75 18.88,97.75 M26.15,90.75Q32.15,97.75 27.15,97.75 M34.42,90.55Q40.42,95.55 36.42,97.55 M41.88,90.65Q45.88,95.65 42.88,97.65"/><path d="M40.77,78.85Q44.00,80.00 40.77,81.15 M40.77,81.15Q42.24,84.24 39.15,82.77 M39.15,82.77Q38.00,86.00 36.85,82.77 M36.85,82.77Q33.76,84.24 35.23,81.15 M35.23,81.15Q32.00,80.00 35.23,78.85 M35.23,78.85Q33.76,75.76 36.85,77.23 M36.85,77.23Q38.00,74.00 39.15,77.23 M39.15,77.23Q42.24,75.76 40.77,78.85"/><path d="M10.13,11.43Q12.50,12.00 10.13,12.57 M10.13,12.57Q11.90,14.25 9.56,13.56 M9.56,13.56Q10.25,15.90 8.57,14.13 M8.57,14.13Q8.00,16.50 7.43,14.13 M7.43,14.13Q5.75,15.90 6.44,13.56 M6.44,13.56Q4.10,14.25 5.87,12.57 M5.87,12.57Q3.50,12.00 5.87,11.43 M5.87,11.43Q4.10,9.75 6.44,10.44 M6.44,10.44Q5.75,8.10 7.43,9.87 M7.43,9.87Q8.00,7.50 8.57,9.87 M8.57,9.87Q10.25,8.10 9.56,10.44 M9.56,10.44Q11.90,9.75 10.13,11.43"/><circle cx="9.200" cy="12.000" r="0.500"/><path d="M27.13,11.43Q29.50,12.00 27.13,12.57 M27.13,12.57Q28.90,14.25 26.56,13.56 M26.56,13.56Q27.25,15.90 25.57,14.13 M25.57,14.13Q25.00,16.50 24.43,14.13 M24.43,14.13Q22.75,15.90 23.44,13.56 M23.44,13.56Q21.10,14.25 22.87,12.57 M22.87,12.57Q20.50,12.00 22.87,11.43 M22.87,11.43Q21.10,9.75 23.44,10.44 M23.44,10.44Q22.75,8.10 24.43,9.87 M24.43,9.87Q25.00,7.50 25.57,9.87 M25.57,9.87Q27.25,8.10 26.56,10.44 M26.56,10.44Q28.90,9.75 27.13,11.43"/><circle cx="26.200" cy="12.000" r="0.500"/><path d="M44.13,11.43Q46.50,12.00 44.13,12.57 M44.13,12.57Q45.90,14.25 43.56,13.56 M43.56,13.56Q44.25,15.90 42.57,14.13 M42.57,14.13Q42.00,16.50 41.43,14.13 M41.43,14.13Q39.75,15.90 40.44,13.56 M40.44,13.56Q38.10,14.25 39.87,12.57 M39.87,12.57Q37.50,12.00 39.87,11.43 M39.87,11.43Q38.10,9.75 40.44,10.44 M40.44,10.44Q39.75,8.10 41.43,9.87 M41.43,9.87Q42.00,7.50 42.57,9.87 M42.57,9.87Q44.25,8.10 43.56,10.44 M43.56,10.44Q45.90,9.75 44.13,11.43"/><circle cx="43.200" cy="12.000" r="0.500"/><path d="M10.13,33.43Q12.50,34.00 10.13,34.57 M10.13,34.57Q11.90,36.25 9.56,35.56 M9.56,35.56Q10.25,37.90 8.57,36.13 M8.57,36.13Q8.00,38.50 7.43,36.13 M7.43,36.13Q5.75,37.90 6.44,35.56 M6.44,35.56Q4.10,36.25 5.87,34.57 M5.87,34.57Q3.50,34.00 5.87,33.43 M5.87,33.43Q4.10,31.75 6.44,32.44 M6.44,32.44Q5.75,30.10 7.43,31.87 M7.43,31.87Q8.00,29.50 8.57,31.87 M8.57,31.87Q10.25,30.10 9.56,32.44 M9.56,32.44Q11.90,31.75 10.13,33.43"/><circle cx="9.200" cy="34.000" r="0.500"/><path d="M27.13,33.43Q29.50,34.00 27.13,34.57 M27.13,34.57Q28.90,36.25 26.56,35.56 M26.56,35.56Q27.25,37.90 25.57,36.13 M25.57,36.13Q25.00,38.50 24.43,36.13 M24.43,36.13Q22.75,37.90 23.44,35.56 M23.44,35.56Q21.10,36.25 22.87,34.57 M22.87,34.57Q20.50,34.00 22.87,33.43 M22.87,33.43Q21.10,31.75 23.44,32.44 M23.44,32.44Q22.75,30.10 24.43,31.87 M24.43,31.87Q25.00,29.50 25.57,31.87 M25.57,31.87Q27.25,30.10 26.56,32.44 M26.56,32.44Q28.90,31.75 27.13,33.43"/><circle cx="26.200" cy="34.000" r="0.500"/>
  </g>
  <g id="cut-outline" fill="none" stroke-linecap="square" stroke-linejoin="miter">
    <rect x="0.000" y="0.000" width="50.000" height="100.000" fill="none" stroke="#ff0000" stroke-width="0.35"/><circle cx="25.000" cy="4.000" r="1.750" fill="none" stroke="#ff0000" stroke-width="0.35"/>
  </g>
</svg>
