<?xml version="1.0" encoding="UTF-8"?>
<svg xmlns="http://www.w3.org/2000/svg"
     width="50.000mm" height="100.000mm"
     viewBox="0 0 50.000 100.000">
  <title>Zentangle bookmark 03 — MeerK40t</title>
  <defs>
    <clipPath id="clip-inner">
      <rect x="0.750" y="0.750" width="48.500" height="98.500"/>
    </clipPath>
  </defs>
  <g id="engrave-art" fill="none" stroke="#0000ff" stroke-width="0.15"
     stroke-linecap="round" stroke-linejoin="round" clip-path="url(#clip-inner)">
    <circle cx="27.353" cy="50.000" r="0.370"/><circle cx="26.664" cy="51.664" r="0.370"/><circle cx="25.000" cy="52.353" r="0.370"/><circle cx="23.336" cy="51.664" r="0.370"/><circle cx="22.647" cy="50.000" r="0.370"/><circle cx="23.336" cy="48.336" r="0.370"/><circle cx="25.000" cy="47.647" r="0.370"/><circle cx="26.664" cy="48.336" r="0.370"/><circle cx="29.706" cy="50.000" r="0.390"/><circle cx="28.807" cy="52.766" r="0.390"/><circle cx="26.454" cy="54.476" r="0.390"/><circle cx="23.546" cy="54.476" r="0.390"/><circle cx="21.193" cy="52.766" r="0.390"/><circle cx="20.294" cy="50.000" r="0.390"/><circle cx="21.193" cy="47.234" r="0.390"/><circle cx="23.546" cy="45.524" r="0.390"/><circle cx="26.454" cy="45.524" r="0.390"/><circle cx="28.807" cy="47.234" r="0.390"/><circle cx="32.059" cy="50.000" r="0.410"/><circle cx="31.113" cy="53.529" r="0.410"/><circle cx="28.529" cy="56.113" r="0.410"/><circle cx="25.000" cy="57.059" r="0.410"/><circle cx="21.471" cy="56.113" r="0.410"/><circle cx="18.887" cy="53.529" r="0.410"/><circle cx="17.941" cy="50.000" r="0.410"/><circle cx="18.887" cy="46.471" r="0.410"/><circle cx="21.471" cy="43.887" r="0.410"/><circle cx="25.000" cy="42.941" r="0.410"/><circle cx="28.529" cy="43.887" r="0.410"/><circle cx="31.113" cy="46.471" r="0.410"/><circle cx="34.412" cy="50.000" r="0.430"/><circle cx="33.480" cy="54.084" r="0.430"/><circle cx="30.868" cy="57.358" r="0.430"/><circle cx="27.094" cy="59.176" r="0.430"/><circle cx="22.906" cy="59.176" r="0.430"/><circle cx="19.132" cy="57.358" r="0.430"/><circle cx="16.520" cy="54.084" r="0.430"/><circle cx="15.588" cy="50.000" r="0.430"/><circle cx="16.520" cy="45.916" r="0.430"/><circle cx="19.132" cy="42.642" r="0.430"/><circle cx="22.906" cy="40.824" r="0.430"/><circle cx="27.094" cy="40.824" r="0.430"/><circle cx="30.868" cy="42.642" r="0.430"/><circle cx="33.480" cy="45.916" r="0.430"/><circle cx="36.765" cy="50.000" r="0.450"/><circle cx="35.869" cy="54.502" r="0.450"/><circle cx="33.319" cy="58.319" r="0.450"/><circle cx="29.502" cy="60.869" r="0.450"/><circle cx="25.000" cy="61.765" r="0.450"/><circle cx="20.498" cy="60.869" r="0.450"/><circle cx="16.681" cy="58.319" r="0.450"/><circle cx="14.131" cy="54.502" r="0.450"/><circle cx="13.235" cy="50.000" r="0.450"/><circle cx="14.131" cy="45.498" r="0.450"/><circle cx="16.681" cy="41.681" r="0.450"/><circle cx="20.498" cy="39.131" r="0.450"/><circle cx="25.000" cy="38.235" r="0.450"/><circle cx="29.502" cy="39.131" r="0.450"/><circle cx="33.319" cy="41.681" r="0.450"/><circle cx="35.869" cy="45.498" r="0.450"/><circle cx="39.118" cy="50.000" r="0.470"/><circle cx="38.266" cy="54.829" r="0.470"/><circle cx="35.815" cy="59.075" r="0.470"/><circle cx="32.059" cy="62.226" r="0.470"/><circle cx="27.452" cy="63.903" r="0.470"/><circle cx="22.548" cy="63.903" r="0.470"/><circle cx="17.941" cy="62.226" r="0.470"/><circle cx="14.185" cy="59.075" r="0.470"/><circle cx="11.734" cy="54.829" r="0.470"/><circle cx="10.882" cy="50.000" r="0.470"/><circle cx="11.734" cy="45.171" r="0.470"/><circle cx="14.185" cy="40.925" r="0.470"/><circle cx="17.941" cy="37.774" r="0.470"/><circle cx="22.548" cy="36.097" r="0.470"/><circle cx="27.452" cy="36.097" r="0.470"/><circle cx="32.059" cy="37.774" r="0.470"/><circle cx="35.815" cy="40.925" r="0.470"/><circle cx="38.266" cy="45.171" r="0.470"/><circle cx="41.471" cy="50.000" r="0.490"/><circle cx="40.664" cy="55.090" r="0.490"/><circle cx="38.325" cy="59.681" r="0.490"/><circle cx="34.681" cy="63.325" r="0.490"/><circle cx="30.090" cy="65.664" r="0.490"/><circle cx="25.000" cy="66.471" r="0.490"/><circle cx="19.910" cy="65.664" r="0.490"/><circle cx="15.319" cy="63.325" r="0.490"/><circle cx="11.675" cy="59.681" r="0.490"/><circle cx="9.336" cy="55.090" r="0.490"/><circle cx="8.529" cy="50.000" r="0.490"/><circle cx="9.336" cy="44.910" r="0.490"/><circle cx="11.675" cy="40.319" r="0.490"/><circle cx="15.319" cy="36.675" r="0.490"/><circle cx="19.910" cy="34.336" r="0.490"/><circle cx="25.000" cy="33.529" r="0.490"/><circle cx="30.090" cy="34.336" r="0.490"/><circle cx="34.681" cy="36.675" r="0.490"/><circle cx="38.325" cy="40.319" r="0.490"/><circle cx="40.664" cy="44.910" r="0.490"/><circle cx="43.824" cy="50.000" r="0.510"/><circle cx="43.061" cy="55.303" r="0.510"/><circle cx="40.835" cy="60.177" r="0.510"/><circle cx="37.327" cy="64.226" r="0.510"/><circle cx="32.820" cy="67.122" r="0.510"/><circle cx="27.679" cy="68.632" r="0.510"/><circle cx="22.321" cy="68.632" r="0.510"/><circle cx="17.180" cy="67.122" r="0.510"/><circle cx="12.673" cy="64.226" r="0.510"/><circle cx="9.165" cy="60.177" r="0.510"/><circle cx="6.939" cy="55.303" r="0.510"/><circle cx="6.176" cy="50.000" r="0.510"/><circle cx="6.939" cy="44.697" r="0.510"/><circle cx="9.165" cy="39.823" r="0.510"/><circle cx="12.673" cy="35.774" r="0.510"/><circle cx="17.180" cy="32.878" r="0.510"/><circle cx="22.321" cy="31.368" r="0.510"/><circle cx="27.679" cy="31.368" r="0.510"/><circle cx="32.820" cy="32.878" r="0.510"/><circle cx="37.327" cy="35.774" r="0.510"/><circle cx="40.835" cy="39.823" r="0.510"/><circle cx="43.061" cy="44.697" r="0.510"/><circle cx="43.000" cy="50.000" r="0.280"/><circle cx="42.654" cy="53.512" r="0.280"/><circle cx="41.630" cy="56.888" r="0.280"/><circle cx="39.966" cy="60.000" r="0.280"/><circle cx="37.728" cy="62.728" r="0.280"/><circle cx="35.000" cy="64.966" r="0.280"/><circle cx="31.888" cy="66.630" r="0.280"/><circle cx="28.512" cy="67.654" r="0.280"/><circle cx="25.000" cy="68.000" r="0.280"/><circle cx="21.488" cy="67.654" r="0.280"/><circle cx="18.112" cy="66.630" r="0.280"/><circle cx="15.000" cy="64.966" r="0.280"/><circle cx="12.272" cy="62.728" r="0.280"/><circle cx="10.034" cy="60.000" r="0.280"/><circle cx="8.370" cy="56.888" r="0.280"/><circle cx="7.346" cy="53.512" r="0.280"/><circle cx="7.000" cy="50.000" r="0.280"/><circle cx="7.346" cy="46.488" r="0.280"/><circle cx="8.370" cy="43.112" r="0.280"/><circle cx="10.034" cy="40.000" r="0.280"/><circle cx="12.272" cy="37.272" r="0.280"/><circle cx="15.000" cy="35.034" r="0.280"/><circle cx="18.112" cy="33.370" r="0.280"/><circle cx="21.488" cy="32.346" r="0.280"/><circle cx="25.000" cy="32.000" r="0.280"/><circle cx="28.512" cy="32.346" r="0.280"/><circle cx="31.888" cy="33.370" r="0.280"/><circle cx="35.000" cy="35.034" r="0.280"/><circle cx="37.728" cy="37.272" r="0.280"/><circle cx="39.966" cy="40.000" r="0.280"/><circle cx="41.630" cy="43.112" r="0.280"/><circle cx="42.654" cy="46.488" r="0.280"/><path d="M40.80,47.50Q44.00,50.00 40.80,52.50 M40.80,52.50Q43.07,55.87 39.26,57.26 M39.26,57.26Q40.37,61.17 36.31,61.31 M36.31,61.31Q36.17,65.37 32.26,64.26 M32.26,64.26Q30.87,68.07 27.50,65.80 M27.50,65.80Q25.00,69.00 22.50,65.80 M22.50,65.80Q19.13,68.07 17.74,64.26 M17.74,64.26Q13.83,65.37 13.69,61.31 M13.69,61.31Q9.63,61.17 10.74,57.26 M10.74,57.26Q6.93,55.87 9.20,52.50 M9.20,52.50Q6.00,50.00 9.20,47.50 M9.20,47.50Q6.93,44.13 10.74,42.74 M10.74,42.74Q9.63,38.83 13.69,38.69 M13.69,38.69Q13.83,34.63 17.74,35.74 M17.74,35.74Q19.13,31.93 22.50,34.20 M22.50,34.20Q25.00,31.00 27.50,34.20 M27.50,34.20Q30.87,31.93 32.26,35.74 M32.26,35.74Q36.17,34.63 36.31,38.69 M36.31,38.69Q40.37,38.83 39.26,42.74 M39.26,42.74Q43.07,44.13 40.80,47.50"/><path d="M3.35,2.18Q8.35,10.18 3.35,9.18 M11.22,2.48Q14.22,8.48 10.22,9.48 M19.08,2.58Q24.08,8.58 21.08,9.58 M26.25,2.28Q31.25,6.28 27.25,9.28 M34.22,2.28Q37.22,9.28 34.22,9.28 M41.98,2.18Q44.98,6.18 40.98,9.18 M3.65,4.22Q6.65,9.22 5.65,11.22 M11.12,4.32Q16.12,9.32 11.12,11.32 M18.68,4.12Q23.68,13.12 20.68,11.12 M26.65,4.42Q31.65,13.42 26.65,11.42 M33.82,4.12Q36.82,11.12 35.82,11.12 M41.58,4.32Q46.58,9.32 42.58,11.32 M3.75,6.05Q6.75,14.05 3.75,13.05 M11.22,6.15Q13.22,11.15 12.22,13.15 M18.98,5.95Q22.98,9.95 19.98,12.95 M26.35,5.85Q30.35,11.85 25.35,12.85 M34.12,6.25Q39.12,14.25 34.12,13.25 M41.78,6.05Q47.78,14.05 40.78,13.05 M3.25,7.78Q8.25,11.78 4.25,14.78 M10.82,7.98Q15.82,11.98 9.82,14.98 M18.78,7.78Q24.78,12.78 18.78,14.78 M26.75,7.78Q32.75,15.78 27.75,14.78 M34.02,7.78Q39.02,12.78 35.02,14.78 M41.68,7.98Q44.68,12.98 40.68,14.98 M3.55,9.62Q7.55,18.62 5.55,16.62 M10.92,9.72Q13.92,18.72 9.92,16.72 M18.48,9.52Q21.48,14.52 19.48,16.52 M26.35,9.52Q29.35,14.52 28.35,16.52 M34.42,9.62Q38.42,17.62 34.42,16.62 M41.98,9.72Q46.98,16.72 40.98,16.72 M3.45,11.55Q5.45,15.55 3.45,18.55 M11.02,11.45Q15.02,19.45 13.02,18.45 M18.68,11.55Q22.68,15.55 18.68,18.55 M26.25,11.45Q30.25,15.45 28.25,18.45 M34.02,11.75Q37.02,15.75 34.02,18.75 M41.78,11.35Q46.78,15.35 41.78,18.35 M3.55,13.58Q5.55,22.58 2.55,20.58 M11.02,13.28Q16.02,19.28 13.02,20.28 M18.58,13.18Q21.58,20.18 17.58,20.18 M26.25,13.58Q29.25,20.58 28.25,20.58 M34.12,13.38Q36.12,18.38 35.12,20.38 M41.98,13.38Q44.98,18.38 43.98,20.38 M3.35,15.02Q5.35,24.02 5.35,22.02 M11.32,15.02Q16.32,24.02 10.32,22.02 M18.98,15.42Q24.98,23.42 20.98,22.42 M26.35,15.42Q28.35,22.42 25.35,22.42 M34.22,15.32Q36.22,23.32 35.22,22.32 M41.68,15.22Q43.68,23.22 41.68,22.22 M3.15,17.25Q8.15,23.25 5.15,24.25 M11.12,16.85Q17.12,20.85 11.12,23.85 M18.58,17.25Q24.58,21.25 19.58,24.25 M26.55,17.25Q30.55,23.25 26.55,24.25 M33.82,16.95Q39.82,21.95 34.82,23.95 M41.68,17.15Q45.68,21.15 43.68,24.15 M3.35,18.68Q9.35,23.68 2.35,25.68 M11.42,19.08Q13.42,24.08 11.42,26.08 M18.48,19.08Q20.48,26.08 17.48,26.08 M26.45,18.88Q30.45,23.88 25.45,25.88 M34.22,19.08Q38.22,24.08 33.22,26.08 M41.68,18.88Q44.68,27.88 43.68,25.88 M3.35,20.62Q8.35,28.62 3.35,27.62 M10.82,20.72Q14.82,29.72 12.82,27.72 M18.98,20.52Q20.98,24.52 20.98,27.52 M26.15,20.82Q28.15,26.82 27.15,27.82 M34.02,20.92Q37.02,24.92 33.02,27.92 M41.78,20.52Q46.78,24.52 42.78,27.52 M3.45,22.45Q7.45,26.45 4.45,29.45 M11.22,22.35Q14.22,30.35 13.22,29.35 M18.78,22.45Q22.78,31.45 20.78,29.45 M26.65,22.75Q29.65,30.75 26.65,29.75 M34.22,22.55Q36.22,31.55 33.22,29.55 M41.78,22.35Q44.78,31.35 41.78,29.35"/><path d="M3.45,74.48Q9.45,79.48 2.45,81.48 M11.22,74.38Q16.22,82.38 12.22,81.38 M18.48,74.48Q24.48,79.48 20.48,81.48 M26.35,74.18Q28.35,78.18 27.35,81.18 M33.92,74.18Q35.92,80.18 34.92,81.18 M42.08,74.28Q44.08,81.28 42.08,81.28 M3.55,76.42Q9.55,81.42 5.55,83.42 M11.02,76.32Q14.02,80.32 13.02,83.32 M18.78,76.32Q24.78,82.32 18.78,83.32 M26.25,76.12Q28.25,81.12 25.25,83.12 M34.12,76.12Q40.12,80.12 36.12,83.12 M41.98,76.42Q46.98,81.42 43.98,83.42 M3.65,78.05Q9.65,85.05 2.65,85.05 M11.12,77.85Q16.12,83.85 13.12,84.85 M19.08,77.95Q23.08,85.95 19.08,84.95 M26.15,78.25Q29.15,87.25 26.15,85.25 M34.22,77.95Q36.22,86.95 33.22,84.95 M41.78,77.95Q45.78,85.95 42.78,84.95 M3.55,80.08Q5.55,85.08 2.55,87.08 M11.32,79.98Q16.32,83.98 13.32,86.98 M18.58,79.88Q23.58,85.88 20.58,86.88 M26.65,79.88Q30.65,88.88 28.65,86.88 M34.12,80.08Q40.12,89.08 34.12,87.08 M41.58,79.88Q47.58,83.88 42.58,86.88 M3.65,81.82Q6.65,89.82 5.65,88.82 M10.92,81.82Q13.92,90.82 11.92,88.82 M18.68,81.72Q24.68,89.72 19.68,88.72 M26.15,81.82Q31.15,88.82 26.15,88.82 M34.22,81.52Q40.22,90.52 35.22,88.52 M41.88,81.62Q45.88,87.62 43.88,88.62 M3.25,83.35Q5.25,87.35 3.25,90.35 M10.82,83.75Q14.82,88.75 11.82,90.75 M18.98,83.35Q21.98,92.35 20.98,90.35 M26.75,83.45Q32.75,91.45 25.75,90.45 M34.32,83.35Q40.32,90.35 33.32,90.35 M41.68,83.35Q47.68,89.35 42.68,90.35 M3.25,85.18Q9.25,93.18 4.25,92.18 M11.32,85.38Q13.32,94.38 11.32,92.38 M18.48,85.28Q23.48,92.28 19.48,92.28 M26.15,85.38Q30.15,91.38 25.15,92.38 M34.22,85.58Q37.22,89.58 36.22,92.58 M41.48,85.58Q44.48,92.58 42.48,92.58 M3.25,87.02Q8.25,93.02 2.25,94.02 M11.22,87.02Q17.22,92.02 12.22,94.02 M18.68,87.32Q22.68,92.32 20.68,94.32 M26.65,87.42Q29.65,95.42 27.65,94.42 M34.32,87.42Q37.32,95.42 36.32,94.42 M41.98,87.02Q47.98,96.02 41.98,94.02 M3.55,89.05Q5.55,96.05 3.55,96.05 M11.42,89.15Q14.42,97.15 12.42,96.15 M18.48,88.85Q23.48,95.85 17.48,95.85 M26.15,89.25Q32.15,97.25 25.15,96.25 M34.22,89.25Q37.22,97.25 34.22,96.25 M41.48,88.95Q44.48,93.95 42.48,95.95 M3.75,90.88Q7.75,97.88 4.75,97.88 M10.82,90.88Q14.82,98.20 10.82,97.88 M19.08,90.88Q24.08,98.20 21.08,97.88 M26.45,90.78Q31.45,97.78 26.45,97.78 M33.92,90.78Q39.92,98.20 32.92,97.78 M41.78,90.78Q45.78,97.78 42.78,97.78 M3.35,92.82Q8.35,97.82 2.35,99.20 M10.92,92.72Q16.92,98.20 9.92,99.20 M19.08,92.82Q23.08,98.20 19.08,99.20 M26.45,92.82Q30.45,98.20 25.45,99.20 M33.92,92.82Q37.92,97.82 34.92,99.20 M42.08,92.52Q48.08,98.20 44.08,99.20 M3.45,94.20Q7.45,98.20 4.45,99.20 M11.02,94.20Q14.02,98.20 12.02,99.20 M19.08,94.20Q22.08,98.20 21.08,99.20 M26.45,94.20Q30.45,98.20 26.45,99.20 M34.12,94.20Q38.12,98.20 34.12,99.20 M42.08,94.20Q47.08,98.20 42.08,99.20"/><path d="M48.73,49.00Q51.00,50.00 48.73,51.00 M48.73,51.00Q49.00,53.46 47.00,52.00 M47.00,52.00Q45.00,53.46 45.27,51.00 M45.27,51.00Q43.00,50.00 45.27,49.00 M45.27,49.00Q45.00,46.54 47.00,48.00 M47.00,48.00Q49.00,46.54 48.73,49.00"/><path d="M42.29,64.56Q44.56,65.56 42.29,66.56 M42.29,66.56Q42.56,69.02 40.56,67.56 M40.56,67.56Q38.56,69.02 38.82,66.56 M38.82,66.56Q36.56,65.56 38.82,64.56 M38.82,64.56Q38.56,62.09 40.56,63.56 M40.56,63.56Q42.56,62.09 42.29,64.56"/><path d="M26.73,71.00Q29.00,72.00 26.73,73.00 M26.73,73.00Q27.00,75.46 25.00,74.00 M25.00,74.00Q23.00,75.46 23.27,73.00 M23.27,73.00Q21.00,72.00 23.27,71.00 M23.27,71.00Q23.00,68.54 25.00,70.00 M25.00,70.00Q27.00,68.54 26.73,71.00"/><path d="M11.18,64.56Q13.44,65.56 11.18,66.56 M11.18,66.56Q11.44,69.02 9.44,67.56 M9.44,67.56Q7.44,69.02 7.71,66.56 M7.71,66.56Q5.44,65.56 7.71,64.56 M7.71,64.56Q7.44,62.09 9.44,63.56 M9.44,63.56Q11.44,62.09 11.18,64.56"/><path d="M4.73,49.00Q7.00,50.00 4.73,51.00 M4.73,51.00Q5.00,53.46 3.00,52.00 M3.00,52.00Q1.00,53.46 1.27,51.00 M1.27,51.00Q-1.00,50.00 1.27,49.00 M1.27,49.00Q1.00,46.54 3.00,48.00 M3.00,48.00Q5.00,46.54 4.73,49.00"/><path d="M11.18,33.44Q13.44,34.44 11.18,35.44 M11.18,35.44Q11.44,37.91 9.44,36.44 M9.44,36.44Q7.44,37.91 7.71,35.44 M7.71,35.44Q5.44,34.44 7.71,33.44 M7.71,33.44Q7.44,30.98 9.44,32.44 M9.44,32.44Q11.44,30.98 11.18,33.44"/><path d="M26.73,27.00Q29.00,28.00 26.73,29.00 M26.73,29.00Q27.00,31.46 25.00,30.00 M25.00,30.00Q23.00,31.46 23.27,29.00 M23.27,29.00Q21.00,28.00 23.27,27.00 M23.27,27.00Q23.00,24.54 25.00,26.00 M25.00,26.00Q27.00,24.54 26.73,27.00"/><path d="M42.29,33.44Q44.56,34.44 42.29,35.44 M42.29,35.44Q42.56,37.91 40.56,36.44 M40.56,36.44Q38.56,37.91 38.82,35.44 M38.82,35.44Q36.56,34.44 38.82,33.44 M38.82,33.44Q38.56,30.98 40.56,32.44 M40.56,32.44Q42.56,30.98 42.29,33.44"/>
  </g>
  <g id="cut-outline" fill="none" stroke-linecap="square" stroke-linejoin="miter">
    <rect x="0.000" y="0.000" width="50.000" height="100.000" fill="none" stroke="#ff0000" stroke-width="0.35"/><circle cx="25.000" cy="4.000" r="1.750" fill="none" stroke="#ff0000" stroke-width="0.35"/>
  </g>
</svg>
