<?xml version="1.0" encoding="UTF-8"?>
<svg xmlns="http://www.w3.org/2000/svg"
     width="50.000mm" height="100.000mm"
     viewBox="0 0 50.000 100.000">
  <title>Zentangle bookmark 04 — MeerK40t</title>
  <defs>
    <clipPath id="clip-inner">
      <rect x="0.750" y="0.750" width="48.500" height="98.500"/>
    </clipPath>
  </defs>
  <g id="engrave-art" fill="none" stroke="#0000ff" stroke-width="0.15"
     stroke-linecap="round" stroke-linejoin="round" clip-path="url(#clip-inner)">
    <path d="M25.00,50.00L29.40,50.00M25.00,50.00L46.81,52.87 M25.00,50.00L29.25,51.14M25.00,50.00L45.33,58.42 M25.00,50.00L28.81,52.20M25.00,50.00L42.45,63.39 M25.00,50.00L28.11,53.11M25.00,50.00L38.39,67.45 M25.00,50.00L27.20,53.81M25.00,50.00L33.42,70.33 M25.00,50.00L26.14,54.25M25.00,50.00L27.87,71.81 M25.00,50.00L25.00,54.40M25.00,50.00L22.13,71.81 M25.00,50.00L23.86,54.25M25.00,50.00L16.58,70.33 M25.00,50.00L22.80,53.81M25.00,50.00L11.61,67.45 M25.00,50.00L21.89,53.11M25.00,50.00L7.55,63.39 M25.00,50.00L21.19,52.20M25.00,50.00L4.67,58.42 M25.00,50.00L20.75,51.14M25.00,50.00L3.19,52.87 M25.00,50.00L20.60,50.00M25.00,50.00L3.19,47.13 M25.00,50.00L20.75,48.86M25.00,50.00L4.67,41.58 M25.00,50.00L21.19,47.80M25.00,50.00L7.55,36.61 M25.00,50.00L21.89,46.89M25.00,50.00L11.61,32.55 M25.00,50.00L22.80,46.19M25.00,50.00L16.58,29.67 M25.00,50.00L23.86,45.75M25.00,50.00L22.13,28.19 M25.00,50.00L25.00,45.60M25.00,50.00L27.87,28.19 M25.00,50.00L26.14,45.75M25.00,50.00L33.42,29.67 M25.00,50.00L27.20,46.19M25.00,50.00L38.39,32.55 M25.00,50.00L28.11,46.89M25.00,50.00L42.45,36.61 M25.00,50.00L28.81,47.80M25.00,50.00L45.33,41.58 M25.00,50.00L29.25,48.86M25.00,50.00L46.81,47.13"/><circle cx="25.941" cy="50.000" r="0.250"/><circle cx="25.870" cy="50.360" r="0.250"/><circle cx="25.666" cy="50.666" r="0.250"/><circle cx="25.360" cy="50.870" r="0.250"/><circle cx="25.000" cy="50.941" r="0.250"/><circle cx="24.640" cy="50.870" r="0.250"/><circle cx="24.334" cy="50.666" r="0.250"/><circle cx="24.130" cy="50.360" r="0.250"/><circle cx="24.059" cy="50.000" r="0.250"/><circle cx="24.130" cy="49.640" r="0.250"/><circle cx="24.334" cy="49.334" r="0.250"/><circle cx="24.640" cy="49.130" r="0.250"/><circle cx="25.000" cy="49.059" r="0.250"/><circle cx="25.360" cy="49.130" r="0.250"/><circle cx="25.666" cy="49.334" r="0.250"/><circle cx="25.870" cy="49.640" r="0.250"/><circle cx="26.882" cy="50.000" r="0.250"/><circle cx="26.790" cy="50.582" r="0.250"/><circle cx="26.523" cy="51.106" r="0.250"/><circle cx="26.106" cy="51.523" r="0.250"/><circle cx="25.582" cy="51.790" r="0.250"/><circle cx="25.000" cy="51.882" r="0.250"/><circle cx="24.418" cy="51.790" r="0.250"/><circle cx="23.894" cy="51.523" r="0.250"/><circle cx="23.477" cy="51.106" r="0.250"/><circle cx="23.210" cy="50.582" r="0.250"/><circle cx="23.118" cy="50.000" r="0.250"/><circle cx="23.210" cy="49.418" r="0.250"/><circle cx="23.477" cy="48.894" r="0.250"/><circle cx="23.894" cy="48.477" r="0.250"/><circle cx="24.418" cy="48.210" r="0.250"/><circle cx="25.000" cy="48.118" r="0.250"/><circle cx="25.582" cy="48.210" r="0.250"/><circle cx="26.106" cy="48.477" r="0.250"/><circle cx="26.523" cy="48.894" r="0.250"/><circle cx="26.790" cy="49.418" r="0.250"/><circle cx="27.824" cy="50.000" r="0.250"/><circle cx="27.727" cy="50.731" r="0.250"/><circle cx="27.445" cy="51.412" r="0.250"/><circle cx="26.997" cy="51.997" r="0.250"/><circle cx="26.412" cy="52.445" r="0.250"/><circle cx="25.731" cy="52.727" r="0.250"/><circle cx="25.000" cy="52.824" r="0.250"/><circle cx="24.269" cy="52.727" r="0.250"/><circle cx="23.588" cy="52.445" r="0.250"/><circle cx="23.003" cy="51.997" r="0.250"/><circle cx="22.555" cy="51.412" r="0.250"/><circle cx="22.273" cy="50.731" r="0.250"/><circle cx="22.176" cy="50.000" r="0.250"/><circle cx="22.273" cy="49.269" r="0.250"/><circle cx="22.555" cy="48.588" r="0.250"/><circle cx="23.003" cy="48.003" r="0.250"/><circle cx="23.588" cy="47.555" r="0.250"/><circle cx="24.269" cy="47.273" r="0.250"/><circle cx="25.000" cy="47.176" r="0.250"/><circle cx="25.731" cy="47.273" r="0.250"/><circle cx="26.412" cy="47.555" r="0.250"/><circle cx="26.997" cy="48.003" r="0.250"/><circle cx="27.445" cy="48.588" r="0.250"/><circle cx="27.727" cy="49.269" r="0.250"/><circle cx="28.765" cy="50.000" r="0.250"/><circle cx="28.670" cy="50.838" r="0.250"/><circle cx="28.392" cy="51.633" r="0.250"/><circle cx="27.943" cy="52.347" r="0.250"/><circle cx="27.347" cy="52.943" r="0.250"/><circle cx="26.633" cy="53.392" r="0.250"/><circle cx="25.838" cy="53.670" r="0.250"/><circle cx="25.000" cy="53.765" r="0.250"/><circle cx="24.162" cy="53.670" r="0.250"/><circle cx="23.367" cy="53.392" r="0.250"/><circle cx="22.653" cy="52.943" r="0.250"/><circle cx="22.057" cy="52.347" r="0.250"/><circle cx="21.608" cy="51.633" r="0.250"/><circle cx="21.330" cy="50.838" r="0.250"/><circle cx="21.235" cy="50.000" r="0.250"/><circle cx="21.330" cy="49.162" r="0.250"/><circle cx="21.608" cy="48.367" r="0.250"/><circle cx="22.057" cy="47.653" r="0.250"/><circle cx="22.653" cy="47.057" r="0.250"/><circle cx="23.367" cy="46.608" r="0.250"/><circle cx="24.162" cy="46.330" r="0.250"/><circle cx="25.000" cy="46.235" r="0.250"/><circle cx="25.838" cy="46.330" r="0.250"/><circle cx="26.633" cy="46.608" r="0.250"/><circle cx="27.347" cy="47.057" r="0.250"/><circle cx="27.943" cy="47.653" r="0.250"/><circle cx="28.392" cy="48.367" r="0.250"/><circle cx="28.670" cy="49.162" r="0.250"/><circle cx="29.706" cy="50.000" r="0.250"/><circle cx="29.615" cy="50.918" r="0.250"/><circle cx="29.348" cy="51.801" r="0.250"/><circle cx="28.913" cy="52.614" r="0.250"/><circle cx="28.328" cy="53.328" r="0.250"/><circle cx="27.614" cy="53.913" r="0.250"/><circle cx="26.801" cy="54.348" r="0.250"/><circle cx="25.918" cy="54.615" r="0.250"/><circle cx="25.000" cy="54.706" r="0.250"/><circle cx="24.082" cy="54.615" r="0.250"/><circle cx="23.199" cy="54.348" r="0.250"/><circle cx="22.386" cy="53.913" r="0.250"/><circle cx="21.672" cy="53.328" r="0.250"/><circle cx="21.087" cy="52.614" r="0.250"/><circle cx="20.652" cy="51.801" r="0.250"/><circle cx="20.385" cy="50.918" r="0.250"/><circle cx="20.294" cy="50.000" r="0.250"/><circle cx="20.385" cy="49.082" r="0.250"/><circle cx="20.652" cy="48.199" r="0.250"/><circle cx="21.087" cy="47.386" r="0.250"/><circle cx="21.672" cy="46.672" r="0.250"/><circle cx="22.386" cy="46.087" r="0.250"/><circle cx="23.199" cy="45.652" r="0.250"/><circle cx="24.082" cy="45.385" r="0.250"/><circle cx="25.000" cy="45.294" r="0.250"/><circle cx="25.918" cy="45.385" r="0.250"/><circle cx="26.801" cy="45.652" r="0.250"/><circle cx="27.614" cy="46.087" r="0.250"/><circle cx="28.328" cy="46.672" r="0.250"/><circle cx="28.913" cy="47.386" r="0.250"/><circle cx="29.348" cy="48.199" r="0.250"/><circle cx="29.615" cy="49.082" r="0.250"/><circle cx="30.647" cy="50.000" r="0.250"/><circle cx="30.561" cy="50.981" r="0.250"/><circle cx="30.306" cy="51.931" r="0.250"/><circle cx="29.890" cy="52.824" r="0.250"/><circle cx="29.326" cy="53.630" r="0.250"/><circle cx="28.630" cy="54.326" r="0.250"/><circle cx="27.824" cy="54.890" r="0.250"/><circle cx="26.931" cy="55.306" r="0.250"/><circle cx="25.981" cy="55.561" r="0.250"/><circle cx="25.000" cy="55.647" r="0.250"/><circle cx="24.019" cy="55.561" r="0.250"/><circle cx="23.069" cy="55.306" r="0.250"/><circle cx="22.176" cy="54.890" r="0.250"/><circle cx="21.370" cy="54.326" r="0.250"/><circle cx="20.674" cy="53.630" r="0.250"/><circle cx="20.110" cy="52.824" r="0.250"/><circle cx="19.694" cy="51.931" r="0.250"/><circle cx="19.439" cy="50.981" r="0.250"/><circle cx="19.353" cy="50.000" r="0.250"/><circle cx="19.439" cy="49.019" r="0.250"/><circle cx="19.694" cy="48.069" r="0.250"/><circle cx="20.110" cy="47.176" r="0.250"/><circle cx="20.674" cy="46.370" r="0.250"/><circle cx="21.370" cy="45.674" r="0.250"/><circle cx="22.176" cy="45.110" r="0.250"/><circle cx="23.069" cy="44.694" r="0.250"/><circle cx="24.019" cy="44.439" r="0.250"/><circle cx="25.000" cy="44.353" r="0.250"/><circle cx="25.981" cy="44.439" r="0.250"/><circle cx="26.931" cy="44.694" r="0.250"/><circle cx="27.824" cy="45.110" r="0.250"/><circle cx="28.630" cy="45.674" r="0.250"/><circle cx="29.326" cy="46.370" r="0.250"/><circle cx="29.890" cy="47.176" r="0.250"/><circle cx="30.306" cy="48.069" r="0.250"/><circle cx="30.561" cy="49.019" r="0.250"/><circle cx="31.588" cy="50.000" r="0.250"/><circle cx="31.507" cy="51.031" r="0.250"/><circle cx="31.266" cy="52.036" r="0.250"/><circle cx="30.870" cy="52.991" r="0.250"/><circle cx="30.330" cy="53.872" r="0.250"/><circle cx="29.659" cy="54.659" r="0.250"/><circle cx="28.872" cy="55.330" r="0.250"/><circle cx="27.991" cy="55.870" r="0.250"/><circle cx="27.036" cy="56.266" r="0.250"/><circle cx="26.031" cy="56.507" r="0.250"/><circle cx="25.000" cy="56.588" r="0.250"/><circle cx="23.969" cy="56.507" r="0.250"/><circle cx="22.964" cy="56.266" r="0.250"/><circle cx="22.009" cy="55.870" r="0.250"/><circle cx="21.128" cy="55.330" r="0.250"/><circle cx="20.341" cy="54.659" r="0.250"/><circle cx="19.670" cy="53.872" r="0.250"/><circle cx="19.130" cy="52.991" r="0.250"/><circle cx="18.734" cy="52.036" r="0.250"/><circle cx="18.493" cy="51.031" r="0.250"/><circle cx="18.412" cy="50.000" r="0.250"/><circle cx="18.493" cy="48.969" r="0.250"/><circle cx="18.734" cy="47.964" r="0.250"/><circle cx="19.130" cy="47.009" r="0.250"/><circle cx="19.670" cy="46.128" r="0.250"/><circle cx="20.341" cy="45.341" r="0.250"/><circle cx="21.128" cy="44.670" r="0.250"/><circle cx="22.009" cy="44.130" r="0.250"/><circle cx="22.964" cy="43.734" r="0.250"/><circle cx="23.969" cy="43.493" r="0.250"/><circle cx="25.000" cy="43.412" r="0.250"/><circle cx="26.031" cy="43.493" r="0.250"/><circle cx="27.036" cy="43.734" r="0.250"/><circle cx="27.991" cy="44.130" r="0.250"/><circle cx="28.872" cy="44.670" r="0.250"/><circle cx="29.659" cy="45.341" r="0.250"/><circle cx="30.330" cy="46.128" r="0.250"/><circle cx="30.870" cy="47.009" r="0.250"/><circle cx="31.266" cy="47.964" r="0.250"/><circle cx="31.507" cy="48.969" r="0.250"/><circle cx="32.529" cy="50.000" r="0.250"/><circle cx="32.453" cy="51.072" r="0.250"/><circle cx="32.224" cy="52.121" r="0.250"/><circle cx="31.849" cy="53.128" r="0.250"/><circle cx="31.334" cy="54.071" r="0.250"/><circle cx="30.690" cy="54.931" r="0.250"/><circle cx="29.931" cy="55.690" r="0.250"/><circle cx="29.071" cy="56.334" r="0.250"/><circle cx="28.128" cy="56.849" r="0.250"/><circle cx="27.121" cy="57.224" r="0.250"/><circle cx="26.072" cy="57.453" r="0.250"/><circle cx="25.000" cy="57.529" r="0.250"/><circle cx="23.928" cy="57.453" r="0.250"/><circle cx="22.879" cy="57.224" r="0.250"/><circle cx="21.872" cy="56.849" r="0.250"/><circle cx="20.929" cy="56.334" r="0.250"/><circle cx="20.069" cy="55.690" r="0.250"/><circle cx="19.310" cy="54.931" r="0.250"/><circle cx="18.666" cy="54.071" r="0.250"/><circle cx="18.151" cy="53.128" r="0.250"/><circle cx="17.776" cy="52.121" r="0.250"/><circle cx="17.547" cy="51.072" r="0.250"/><circle cx="17.471" cy="50.000" r="0.250"/><circle cx="17.547" cy="48.928" r="0.250"/><circle cx="17.776" cy="47.879" r="0.250"/><circle cx="18.151" cy="46.872" r="0.250"/><circle cx="18.666" cy="45.929" r="0.250"/><circle cx="19.310" cy="45.069" r="0.250"/><circle cx="20.069" cy="44.310" r="0.250"/><circle cx="20.929" cy="43.666" r="0.250"/><circle cx="21.872" cy="43.151" r="0.250"/><circle cx="22.879" cy="42.776" r="0.250"/><circle cx="23.928" cy="42.547" r="0.250"/><circle cx="25.000" cy="42.471" r="0.250"/><circle cx="26.072" cy="42.547" r="0.250"/><circle cx="27.121" cy="42.776" r="0.250"/><circle cx="28.128" cy="43.151" r="0.250"/><circle cx="29.071" cy="43.666" r="0.250"/><circle cx="29.931" cy="44.310" r="0.250"/><circle cx="30.690" cy="45.069" r="0.250"/><circle cx="31.334" cy="45.929" r="0.250"/><circle cx="31.849" cy="46.872" r="0.250"/><circle cx="32.224" cy="47.879" r="0.250"/><circle cx="32.453" cy="48.928" r="0.250"/><path d="M31.87,20.63Q37.00,22.00 31.87,23.37 M31.87,23.37Q36.09,26.59 30.82,25.89 M30.82,25.89Q33.49,30.49 28.89,27.82 M28.89,27.82Q29.59,33.09 26.37,28.87 M26.37,28.87Q25.00,34.00 23.63,28.87 M23.63,28.87Q20.41,33.09 21.11,27.82 M21.11,27.82Q16.51,30.49 19.18,25.89 M19.18,25.89Q13.91,26.59 18.13,23.37 M18.13,23.37Q13.00,22.00 18.13,20.63 M18.13,20.63Q13.91,17.41 19.18,18.11 M19.18,18.11Q16.51,13.51 21.11,16.18 M21.11,16.18Q20.41,10.91 23.63,15.13 M23.63,15.13Q25.00,10.00 26.37,15.13 M26.37,15.13Q29.59,10.91 28.89,16.18 M28.89,16.18Q33.49,13.51 30.82,18.11 M30.82,18.11Q36.09,17.41 31.87,20.63"/><path d="M31.82,76.44Q37.00,78.00 31.82,79.56 M31.82,79.56Q35.81,83.21 30.47,82.36 M30.47,82.36Q32.48,87.38 28.04,84.31 M28.04,84.31Q27.67,89.70 25.00,85.00 M25.00,85.00Q22.33,89.70 21.96,84.31 M21.96,84.31Q17.52,87.38 19.53,82.36 M19.53,82.36Q14.19,83.21 18.18,79.56 M18.18,79.56Q13.00,78.00 18.18,76.44 M18.18,76.44Q14.19,72.79 19.53,73.64 M19.53,73.64Q17.52,68.62 21.96,71.69 M21.96,71.69Q22.33,66.30 25.00,71.00 M25.00,71.00Q27.67,66.30 28.04,71.69 M28.04,71.69Q32.48,68.62 30.47,73.64 M30.47,73.64Q35.81,72.79 31.82,76.44"/><path d="M12.38,7.23Q15.00,8.00 12.38,8.77 M12.38,8.77Q14.05,10.94 11.47,10.02 M11.47,10.02Q11.55,12.76 10.00,10.50 M10.00,10.50Q8.45,12.76 8.53,10.02 M8.53,10.02Q5.95,10.94 7.62,8.77 M7.62,8.77Q5.00,8.00 7.62,7.23 M7.62,7.23Q5.95,5.06 8.53,5.98 M8.53,5.98Q8.45,3.24 10.00,5.50 M10.00,5.50Q11.55,3.24 11.47,5.98 M11.47,5.98Q14.05,5.06 12.38,7.23"/><path d="M27.38,7.23Q30.00,8.00 27.38,8.77 M27.38,8.77Q29.05,10.94 26.47,10.02 M26.47,10.02Q26.55,12.76 25.00,10.50 M25.00,10.50Q23.45,12.76 23.53,10.02 M23.53,10.02Q20.95,10.94 22.62,8.77 M22.62,8.77Q20.00,8.00 22.62,7.23 M22.62,7.23Q20.95,5.06 23.53,5.98 M23.53,5.98Q23.45,3.24 25.00,5.50 M25.00,5.50Q26.55,3.24 26.47,5.98 M26.47,5.98Q29.05,5.06 27.38,7.23"/><path d="M42.38,7.23Q45.00,8.00 42.38,8.77 M42.38,8.77Q44.05,10.94 41.47,10.02 M41.47,10.02Q41.55,12.76 40.00,10.50 M40.00,10.50Q38.45,12.76 38.53,10.02 M38.53,10.02Q35.95,10.94 37.62,8.77 M37.62,8.77Q35.00,8.00 37.62,7.23 M37.62,7.23Q35.95,5.06 38.53,5.98 M38.53,5.98Q38.45,3.24 40.00,5.50 M40.00,5.50Q41.55,3.24 41.47,5.98 M41.47,5.98Q44.05,5.06 42.38,7.23"/><path d="M12.38,22.23Q15.00,23.00 12.38,23.77 M12.38,23.77Q14.05,25.94 11.47,25.02 M11.47,25.02Q11.55,27.76 10.00,25.50 M10.00,25.50Q8.45,27.76 8.53,25.02 M8.53,25.02Q5.95,25.94 7.62,23.77 M7.62,23.77Q5.00,23.00 7.62,22.23 M7.62,22.23Q5.95,20.06 8.53,20.98 M8.53,20.98Q8.45,18.24 10.00,20.50 M10.00,20.50Q11.55,18.24 11.47,20.98 M11.47,20.98Q14.05,20.06 12.38,22.23"/><path d="M27.38,22.23Q30.00,23.00 27.38,23.77 M27.38,23.77Q29.05,25.94 26.47,25.02 M26.47,25.02Q26.55,27.76 25.00,25.50 M25.00,25.50Q23.45,27.76 23.53,25.02 M23.53,25.02Q20.95,25.94 22.62,23.77 M22.62,23.77Q20.00,23.00 22.62,22.23 M22.62,22.23Q20.95,20.06 23.53,20.98 M23.53,20.98Q23.45,18.24 25.00,20.50 M25.00,20.50Q26.55,18.24 26.47,20.98 M26.47,20.98Q29.05,20.06 27.38,22.23"/><path d="M42.38,22.23Q45.00,23.00 42.38,23.77 M42.38,23.77Q44.05,25.94 41.47,25.02 M41.47,25.02Q41.55,27.76 40.00,25.50 M40.00,25.50Q38.45,27.76 38.53,25.02 M38.53,25.02Q35.95,25.94 37.62,23.77 M37.62,23.77Q35.00,23.00 37.62,22.23 M37.62,22.23Q35.95,20.06 38.53,20.98 M38.53,20.98Q38.45,18.24 40.00,20.50 M40.00,20.50Q41.55,18.24 41.47,20.98 M41.47,20.98Q44.05,20.06 42.38,22.23"/><path d="M5.45,32.40Q9.45,37.40 6.45,39.40 M12.25,32.60Q16.25,39.60 11.25,39.60 M19.15,32.50Q21.15,37.50 20.15,39.50 M26.55,32.50Q30.55,37.50 28.55,39.50 M33.35,32.50Q36.35,41.50 35.35,39.50 M40.25,32.40Q46.25,36.40 40.25,39.40 M5.55,35.70Q9.55,40.70 7.55,42.70 M12.65,35.30Q16.65,39.30 12.65,42.30 M19.65,35.60Q21.65,43.60 21.65,42.60 M26.25,35.30Q32.25,39.30 25.25,42.30 M33.65,35.40Q37.65,43.40 35.65,42.40 M40.45,35.70Q45.45,41.70 39.45,42.70 M5.45,38.50Q11.45,42.50 7.45,45.50 M12.45,38.40Q15.45,45.40 14.45,45.40 M19.55,38.70Q23.55,44.70 18.55,45.70 M26.05,38.50Q31.05,45.50 28.05,45.50 M33.55,38.50Q37.55,47.50 34.55,45.50 M40.35,38.30Q44.35,43.30 39.35,45.30 M5.05,41.40Q9.05,48.40 5.05,48.40 M12.35,41.70Q14.35,50.70 13.35,48.70 M19.15,41.50Q23.15,48.50 18.15,48.50 M26.65,41.40Q30.65,49.40 25.65,48.40 M33.45,41.50Q38.45,50.50 32.45,48.50 M40.05,41.50Q44.05,49.50 39.05,48.50 M5.45,44.50Q10.45,52.50 7.45,51.50 M12.35,44.50Q15.35,52.50 14.35,51.50 M19.45,44.70Q23.45,50.70 20.45,51.70 M26.55,44.40Q31.55,50.40 28.55,51.40 M33.25,44.70Q36.25,48.70 35.25,51.70 M40.35,44.40Q43.35,49.40 41.35,51.40 M5.45,47.30Q7.45,51.30 5.45,54.30 M12.55,47.50Q16.55,54.50 11.55,54.50 M19.35,47.40Q21.35,54.40 19.35,54.40 M26.45,47.30Q32.45,54.30 27.45,54.30 M33.15,47.50Q37.15,52.50 32.15,54.50 M40.15,47.30Q42.15,56.30 42.15,54.30 M5.55,50.40Q10.55,57.40 4.55,57.40 M12.35,50.50Q18.35,54.50 14.35,57.50 M19.15,50.30Q23.15,55.30 18.15,57.30 M26.65,50.30Q31.65,54.30 26.65,57.30 M33.55,50.40Q37.55,58.40 33.55,57.40 M40.25,50.30Q43.25,58.30 40.25,57.30 M5.05,53.30Q8.05,57.30 4.05,60.30 M12.35,53.30Q17.35,57.30 11.35,60.30 M19.45,53.60Q21.45,61.60 21.45,60.60 M26.15,53.70Q28.15,58.70 25.15,60.70 M33.15,53.70Q39.15,59.70 33.15,60.70 M40.15,53.60Q43.15,58.60 40.15,60.60 M5.15,56.40Q9.15,63.40 6.15,63.40 M12.25,56.40Q15.25,63.40 11.25,63.40 M19.15,56.30Q21.15,63.30 19.15,63.30 M26.55,56.50Q32.55,63.50 25.55,63.50 M33.65,56.70Q38.65,61.70 32.65,63.70 M40.55,56.70Q44.55,60.70 40.55,63.70 M5.55,59.40Q7.55,68.40 7.55,66.40 M12.65,59.50Q18.65,63.50 13.65,66.50 M19.55,59.30Q24.55,65.30 20.55,66.30 M26.55,59.50Q30.55,63.50 28.55,66.50 M33.35,59.30Q39.35,67.30 33.35,66.30 M40.45,59.30Q45.45,65.30 39.45,66.30 M5.05,62.40Q8.05,66.40 6.05,69.40 M12.45,62.30Q17.45,69.30 12.45,69.30 M19.05,62.40Q25.05,68.40 18.05,69.40 M26.45,62.30Q32.45,67.30 26.45,69.30 M33.05,62.50Q35.05,71.50 35.05,69.50 M40.25,62.70Q44.25,71.70 40.25,69.70 M5.35,65.40Q11.35,72.40 6.35,72.40 M12.55,65.60Q17.55,74.60 11.55,72.60 M19.25,65.30Q21.25,74.30 20.25,72.30 M26.35,65.50Q29.35,69.50 26.35,72.50 M33.25,65.30Q36.25,72.30 34.25,72.30 M40.25,65.70Q44.25,71.70 40.25,72.70"/><path d="M4.60,2.55Q6.60,8.55 4.60,9.55 M11.63,2.45Q14.63,8.45 12.63,9.45 M18.97,2.25Q21.97,7.25 18.97,9.25 M26.70,2.25Q32.70,7.25 28.70,9.25 M33.93,2.45Q37.93,8.45 35.93,9.45 M41.07,2.45Q46.07,10.45 41.07,9.45 M4.50,3.75Q6.50,8.75 6.50,10.75 M11.93,3.75Q16.93,7.75 13.93,10.75 M18.77,3.75Q23.77,12.75 18.77,10.75 M26.40,3.95Q29.40,8.95 28.40,10.95 M33.63,3.85Q35.63,9.85 35.63,10.85 M41.07,3.95Q43.07,7.95 42.07,10.95 M4.40,5.45Q8.40,14.45 4.40,12.45 M11.73,5.55Q17.73,14.55 13.73,12.55 M19.17,5.25Q23.17,9.25 21.17,12.25 M26.60,5.25Q30.60,14.25 25.60,12.25 M33.83,5.25Q39.83,9.25 32.83,12.25 M41.27,5.35Q43.27,9.35 42.27,12.35 M4.20,6.75Q10.20,15.75 6.20,13.75 M11.73,6.85Q13.73,15.85 11.73,13.85 M19.37,7.05Q22.37,15.05 20.37,14.05 M26.60,6.85Q28.60,10.85 27.60,13.85 M33.93,7.05Q39.93,14.05 35.93,14.05 M40.87,7.05Q42.87,13.05 40.87,14.05 M4.60,8.55Q8.60,15.55 5.60,15.55 M11.93,8.25Q17.93,17.25 11.93,15.25 M19.37,8.25Q21.37,12.25 20.37,15.25 M26.40,8.55Q28.40,16.55 25.40,15.55 M33.93,8.15Q38.93,13.15 33.93,15.15 M40.97,8.15Q42.97,13.15 40.97,15.15 M4.30,9.95Q6.30,13.95 4.30,16.95 M11.73,9.65Q15.73,18.65 13.73,16.65 M19.37,10.05Q25.37,16.05 21.37,17.05 M26.50,9.95Q29.50,13.95 25.50,16.95 M33.83,9.95Q35.83,18.95 32.83,16.95 M40.77,9.65Q43.77,14.65 40.77,16.65 M4.50,11.15Q8.50,17.15 6.50,18.15 M12.03,11.45Q15.03,19.45 12.03,18.45 M18.77,11.25Q24.77,16.25 19.77,18.25 M26.10,11.25Q29.10,17.25 27.10,18.25 M34.03,11.45Q39.03,18.45 35.03,18.45 M41.17,11.35Q44.17,20.20 41.17,18.35 M4.20,13.05Q10.20,20.20 3.20,20.05 M11.43,12.95Q17.43,18.95 12.43,19.95 M19.37,12.95Q24.37,17.95 21.37,19.95 M26.50,13.05Q29.50,20.05 27.50,20.05 M33.63,12.65Q35.63,18.65 34.63,19.65 M41.17,12.85Q43.17,17.85 42.17,19.85 M4.10,14.35Q10.10,20.20 3.10,21.20 M11.93,14.45Q14.93,20.20 12.93,21.20 M18.77,14.25Q24.77,19.25 20.77,21.20 M26.40,14.25Q29.40,20.20 25.40,21.20 M33.73,14.25Q35.73,20.20 35.73,21.20 M41.07,14.35Q44.07,20.20 43.07,21.20 M4.30,15.95Q6.30,20.20 4.30,21.20 M11.93,15.75Q14.93,20.20 12.93,21.20 M19.37,15.65Q22.37,20.20 19.37,21.20 M26.60,15.65Q31.60,20.20 25.60,21.20 M33.43,15.75Q39.43,20.20 33.43,21.20 M41.27,15.95Q47.27,19.95 42.27,21.20 M4.10,16.20Q7.10,20.20 4.10,21.20 M11.93,16.20Q13.93,20.20 12.93,21.20 M18.87,16.20Q23.87,20.20 19.87,21.20 M26.10,16.20Q29.10,20.20 28.10,21.20 M34.03,16.20Q37.03,20.20 33.03,21.20 M40.77,16.20Q45.77,20.20 42.77,21.20 M4.40,16.20Q7.40,20.20 5.40,21.20 M11.53,16.20Q13.53,20.20 12.53,21.20 M19.27,16.20Q25.27,20.20 20.27,21.20 M26.20,16.20Q30.20,20.20 26.20,21.20 M33.53,16.20Q38.53,20.20 34.53,21.20 M41.07,16.20Q47.07,20.20 41.07,21.20"/>
  </g>
  <g id="cut-outline" fill="none" stroke-linecap="square" stroke-linejoin="miter">
    <rect x="0.000" y="0.000" width="50.000" height="100.000" fill="none" stroke="#ff0000" stroke-width="0.35"/><circle cx="25.000" cy="4.000" r="1.750" fill="none" stroke="#ff0000" stroke-width="0.35"/>
  </g>
</svg>
